SplineFontDB: 3.0
FontName: Jost-Hairline
FullName: Jost* 100 Hairline
FamilyName: Jost* Hairline
Weight: Hairline
Copyright: This typeface is licensed under the SIL open font license.
UComments: "2016-6-10: Created with FontForge (http://fontforge.org)"
Version: 003.200
ItalicAngle: 0
UnderlinePosition: -100
UnderlineWidth: 50
Ascent: 800
Descent: 200
InvalidEm: 0
LayerCount: 2
Layer: 0 0 "Back" 1
Layer: 1 0 "Fore" 0
PreferredKerning: 4
XUID: [1021 31 -699969567 16188444]
FSType: 0
OS2Version: 0
OS2_WeightWidthSlopeOnly: 0
OS2_UseTypoMetrics: 0
CreationTime: 1465610489
ModificationTime: 1533666203
PfmFamily: 33
TTFWeight: 100
TTFWidth: 5
LineGap: 100
VLineGap: 0
OS2TypoAscent: 825
OS2TypoAOffset: 0
OS2TypoDescent: -225
OS2TypoDOffset: 0
OS2TypoLinegap: 100
OS2WinAscent: 900
OS2WinAOffset: 0
OS2WinDescent: 300
OS2WinDOffset: 0
HheadAscent: 1030
HheadAOffset: 0
HheadDescent: -350
HheadDOffset: 0
OS2CapHeight: 700
OS2XHeight: 460
OS2Vendor: 'PfEd'
Lookup: 1 0 0 "'tnum' Tabular Numbers lookup 0" { "'tnum' Tabular Numbers lookup 0 subtable"  } ['tnum' ('DFLT' <'dflt' > 'grek' <'dflt' > 'latn' <'dflt' > ) ]
Lookup: 1 0 0 "'ss01' Style Set 1 in Latin lookup 1" { "'ss01' Style Set 1 in Latin lookup 1 subtable"  } ['ss01' ('DFLT' <'dflt' > 'latn' <'dflt' > ) ]
Lookup: 258 0 0 "Lets get our kern on" { "kernin like nobodys business" [150,0,4] } ['kern' ('DFLT' <'dflt' > 'latn' <'dflt' > ) ]
MarkAttachClasses: 1
DEI: 91125
KernClass2: 16 14 "kernin like nobodys business"
 15 slash seven V W
 175 quotedbl quotesingle asterisk grave dieresis ordfeminine macron degree acute ordmasculine circumflex breve dotaccent ring tilde quoteleft quoteright quotedblleft quotedblright
 17 nine question F P
 107 A L backslash Agrave Aacute Acircumflex Atilde Adieresis Aring Amacron Abreve Aogonek Lacute uni013B Lslash
 26 three eight B C germandbls
 5 K X Z
 125 at D G O Ograve Oacute Ocircumflex Otilde Odieresis Oslash Dcaron Dcroat Gcircumflex Gbreve Gdotaccent uni0122 Omacron Obreve

StartChar: H
Encoding: 72 72 0
GlifName: H_
Width: 647
VWidth: 0
Flags: HMW
LayerCount: 2
Fore
SplineSet
93 377 m 5
 93 387 l 5
 553 387 l 5
 553 377 l 5
 93 377 l 5
546 700 m 5
 557 700 l 5
 557 0 l 5
 546 0 l 5
 546 700 l 5
90 700 m 5
 101 700 l 5
 101 0 l 5
 90 0 l 5
 90 700 l 5
EndSplineSet
EndChar

StartChar: O
Encoding: 79 79 1
GlifName: O_
Width: 774
VWidth: 0
Flags: HMW
LayerCount: 2
Fore
SplineSet
61 350 m 4
 61 149 196 3 387 3 c 4
 578 3 713 149 713 350 c 4
 713 551 578 697 387 697 c 4
 196 697 61 551 61 350 c 4
50 350 m 4
 50 559 193 708 387 708 c 4
 581 708 724 559 724 350 c 4
 724 141 581 -8 387 -8 c 4
 193 -8 50 141 50 350 c 4
EndSplineSet
EndChar

StartChar: I
Encoding: 73 73 2
GlifName: I_
Width: 180
VWidth: 0
Flags: HMW
LayerCount: 2
Fore
SplineSet
85 700 m 1
 95 700 l 5
 95 0 l 5
 85 0 l 1
 85 700 l 1
EndSplineSet
EndChar

StartChar: C
Encoding: 67 67 3
GlifName: C_
Width: 685
VWidth: 0
Flags: HMW
LayerCount: 2
Fore
SplineSet
62 350 m 4
 62 150 193 4 380 4 c 4
 479 4 547 31 605 88 c 5
 605 72 l 1
 546 20 482 -8 380 -8 c 0
 186 -8 50 141 50 350 c 0
 50 559 186 708 380 708 c 0
 482 708 546 680 605 628 c 1
 605 613 l 5
 549 669 474 696 380 696 c 0
 194 696 62 553 62 350 c 4
EndSplineSet
EndChar

StartChar: E
Encoding: 69 69 4
GlifName: E_
Width: 510
VWidth: 0
Flags: HMW
LayerCount: 2
Fore
SplineSet
92 0 m 1
 92 10 l 1
 430 10 l 1
 430 0 l 1
 92 0 l 1
92 690 m 1
 92 700 l 1
 430 700 l 1
 430 690 l 1
 92 690 l 1
92 384 m 1
 92 394 l 1
 410 394 l 5
 410 384 l 1
 92 384 l 1
90 700 m 1
 101 700 l 1
 101 0 l 1
 90 0 l 1
 90 700 l 1
EndSplineSet
EndChar

StartChar: F
Encoding: 70 70 6
GlifName: F_
Width: 450
VWidth: 0
Flags: HMW
LayerCount: 2
Fore
SplineSet
93 689 m 1
 93 700 l 1
 390 700 l 5
 390 689 l 5
 93 689 l 1
93 373 m 1
 93 383 l 1
 380 383 l 5
 380 373 l 5
 93 373 l 1
90 700 m 1
 101 700 l 1
 101 0 l 1
 90 0 l 1
 90 700 l 1
EndSplineSet
EndChar

StartChar: G
Encoding: 71 71 7
GlifName: G_
Width: 765
VWidth: 0
Flags: HMW
LayerCount: 2
Fore
SplineSet
420 330 m 1
 420 340 l 1
 710 340 l 1
 700 330 l 1
 420 330 l 1
710 340 m 5
 710 156 584 -8 390 -8 c 0
 196 -8 50 141 50 350 c 0
 50 559 196 708 390 708 c 0
 519 708 608 643 668 556 c 1
 658 550 l 1
 608 633 512 697 390 697 c 0
 199 697 61 553 61 350 c 0
 61 150 198 3 390 3 c 0
 578 3 699 161 699 340 c 5
 710 340 l 5
EndSplineSet
EndChar

StartChar: T
Encoding: 84 84 8
GlifName: T_
Width: 431
VWidth: 0
Flags: HMW
LayerCount: 2
Fore
SplineSet
20 689 m 1
 20 700 l 1
 411 700 l 1
 411 689 l 1
 221 689 l 1
 221 0 l 1
 210 0 l 1
 210 689 l 1
 20 689 l 1
EndSplineSet
EndChar

StartChar: L
Encoding: 76 76 9
GlifName: L_
Width: 430
VWidth: 0
Flags: HMW
LayerCount: 2
Fore
SplineSet
97 0 m 1
 97 10 l 5
 410 10 l 5
 410 0 l 1
 97 0 l 1
90 700 m 1
 100 700 l 1
 100 0 l 1
 90 0 l 1
 90 700 l 1
EndSplineSet
EndChar

StartChar: D
Encoding: 68 68 10
GlifName: D_
Width: 635
VWidth: 0
Flags: HMW
LayerCount: 2
Fore
SplineSet
95 689 m 5
 95 700 l 5
 250 700 l 6
 454 700 585 559 585 350 c 5
 574 350 l 5
 574 553 450 689 250 689 c 6
 95 689 l 5
250 0 m 6
 95 0 l 5
 95 11 l 5
 250 11 l 6
 450 11 574 146 574 350 c 5
 585 350 l 5
 585 141 454 0 250 0 c 6
90 700 m 5
 101 700 l 5
 101 0 l 5
 90 0 l 5
 90 700 l 5
EndSplineSet
EndChar

StartChar: Q
Encoding: 81 81 11
GlifName: Q_
Width: 771
VWidth: 0
Flags: HMW
LayerCount: 2
Fore
SplineSet
61 350 m 0
 61 149 196 3 387 3 c 0
 578 3 713 149 713 350 c 0
 713 551 578 697 387 697 c 0
 196 697 61 551 61 350 c 0
50 350 m 0
 50 559 193 708 387 708 c 0
 581 708 724 559 724 350 c 0
 724 141 581 -8 387 -8 c 0
 193 -8 50 141 50 350 c 0
400 300 m 5
 416 300 l 1
 736 0 l 1
 720 0 l 5
 400 300 l 5
EndSplineSet
EndChar

StartChar: A
Encoding: 65 65 12
GlifName: A_
Width: 600
VWidth: 0
Flags: HMW
LayerCount: 2
Fore
SplineSet
127 272 m 1
 127 282 l 1
 472 282 l 1
 472 272 l 1
 127 272 l 1
300 688 m 5
 136 277 l 1
 135 273 l 1
 27 0 l 1
 15 0 l 1
 300 715 l 5
 585 0 l 1
 573 0 l 1
 466 273 l 1
 465 276 l 1
 300 688 l 5
EndSplineSet
EndChar

StartChar: R
Encoding: 82 82 13
GlifName: R_
Width: 468
VWidth: 0
Flags: HMW
LayerCount: 2
Fore
SplineSet
199 317 m 1
 211 317 l 1
 433 0 l 1
 419 0 l 1
 199 317 l 1
90 700 m 1
 101 700 l 1
 101 0 l 1
 90 0 l 1
 90 700 l 1
92 689 m 1
 92 700 l 1
 205 700 l 2
 340 700 441 636 441 507 c 4
 441 378 340 314 205 314 c 2
 92 314 l 1
 92 324 l 1
 205 324 l 2
 337 324 430 384 430 507 c 4
 430 630 336 689 205 689 c 2
 92 689 l 1
EndSplineSet
EndChar

StartChar: V
Encoding: 86 86 14
GlifName: V_
Width: 600
VWidth: 0
Flags: HMW
LayerCount: 2
Fore
SplineSet
300 15 m 5
 572 700 l 1
 585 700 l 1
 300 -15 l 5
 15 700 l 1
 28 700 l 1
 300 15 l 5
EndSplineSet
EndChar

StartChar: M
Encoding: 77 77 15
GlifName: M_
Width: 830
VWidth: 0
Flags: HMW
LayerCount: 2
Fore
SplineSet
688 675 m 5
 695 715 l 5
 770 0 l 1
 759 0 l 1
 688 675 l 5
135 715 m 5
 142 675 l 5
 71 0 l 1
 60 0 l 1
 135 715 l 5
695 715 m 5
 688 675 l 5
 415 105 l 1
 142 675 l 5
 135 715 l 5
 415 131 l 1
 695 715 l 5
EndSplineSet
EndChar

StartChar: W
Encoding: 87 87 16
GlifName: W_
Width: 950
VWidth: 0
Flags: HMW
LayerCount: 2
Fore
SplineSet
260 10 m 5
 255 -15 l 5
 20 700 l 1
 31 700 l 1
 260 10 l 5
695 -15 m 5
 690 10 l 5
 919 700 l 1
 930 700 l 1
 695 -15 l 5
255 -15 m 5
 253 20 l 5
 475 715 l 1
 697 20 l 5
 695 -15 l 5
 475 677 l 1
 255 -15 l 5
EndSplineSet
EndChar

StartChar: N
Encoding: 78 78 17
GlifName: N_
Width: 665
VWidth: 0
Flags: HMW
LayerCount: 2
Fore
SplineSet
61 678 m 1
 50 715 l 1
 584 17 l 5
 595 -15 l 5
 61 678 l 1
584 700 m 1
 595 700 l 1
 595 -15 l 5
 584 17 l 5
 584 700 l 1
50 715 m 1
 61 678 l 1
 61 0 l 1
 50 0 l 1
 50 715 l 1
EndSplineSet
EndChar

StartChar: a
Encoding: 97 97 18
GlifName: a
Width: 435
VWidth: 0
Flags: HMW
LayerCount: 2
Fore
SplineSet
50 135 m 4
 50 37 123 0 193 0 c 4
 283 0 355 74 355 160 c 5
 360 160 l 5
 360 71 295 -10 193 -10 c 4
 118 -10 40 31 40 135 c 4
 40 232 130 281 221 281 c 4
 299 281 337 253 358 235 c 5
 358 225 l 5
 334 247 289 271 221 271 c 4
 138 271 50 227 50 135 c 4
84 395 m 5
 77 403 l 5
 110 434 160 470 233 470 c 4
 323 470 365 409 365 320 c 6
 365 0 l 5
 355 0 l 5
 355 320 l 6
 355 406 316 460 233 460 c 4
 167 460 121 430 84 395 c 5
EndSplineSet
Substitution2: "'ss01' Style Set 1 in Latin lookup 1 subtable" a.alt
EndChar

StartChar: X
Encoding: 88 88 19
GlifName: X_
Width: 500
VWidth: 0
Flags: HMW
LayerCount: 2
Fore
SplineSet
451 700 m 1
 465 700 l 1
 259 367 l 1
 480 0 l 1
 466 0 l 1
 252 356 l 1
 34 0 l 1
 20 0 l 1
 246 367 l 1
 45 700 l 1
 59 700 l 1
 253 377 l 5
 451 700 l 1
EndSplineSet
EndChar

StartChar: K
Encoding: 75 75 20
GlifName: K_
Width: 454
VWidth: 0
Flags: HMW
LayerCount: 2
Fore
SplineSet
85 700 m 1
 96 700 l 1
 96 0 l 1
 85 0 l 1
 85 700 l 1
408 700 m 1
 424 700 l 1
 109 372 l 5
 439 0 l 1
 422 0 l 1
 94 372 l 1
 408 700 l 1
EndSplineSet
EndChar

StartChar: Y
Encoding: 89 89 21
GlifName: Y_
Width: 507
VWidth: 0
Flags: HMW
LayerCount: 2
Fore
SplineSet
243 275 m 1
 254 275 l 1
 254 0 l 1
 243 0 l 1
 243 275 l 1
479 700 m 1
 492 700 l 1
 248 256 l 1
 15 700 l 1
 28 700 l 1
 248 281 l 1
 479 700 l 1
EndSplineSet
EndChar

StartChar: B
Encoding: 66 66 22
GlifName: B_
Width: 495
VWidth: 0
Flags: HMW
LayerCount: 2
Fore
SplineSet
97 392 m 1
 220 392 l 2
 305 392 435 329 435 200 c 4
 435 61 345 0 210 0 c 2
 97 0 l 1
 97 11 l 1
 210 11 l 2
 340 11 424 69 424 200 c 4
 424 316 310 384 210 384 c 2
 97 384 l 1
 97 392 l 1
97 386 m 1
 97 394 l 1
 200 394 l 6
 300 394 387 434 387 540 c 0
 387 634 320 689 200 689 c 6
 97 689 l 1
 97 700 l 1
 200 700 l 6
 325 700 398 639 398 540 c 0
 398 431 315 386 210 386 c 6
 97 386 l 1
90 700 m 1
 100 700 l 1
 100 0 l 1
 90 0 l 1
 90 700 l 1
EndSplineSet
EndChar

StartChar: Z
Encoding: 90 90 23
GlifName: Z_
Width: 535
VWidth: 0
Flags: HMW
LayerCount: 2
Fore
SplineSet
40 689 m 1
 40 700 l 1
 520 700 l 1
 42 11 l 5
 510 11 l 1
 510 0 l 1
 20 0 l 1
 498 689 l 1
 40 689 l 1
EndSplineSet
EndChar

StartChar: o
Encoding: 111 111 24
GlifName: o
Width: 556
VWidth: 0
Flags: HMW
LayerCount: 2
Fore
SplineSet
45 230 m 0
 45 369 146 470 278 470 c 0
 410 470 511 369 511 230 c 0
 511 91 410 -10 278 -10 c 0
 146 -10 45 91 45 230 c 0
55 230 m 0
 55 96 153 0 278 0 c 0
 403 0 501 96 501 230 c 0
 501 364 403 460 278 460 c 0
 153 460 55 364 55 230 c 0
EndSplineSet
EndChar

StartChar: J
Encoding: 74 74 25
GlifName: J_
Width: 197
VWidth: 0
Flags: HMW
LayerCount: 2
Fore
SplineSet
-127 -158 m 1
 -103 -182 -63 -209 -17 -209 c 0
 72 -209 96 -166 96 -50 c 2
 96 700 l 1
 107 700 l 1
 107 -60 l 2
 107 -169 78 -220 -16 -220 c 0
 -69 -220 -119 -185 -134 -165 c 1
 -127 -158 l 1
EndSplineSet
EndChar

StartChar: t
Encoding: 116 116 26
GlifName: t
Width: 190
VWidth: 0
Flags: HMW
LayerCount: 2
Fore
SplineSet
15 460 m 1
 175 460 l 1
 175 450 l 5
 15 450 l 5
 15 460 l 1
90 620 m 1
 100 620 l 1
 100 0 l 1
 90 0 l 1
 90 620 l 1
EndSplineSet
EndChar

StartChar: d
Encoding: 100 100 27
GlifName: d
Width: 541
VWidth: 0
Flags: HMW
LayerCount: 2
Fore
SplineSet
451 780 m 1
 461 780 l 1
 461 0 l 1
 451 0 l 1
 451 780 l 1
45 230 m 4
 45 377 138 470 258 470 c 4
 381 470 456 349 456 230 c 4
 456 111 381 -10 258 -10 c 4
 138 -10 45 83 45 230 c 4
55 230 m 4
 55 89 145 0 261 0 c 4
 370 0 451 114 451 230 c 4
 451 346 370 460 261 460 c 4
 145 460 55 371 55 230 c 4
EndSplineSet
EndChar

StartChar: l
Encoding: 108 108 28
GlifName: l
Width: 180
VWidth: 0
Flags: HMW
LayerCount: 2
Fore
SplineSet
85 780 m 1
 95 780 l 5
 95 0 l 5
 85 0 l 1
 85 780 l 1
EndSplineSet
EndChar

StartChar: i
Encoding: 105 105 29
GlifName: i
Width: 190
VWidth: 0
Flags: HMW
LayerCount: 2
Fore
SplineSet
85 695 m 4
 85 701 88 705 95 705 c 4
 102 705 105 701 105 695 c 4
 105 689 102 685 95 685 c 4
 88 685 85 689 85 695 c 4
90 460 m 5
 100 460 l 5
 100 0 l 5
 90 0 l 5
 90 460 l 5
EndSplineSet
EndChar

StartChar: r
Encoding: 114 114 30
GlifName: r
Width: 290
VWidth: 0
Flags: HMW
LayerCount: 2
Fore
SplineSet
95 460 m 1
 95 0 l 1
 85 0 l 1
 85 460 l 1
 95 460 l 1
269 440 m 1
 252 452 232 460 212 460 c 4
 132 460 95 376 95 280 c 1
 90 280 l 1
 90 389 127 470 212 470 c 4
 235 470 258 460 275 448 c 1
 269 440 l 1
EndSplineSet
EndChar

StartChar: c
Encoding: 99 99 31
GlifName: c
Width: 488
VWidth: 0
Flags: HMW
LayerCount: 2
Fore
SplineSet
50 230 m 4
 50 96 148 0 273 0 c 4
 347 0 407 37 428 61 c 5
 428 48 l 5
 406 23 346 -10 273 -10 c 4
 141 -10 40 91 40 230 c 4
 40 369 141 470 273 470 c 4
 346 470 406 436 428 412 c 5
 428 399 l 5
 407 423 347 460 273 460 c 4
 148 460 50 364 50 230 c 4
EndSplineSet
EndChar

StartChar: b
Encoding: 98 98 32
GlifName: b
Width: 541
VWidth: 0
Flags: HMW
LayerCount: 2
Fore
SplineSet
90 780 m 5
 90 0 l 5
 80 0 l 5
 80 780 l 5
 90 780 l 5
496 230 m 4
 496 83 403 -10 283 -10 c 4
 160 -10 85 111 85 230 c 4
 85 349 160 470 283 470 c 4
 403 470 496 377 496 230 c 4
486 230 m 4
 486 371 396 460 280 460 c 4
 171 460 90 346 90 230 c 4
 90 114 171 0 280 0 c 4
 396 0 486 89 486 230 c 4
EndSplineSet
EndChar

StartChar: p
Encoding: 112 112 33
GlifName: p
Width: 541
VWidth: 0
Flags: HMW
LayerCount: 2
Fore
SplineSet
90 -220 m 5
 80 -220 l 1
 80 460 l 1
 90 460 l 5
 90 -220 l 5
496 230 m 0
 496 83 403 -10 283 -10 c 0
 160 -10 85 111 85 230 c 0
 85 349 160 470 283 470 c 0
 403 470 496 377 496 230 c 0
486 230 m 0
 486 371 396 460 280 460 c 0
 171 460 90 346 90 230 c 0
 90 114 171 0 280 0 c 0
 396 0 486 89 486 230 c 0
EndSplineSet
EndChar

StartChar: q
Encoding: 113 113 34
GlifName: q
Width: 541
VWidth: 0
Flags: HMW
LayerCount: 2
Fore
SplineSet
451 -220 m 1
 451 460 l 1
 461 460 l 1
 461 -220 l 1
 451 -220 l 1
45 230 m 0
 45 377 138 470 258 470 c 0
 381 470 456 349 456 230 c 0
 456 111 381 -10 258 -10 c 0
 138 -10 45 83 45 230 c 0
55 230 m 0
 55 89 145 0 261 0 c 0
 370 0 451 114 451 230 c 0
 451 346 370 460 261 460 c 0
 145 460 55 371 55 230 c 0
EndSplineSet
EndChar

StartChar: h
Encoding: 104 104 35
GlifName: h
Width: 475
VWidth: 0
Flags: HMW
LayerCount: 2
Fore
SplineSet
95 780 m 1
 95 0 l 1
 85 0 l 1
 85 780 l 1
 95 780 l 1
380 320 m 6
 380 401 347 460 257 460 c 0
 166 460 95 375 95 280 c 1
 90 280 l 1
 90 389 162 470 257 470 c 0
 352 470 390 409 390 320 c 6
 390 0 l 1
 380 0 l 1
 380 320 l 6
EndSplineSet
EndChar

StartChar: n
Encoding: 110 110 36
GlifName: n
Width: 475
VWidth: 0
Flags: HMW
LayerCount: 2
Fore
SplineSet
95 460 m 1
 95 0 l 1
 85 0 l 1
 85 460 l 1
 95 460 l 1
380 320 m 6
 380 401 347 460 257 460 c 0
 166 460 95 375 95 280 c 1
 90 280 l 1
 90 389 162 470 257 470 c 0
 352 470 390 409 390 320 c 6
 390 0 l 1
 380 0 l 1
 380 320 l 6
EndSplineSet
EndChar

StartChar: m
Encoding: 109 109 37
GlifName: m
Width: 690
VWidth: 0
Flags: HMW
LayerCount: 2
Fore
SplineSet
340 320 m 6
 340 401 307 460 237 460 c 0
 167 460 95 376 95 280 c 1
 90 280 l 1
 90 389 162 470 237 470 c 0
 312 470 350 409 350 320 c 6
 350 0 l 1
 340 0 l 1
 340 320 l 6
95 460 m 1
 95 0 l 1
 85 0 l 1
 85 460 l 1
 95 460 l 1
605 320 m 6
 605 0 l 1
 595 0 l 1
 595 320 l 6
 595 401 562 460 492 460 c 0
 421 460 350 375 350 280 c 1
 343 280 l 1
 343 389 417 470 492 470 c 0
 567 470 605 409 605 320 c 6
EndSplineSet
EndChar

StartChar: k
Encoding: 107 107 38
GlifName: k
Width: 372
VWidth: 0
Flags: HMW
LayerCount: 2
Fore
SplineSet
80 780 m 5
 90 780 l 5
 90 0 l 5
 80 0 l 5
 80 780 l 5
328 460 m 5
 344 460 l 5
 102 270 l 5
 362 0 l 5
 348 0 l 5
 88 270 l 5
 328 460 l 5
EndSplineSet
EndChar

StartChar: u
Encoding: 117 117 39
GlifName: u
Width: 475
VWidth: 0
Flags: HMW
LayerCount: 2
Fore
SplineSet
380 0 m 5
 380 460 l 5
 390 460 l 5
 390 0 l 5
 380 0 l 5
95 150 m 6
 95 59 128 0 218 0 c 4
 309 0 380 85 380 180 c 5
 385 180 l 5
 385 71 313 -10 218 -10 c 4
 123 -10 85 51 85 150 c 6
 85 460 l 5
 95 460 l 5
 95 150 l 6
EndSplineSet
EndChar

StartChar: e
Encoding: 101 101 40
GlifName: e
Width: 502
VWidth: 0
Flags: HMW
LayerCount: 2
Fore
SplineSet
52 228 m 1
 52 238 l 1
 451 238 l 1
 455 228 l 1
 52 228 l 1
446 253 m 2
 446 372 355 460 255 460 c 0
 152 460 55 375 55 232 c 1
 55 232 l 1
 55 100 141 0 250 0 c 4
 368 0 411 64 441 113 c 1
 449 107 l 1
 419 59 375 -10 250 -10 c 4
 135 -10 45 93 45 232 c 0
 45 259 48 284 55 308 c 0
 82 403 157 470 255 470 c 0
 360 470 457 379 457 254 c 0
 457 246 456 236 455 228 c 1
 446 230 l 1
 446 253 l 2
EndSplineSet
EndChar

StartChar: g
Encoding: 103 103 41
GlifName: g
Width: 541
VWidth: 0
Flags: HMW
LayerCount: 2
Fore
SplineSet
60 -30 m 1
 70 -30 l 1
 70 -146 145 -220 252 -220 c 0
 359 -220 451 -145 451 10 c 6
 451 460 l 1
 461 460 l 1
 461 10 l 2
 461 -149 367 -230 252 -230 c 0
 137 -230 60 -149 60 -30 c 1
45 230 m 0
 45 377 138 470 258 470 c 0
 381 470 456 349 456 230 c 0
 456 111 381 -10 258 -10 c 0
 138 -10 45 83 45 230 c 0
55 230 m 0
 55 89 145 0 261 0 c 0
 371 0 451 114 451 235 c 0
 451 341 371 460 261 460 c 0
 145 460 55 371 55 230 c 0
EndSplineSet
EndChar

StartChar: f
Encoding: 102 102 42
GlifName: f
Width: 278
VWidth: 0
Flags: HMW
LayerCount: 2
Fore
SplineSet
50 460 m 1
 245 460 l 1
 245 450 l 1
 50 450 l 1
 50 460 l 1
281 733 m 5
 265 753 240 778 203 778 c 4
 123 778 105 706 105 650 c 6
 105 0 l 5
 95 0 l 5
 95 650 l 6
 95 719 119 788 203 788 c 4
 246 788 273 760 288 740 c 5
 281 733 l 5
EndSplineSet
EndChar

StartChar: s
Encoding: 115 115 43
GlifName: s
Width: 403
VWidth: 0
Flags: HMW
LayerCount: 2
Fore
SplineSet
50 147 m 1
 64 76 101 0 198 0 c 0
 270 0 322 45 322 117 c 4
 322 183 265 211 197 231 c 0
 124 252 67 272 67 359 c 0
 67 430 125 468 197 468 c 0
 277 468 313 419 331 368 c 1
 321 365 l 1
 304 413 269 458 197 458 c 0
 132 458 77 424 77 359 c 0
 77 278 133 260 203 240 c 0
 269 221 332 189 332 117 c 0
 332 38 277 -10 198 -10 c 0
 93 -10 54 69 40 144 c 1
 50 147 l 1
EndSplineSet
EndChar

StartChar: y
Encoding: 121 121 44
GlifName: y
Width: 425
VWidth: 0
Flags: HMW
LayerCount: 2
Fore
SplineSet
415 460 m 1
 115 -220 l 1
 104 -220 l 1
 210 20 l 1
 10 460 l 1
 22 460 l 1
 221 20 l 1
 210 20 l 1
 404 460 l 1
 415 460 l 1
EndSplineSet
EndChar

StartChar: w
Encoding: 119 119 45
GlifName: w
Width: 620
VWidth: 0
Flags: HMW
LayerCount: 2
Fore
SplineSet
595 460 m 1
 605 460 l 1
 458 -15 l 5
 458 18 l 5
 595 460 l 1
305 441 m 1
 305 475 l 1
 458 18 l 5
 458 -15 l 5
 305 441 l 1
305 475 m 1
 305 441 l 1
 162 -15 l 1
 162 18 l 1
 305 475 l 1
15 460 m 1
 25 460 l 1
 162 18 l 1
 162 -15 l 1
 15 460 l 1
EndSplineSet
EndChar

StartChar: v
Encoding: 118 118 46
GlifName: v
Width: 420
VWidth: 0
Flags: HMW
LayerCount: 2
Fore
SplineSet
10 460 m 1
 22 460 l 1
 210 10 l 1
 398 460 l 1
 410 460 l 1
 210 -15 l 1
 10 460 l 1
EndSplineSet
EndChar

StartChar: x
Encoding: 120 120 47
GlifName: x
Width: 380
VWidth: 0
Flags: HMW
LayerCount: 2
Fore
SplineSet
345 460 m 1
 359 460 l 5
 197 237 l 5
 370 0 l 1
 355 0 l 1
 190 229 l 1
 25 0 l 1
 10 0 l 1
 183 237 l 1
 20 460 l 1
 35 460 l 1
 190 245 l 1
 345 460 l 1
EndSplineSet
EndChar

StartChar: z
Encoding: 122 122 48
GlifName: z
Width: 430
VWidth: 0
Flags: HMW
LayerCount: 2
Fore
SplineSet
379 450 m 1
 40 450 l 1
 40 460 l 1
 400 460 l 1
 41 10 l 1
 410 10 l 5
 410 0 l 5
 20 0 l 1
 379 450 l 1
EndSplineSet
EndChar

StartChar: j
Encoding: 106 106 49
GlifName: j
Width: 180
VWidth: 0
Flags: HMW
LayerCount: 2
Fore
SplineSet
75 695 m 4
 75 701 78 705 85 705 c 4
 92 705 95 701 95 695 c 4
 95 689 92 685 85 685 c 4
 78 685 75 689 75 695 c 4
-96 -165 m 5
 -80 -185 -55 -210 -18 -210 c 4
 62 -210 80 -138 80 -82 c 6
 80 460 l 5
 90 460 l 5
 90 -82 l 6
 90 -151 66 -220 -18 -220 c 4
 -61 -220 -88 -192 -103 -172 c 5
 -96 -165 l 5
EndSplineSet
EndChar

StartChar: P
Encoding: 80 80 50
GlifName: P_
Width: 480
VWidth: 0
Flags: HMW
LayerCount: 2
Fore
SplineSet
90 700 m 1
 101 700 l 1
 101 0 l 1
 90 0 l 1
 90 700 l 1
97 690 m 1
 97 700 l 1
 215 700 l 2
 340 700 430 626 430 497 c 0
 430 368 340 294 215 294 c 2
 97 294 l 1
 97 304 l 1
 215 304 l 2
 335 304 419 374 419 497 c 0
 419 620 335 690 215 690 c 2
 97 690 l 1
EndSplineSet
EndChar

StartChar: U
Encoding: 85 85 51
GlifName: U_
Width: 576
VWidth: 0
Flags: HMW
LayerCount: 2
Fore
SplineSet
85 700 m 1
 96 700 l 1
 96 220 l 2
 96 84 168 1 288 1 c 0
 408 1 480 84 480 220 c 2
 480 700 l 1
 491 700 l 1
 491 220 l 2
 491 81 423 -10 288 -10 c 4
 153 -10 85 81 85 220 c 2
 85 700 l 1
EndSplineSet
EndChar

StartChar: S
Encoding: 83 83 52
GlifName: S_
Width: 488
VWidth: 0
Flags: HMW
LayerCount: 2
Fore
SplineSet
50 197 m 1
 77 109 134 3 255 3 c 0
 385 3 432 77 432 175 c 0
 432 278 343 331 267 359 c 0
 187 388 80 442 80 550 c 0
 80 646 159 708 253 708 c 0
 366 708 421 621 439 550 c 1
 429 548 l 1
 410 615 359 697 253 697 c 4
 163 697 91 636 91 550 c 0
 91 450 188 399 273 368 c 0
 356 338 443 283 443 175 c 0
 443 76 394 -8 255 -8 c 0
 130 -8 69 96 40 193 c 1
 50 197 l 1
EndSplineSet
EndChar

StartChar: at
Encoding: 64 64 53
GlifName: at
Width: 770
VWidth: 0
Flags: HMW
LayerCount: 2
Fore
SplineSet
216 320 m 0
 216 234 268 174 338 174 c 0
 423 174 490 264 490 370 c 0
 490 446 448 517 378 517 c 0
 298 517 216 451 216 320 c 0
205 320 m 0
 205 459 293 528 378 528 c 0
 453 528 500 456 500 367 c 0
 500 258 425 163 340 163 c 0
 265 163 205 221 205 320 c 0
35 320 m 0
 35 539 191 708 415 708 c 0
 619 708 735 549 735 390 c 0
 735 229 631 152 556 152 c 0
 495 152 468 204 482 290 c 1
 480 290 l 9
 520 520 l 1
 532 520 l 5
 491 289 l 6
 490 282 489 262 489 254 c 0
 489 220 497 163 556 163 c 0
 629 163 724 244 724 390 c 0
 724 543 613 697 415 697 c 0
 196 697 46 536 46 320 c 0
 46 127 159 3 355 3 c 0
 464 3 542 32 597 61 c 1
 603 51 l 1
 543 22 469 -8 355 -8 c 0
 151 -8 35 121 35 320 c 0
EndSplineSet
EndChar

StartChar: period
Encoding: 46 46 54
GlifName: period
Width: 260
VWidth: 0
Flags: HMW
LayerCount: 2
Fore
SplineSet
119 1 m 4
 119 8 124 12 130 12 c 4
 136 12 141 8 141 1 c 4
 141 -6 136 -10 130 -10 c 4
 124 -10 119 -6 119 1 c 4
EndSplineSet
EndChar

StartChar: comma
Encoding: 44 44 55
GlifName: comma
Width: 276
VWidth: 0
Flags: HMW
LayerCount: 2
Fore
SplineSet
175 94 m 5
 186 89 l 1
 76 -161 l 1
 70 -159 l 1
 175 94 l 5
EndSplineSet
EndChar

StartChar: colon
Encoding: 58 58 56
GlifName: colon
Width: 300
VWidth: 0
Flags: HMW
LayerCount: 2
Fore
SplineSet
119 1 m 0
 119 8 124 12 130 12 c 0
 136 12 141 8 141 1 c 0
 141 -6 136 -10 130 -10 c 0
 124 -10 119 -6 119 1 c 0
119 349 m 0
 119 356 124 360 130 360 c 0
 136 360 141 356 141 349 c 0
 141 342 136 338 130 338 c 0
 124 338 119 342 119 349 c 0
EndSplineSet
EndChar

StartChar: semicolon
Encoding: 59 59 57
GlifName: semicolon
Width: 276
VWidth: 0
Flags: HMW
LayerCount: 2
Fore
SplineSet
149 349 m 0
 149 356 154 360 160 360 c 0
 166 360 171 356 171 349 c 0
 171 342 166 338 160 338 c 0
 154 338 149 342 149 349 c 0
175 94 m 1
 186 89 l 1
 76 -161 l 1
 70 -159 l 1
 175 94 l 1
EndSplineSet
EndChar

StartChar: quotedbl
Encoding: 34 34 58
GlifName: quotedbl
Width: 403
VWidth: 0
Flags: HMW
LayerCount: 2
Fore
SplineSet
140 700 m 1
 153 700 l 1
 97 420 l 5
 90 420 l 5
 140 700 l 1
320 700 m 1
 333 700 l 1
 277 420 l 5
 270 420 l 5
 320 700 l 1
EndSplineSet
EndChar

StartChar: exclam
Encoding: 33 33 59
GlifName: exclam
Width: 262
VWidth: 0
Flags: HMW
LayerCount: 2
Fore
SplineSet
124 700 m 1
 138 700 l 5
 134 200 l 1
 128 200 l 1
 124 700 l 1
120 1 m 0
 120 8 125 12 131 12 c 0
 137 12 142 8 142 1 c 0
 142 -6 137 -10 131 -10 c 0
 125 -10 120 -6 120 1 c 0
EndSplineSet
EndChar

StartChar: quotesingle
Encoding: 39 39 60
GlifName: quotesingle
Width: 223
VWidth: 0
Flags: HMW
LayerCount: 2
Fore
SplineSet
140 700 m 1
 153 700 l 1
 97 420 l 5
 90 420 l 5
 140 700 l 1
EndSplineSet
EndChar

StartChar: numbersign
Encoding: 35 35 61
GlifName: numbersign
Width: 571
VWidth: 0
Flags: HMW
LayerCount: 2
Fore
SplineSet
75 454 m 1
 75 465 l 1
 536 465 l 1
 536 454 l 1
 420 454 l 0
 416 454 l 0
 208 454 l 0
 205 454 l 0
 75 454 l 1
35 240 m 1
 35 251 l 1
 155 251 l 0
 160 251 l 0
 363 251 l 0
 369 251 l 0
 496 251 l 1
 496 240 l 1
 35 240 l 1
470 700 m 1
 481 700 l 1
 311 0 l 1
 300 0 l 1
 359 244 l 4
 360 246 l 0
 411 458 l 0
 412 462 l 0
 470 700 l 1
260 700 m 1
 271 700 l 1
 213 462 l 0
 212 458 l 0
 160 244 l 0
 160 243 l 0
 101 0 l 1
 90 0 l 1
 260 700 l 1
EndSplineSet
EndChar

StartChar: hyphen
Encoding: 45 45 62
GlifName: hyphen
Width: 210
VWidth: 0
Flags: HMW
LayerCount: 2
Fore
SplineSet
5 265 m 5
 5 275 l 1
 205 275 l 1
 205 265 l 5
 5 265 l 5
EndSplineSet
EndChar

StartChar: dollar
Encoding: 36 36 63
GlifName: dollar
Width: 580
VWidth: 0
Flags: HMW
LayerCount: 2
Fore
SplineSet
248 818 m 1
 258 818 l 1
 258 700 l 1
 248 700 l 1
 248 818 l 1
250 -2 m 1
 260 -2 l 1
 260 -112 l 1
 250 -112 l 1
 250 -2 l 1
429 548 m 1
 410 615 359 697 253 697 c 0
 163 697 91 636 91 550 c 0
 91 450 188 399 273 368 c 0
 357 338 443 283 443 175 c 0
 443 76 394 -8 255 -8 c 0
 130 -8 69 96 40 193 c 1
 50 197 l 5
 78 103 134 3 255 3 c 0
 385 3 432 77 432 175 c 0
 432 278 343 331 267 359 c 0
 187 388 80 442 80 550 c 0
 80 646 159 708 253 708 c 0
 366 708 421 621 439 550 c 1
 429 548 l 1
EndSplineSet
EndChar

StartChar: bar
Encoding: 124 124 64
GlifName: bar
Width: 210
VWidth: 0
Flags: HMW
LayerCount: 2
Fore
SplineSet
100 785 m 1
 110 785 l 5
 110 -215 l 5
 100 -215 l 1
 100 785 l 1
EndSplineSet
EndChar

StartChar: zero
Encoding: 48 48 65
GlifName: zero
Width: 550
VWidth: 0
Flags: HMW
LayerCount: 2
Fore
SplineSet
66 350 m 4
 66 163 143 0 275 0 c 4
 407 0 484 163 484 350 c 4
 484 537 407 700 275 700 c 4
 143 700 66 537 66 350 c 4
55 350 m 4
 55 549 136 710 275 710 c 4
 414 710 495 549 495 350 c 4
 495 151 414 -10 275 -10 c 4
 136 -10 55 151 55 350 c 4
EndSplineSet
Substitution2: "'tnum' Tabular Numbers lookup 0 subtable" uniFF10
EndChar

StartChar: one
Encoding: 49 49 66
GlifName: one
Width: 410
VWidth: 0
Flags: HMW
LayerCount: 2
Fore
SplineSet
95 654 m 5
 95 665 l 5
 275 705 l 5
 275 0 l 5
 265 0 l 5
 265 691 l 5
 95 654 l 5
EndSplineSet
Substitution2: "'tnum' Tabular Numbers lookup 0 subtable" uniFF11
EndChar

StartChar: two
Encoding: 50 50 67
GlifName: two
Width: 514
VWidth: 0
Flags: HMW
LayerCount: 2
Fore
SplineSet
25 0 m 5
 345 334 l 6
 394 385 440 435 440 519 c 4
 440 598 392 701 262 701 c 4
 142 701 65 601 65 460 c 5
 55 460 l 5
 55 609 137 711 262 711 c 4
 396 711 451 603 451 519 c 4
 451 437 404 380 354 328 c 6
 50 10 l 5
 479 10 l 5
 479 0 l 5
 25 0 l 5
EndSplineSet
Substitution2: "'tnum' Tabular Numbers lookup 0 subtable" uniFF12
EndChar

StartChar: four
Encoding: 52 52 68
GlifName: four
Width: 553
VWidth: 0
Flags: HMW
LayerCount: 2
Fore
SplineSet
25 140 m 5
 35 150 l 5
 402 150 l 4
 405 150 l 4
 518 150 l 5
 518 140 l 5
 25 140 l 5
37 140 m 5
 25 140 l 5
 408 700 l 29
 409 700 l 5
 409 0 l 5
 398 0 l 5
 398 142 l 4
 398 147 l 4
 398 666 l 5
 37 140 l 5
EndSplineSet
Substitution2: "'tnum' Tabular Numbers lookup 0 subtable" uniFF14
EndChar

StartChar: slash
Encoding: 47 47 69
GlifName: slash
Width: 475
VWidth: 0
Flags: HMW
LayerCount: 2
Fore
SplineSet
448 700 m 5
 460 700 l 5
 27 -150 l 1
 15 -150 l 1
 448 700 l 5
EndSplineSet
EndChar

StartChar: backslash
Encoding: 92 92 70
GlifName: backslash
Width: 435
VWidth: 0
Flags: HMW
LayerCount: 2
Fore
SplineSet
15 700 m 1
 28 700 l 1
 420 0 l 5
 407 0 l 5
 15 700 l 1
EndSplineSet
EndChar

StartChar: eight
Encoding: 56 56 71
GlifName: eight
Width: 516
VWidth: 0
Flags: HMW
LayerCount: 2
Fore
SplineSet
85 541 m 4
 85 630 158 710 258 710 c 4
 358 710 431 630 431 541 c 4
 431 442 343 368 258 368 c 4
 173 368 85 442 85 541 c 4
95 541 m 4
 95 445 188 375 258 375 c 4
 328 375 421 445 421 541 c 4
 421 627 353 700 258 700 c 4
 163 700 95 627 95 541 c 4
65 185 m 4
 65 294 158 372 258 372 c 4
 358 372 451 294 451 185 c 4
 451 76 383 -10 258 -10 c 4
 133 -10 65 76 65 185 c 4
75 185 m 4
 75 79 143 0 258 0 c 4
 373 0 441 79 441 185 c 4
 441 291 348 365 258 365 c 4
 168 365 75 291 75 185 c 4
EndSplineSet
Substitution2: "'tnum' Tabular Numbers lookup 0 subtable" uniFF18
EndChar

StartChar: nine
Encoding: 57 57 72
GlifName: nine
Width: 536
VWidth: 0
Flags: HMW
LayerCount: 2
Fore
SplineSet
476 480 m 4
 476 606 393 700 268 700 c 4
 143 700 60 606 60 480 c 4
 60 364 152 273 257 273 c 4
 397 273 476 374 476 480 c 4
206 0 m 5
 194 0 l 5
 436 345 l 5
 436 345 l 5
 394 293 332 263 257 263 c 4
 143 263 50 361 50 480 c 4
 50 614 133 710 268 710 c 4
 403 710 486 614 486 480 c 4
 486 423 457 358 430 321 c 6
 206 0 l 5
EndSplineSet
Substitution2: "'tnum' Tabular Numbers lookup 0 subtable" uniFF19
EndChar

StartChar: three
Encoding: 51 51 73
GlifName: three
Width: 551
VWidth: 0
Flags: HMW
LayerCount: 2
Fore
SplineSet
248 362 m 5
 248 370 l 5
 338 370 456 429 456 533 c 4
 456 616 394 700 282 700 c 4
 173 700 105 627 105 526 c 5
 95 526 l 5
 95 635 167 710 282 710 c 4
 402 710 466 623 466 534 c 4
 466 425 353 362 248 362 c 5
278 -10 m 4
 143 -10 65 76 65 185 c 5
 75 185 l 5
 75 79 148 0 278 0 c 4
 398 0 476 74 476 175 c 4
 476 300 338 360 248 360 c 5
 248 368 l 5
 353 368 486 304 486 175 c 4
 486 66 403 -10 278 -10 c 4
EndSplineSet
Substitution2: "'tnum' Tabular Numbers lookup 0 subtable" uniFF13
EndChar

StartChar: five
Encoding: 53 53 74
GlifName: five
Width: 557
VWidth: 0
Flags: HMW
LayerCount: 2
Fore
SplineSet
489 230 m 4
 489 71 389 -10 264 -10 c 4
 155 -10 91 47 55 137 c 5
 64 142 l 5
 100 54 159 0 264 0 c 4
 384 0 479 79 479 230 c 4
 479 351 395 436 290 436 c 4
 203 436 136 397 85 327 c 5
 103 359 l 5
 133 404 201 446 290 446 c 4
 400 446 489 359 489 230 c 4
184 690 m 5
 103 359 l 5
 85 327 l 5
 177 700 l 5
 507 700 l 5
 507 690 l 5
 184 690 l 5
EndSplineSet
Substitution2: "'tnum' Tabular Numbers lookup 0 subtable" uniFF15
EndChar

StartChar: six
Encoding: 54 54 75
GlifName: six
Width: 536
VWidth: 0
Flags: HMW
LayerCount: 2
Fore
SplineSet
60 220 m 4
 60 94 143 0 268 0 c 4
 393 0 476 94 476 220 c 4
 476 336 384 427 279 427 c 4
 139 427 60 326 60 220 c 4
330 700 m 5
 342 700 l 5
 100 355 l 5
 100 355 l 5
 142 407 204 437 279 437 c 4
 393 437 486 339 486 220 c 4
 486 86 403 -10 268 -10 c 4
 133 -10 50 86 50 220 c 4
 50 277 79 342 106 379 c 6
 330 700 l 5
EndSplineSet
Substitution2: "'tnum' Tabular Numbers lookup 0 subtable" uniFF16
EndChar

StartChar: seven
Encoding: 55 55 76
GlifName: seven
Width: 515
VWidth: 0
Flags: HMW
LayerCount: 2
Fore
SplineSet
35 690 m 5
 35 700 l 5
 505 700 l 5
 135 0 l 5
 124 0 l 5
 489 690 l 5
 35 690 l 5
EndSplineSet
Substitution2: "'tnum' Tabular Numbers lookup 0 subtable" uniFF17
EndChar

StartChar: plus
Encoding: 43 43 77
GlifName: plus
Width: 550
VWidth: 0
Flags: HMW
LayerCount: 2
Fore
SplineSet
65 250 m 1
 65 260 l 1
 475 260 l 1
 475 250 l 1
 65 250 l 1
265 480 m 5
 275 480 l 5
 275 30 l 1
 265 30 l 1
 265 480 l 5
EndSplineSet
EndChar

StartChar: equal
Encoding: 61 61 78
GlifName: equal
Width: 615
VWidth: 0
Flags: HMW
LayerCount: 2
Fore
SplineSet
65 185 m 5
 65 195 l 5
 550 195 l 5
 550 185 l 5
 65 185 l 5
65 310 m 1
 65 320 l 1
 550 320 l 1
 550 310 l 1
 65 310 l 1
EndSplineSet
EndChar

StartChar: percent
Encoding: 37 37 79
GlifName: percent
Width: 701
VWidth: 0
Flags: HMW
LayerCount: 2
Fore
SplineSet
35 560 m 4
 35 644 93 710 183 710 c 4
 273 710 331 644 331 560 c 4
 331 476 273 410 183 410 c 4
 93 410 35 476 35 560 c 4
45 560 m 4
 45 484 98 419 183 419 c 4
 268 419 321 484 321 560 c 4
 321 636 268 700 183 700 c 4
 98 700 45 636 45 560 c 4
370 140 m 4
 370 224 428 290 518 290 c 4
 608 290 666 224 666 140 c 4
 666 56 608 -10 518 -10 c 4
 428 -10 370 56 370 140 c 4
380 140 m 4
 380 64 433 -1 518 -1 c 4
 603 -1 656 64 656 140 c 4
 656 216 603 280 518 280 c 4
 433 280 380 216 380 140 c 4
573 700 m 5
 585 700 l 5
 128 0 l 5
 116 0 l 5
 573 700 l 5
EndSplineSet
EndChar

StartChar: ampersand
Encoding: 38 38 80
GlifName: ampersand
Width: 675
VWidth: 0
Flags: HMW
LayerCount: 2
Fore
SplineSet
40 173 m 1
 50 173 l 1
 50 60 135 0 245 0 c 0
 416 0 501 175 603 316 c 1
 611 311 l 1
 508 171 424 -10 245 -10 c 0
 130 -10 40 54 40 173 c 1
117 576 m 1
 117 650 168 711 268 711 c 0
 363 711 406 638 406 574 c 1
 396 574 l 1
 396 630 358 701 268 701 c 0
 173 701 127 642 127 576 c 1
 117 576 l 1
183 427 m 2
 150 465 117 504 117 576 c 1
 127 576 l 1
 127 506 160 469 190 435 c 2
 571 0 l 1
 558 0 l 1
 183 427 l 2
406 574 m 1
 406 507 354 457 261 400 c 0
 189 356 50 313 50 173 c 1
 40 173 l 1
 40 320 187 367 254 407 c 0
 343 460 396 513 396 574 c 1
 406 574 l 1
EndSplineSet
EndChar

StartChar: question
Encoding: 63 63 81
GlifName: question
Width: 542
VWidth: 0
Flags: HMW
LayerCount: 2
Fore
SplineSet
214 1 m 0
 214 8 219 12 225 12 c 0
 231 12 236 8 236 1 c 0
 236 -6 231 -10 225 -10 c 0
 219 -10 214 -6 214 1 c 0
222 345 m 1
 234 345 l 1
 235 170 l 1
 227 170 l 1
 222 345 l 1
452 520 m 4
 452 621 384 700 264 700 c 4
 172 700 118 656 74 587 c 5
 65 593 l 5
 111 663 165 710 264 710 c 4
 389 710 462 629 462 520 c 4
 462 421 360 337 230 337 c 5
 222 345 l 5
 352 345 452 424 452 520 c 4
EndSplineSet
EndChar

StartChar: parenleft
Encoding: 40 40 82
GlifName: parenleft
Width: 240
VWidth: 0
Flags: HMW
LayerCount: 2
Fore
SplineSet
205 780 m 1
 210 780 l 5
 135 620 100 460 100 290 c 4
 100 120 135 -40 210 -200 c 5
 205 -200 l 1
 125 -50 90 120 90 290 c 0
 90 460 125 630 205 780 c 1
EndSplineSet
EndChar

StartChar: parenright
Encoding: 41 41 83
GlifName: parenright
Width: 240
VWidth: 0
Flags: HMW
LayerCount: 2
Fore
SplineSet
35 -200 m 1
 30 -200 l 1
 105 -40 140 120 140 290 c 0
 140 460 105 620 30 780 c 1
 35 780 l 1
 115 630 150 460 150 290 c 0
 150 120 115 -50 35 -200 c 1
EndSplineSet
EndChar

StartChar: asterisk
Encoding: 42 42 84
GlifName: asterisk
Width: 592
VWidth: 0
Flags: HMW
LayerCount: 2
Fore
SplineSet
461 585 m 1
 464 573 l 1
 297 522 l 1
 294 528 l 5
 461 585 l 1
404 387 m 1
 394 380 l 1
 294 522 l 1
 298 527 l 1
 404 387 l 1
198 380 m 1
 188 387 l 1
 294 527 l 1
 298 522 l 1
 198 380 l 1
128 573 m 1
 131 585 l 1
 298 528 l 1
 295 522 l 1
 128 573 l 1
290 700 m 1
 302 700 l 1
 299 525 l 1
 293 525 l 1
 290 700 l 1
EndSplineSet
EndChar

StartChar: less
Encoding: 60 60 85
GlifName: less
Width: 640
VWidth: 0
Flags: HMW
LayerCount: 2
Fore
SplineSet
82 257 m 5
 575 55 l 5
 575 45 l 5
 65 254 l 5
 65 260 l 5
 575 470 l 5
 575 460 l 5
 82 257 l 5
EndSplineSet
EndChar

StartChar: greater
Encoding: 62 62 86
GlifName: greater
Width: 640
VWidth: 0
Flags: HMW
LayerCount: 2
Fore
SplineSet
558 258 m 5
 65 460 l 5
 65 470 l 5
 575 261 l 5
 575 255 l 5
 65 45 l 5
 65 55 l 5
 558 258 l 5
EndSplineSet
EndChar

StartChar: bracketleft
Encoding: 91 91 87
GlifName: bracketleft
Width: 260
VWidth: 0
Flags: HMW
LayerCount: 2
Fore
SplineSet
111 769 m 1
 111 -209 l 1
 240 -209 l 5
 240 -220 l 5
 100 -220 l 1
 100 780 l 1
 240 780 l 5
 240 769 l 5
 111 769 l 1
EndSplineSet
EndChar

StartChar: bracketright
Encoding: 93 93 88
GlifName: bracketright
Width: 260
Flags: HMW
LayerCount: 2
Fore
SplineSet
149 -209 m 1
 149 769 l 1
 20 769 l 1
 20 780 l 1
 160 780 l 1
 160 -220 l 1
 20 -220 l 1
 20 -209 l 1
 149 -209 l 1
EndSplineSet
EndChar

StartChar: asciicircum
Encoding: 94 94 89
GlifName: asciicircum
Width: 510
VWidth: 0
Flags: HMW
LayerCount: 2
Fore
SplineSet
255 693 m 5
 80 460 l 1
 65 460 l 1
 255 710 l 1
 255 710 l 1
 445 460 l 1
 430 460 l 1
 255 693 l 5
EndSplineSet
EndChar

StartChar: underscore
Encoding: 95 95 90
GlifName: underscore
Width: 500
Flags: HMW
LayerCount: 2
Fore
SplineSet
0 -109 m 5
 0 -98 l 5
 500 -98 l 5
 500 -109 l 5
 0 -109 l 5
EndSplineSet
EndChar

StartChar: grave
Encoding: 96 96 91
GlifName: grave
Width: 353
VWidth: 0
Flags: HMW
LayerCount: 2
Fore
SplineSet
100 692 m 5
 108 700 l 5
 278 540 l 5
 273 535 l 5
 100 692 l 5
EndSplineSet
EndChar

StartChar: braceleft
Encoding: 123 123 92
GlifName: braceleft
Width: 281
VWidth: 0
Flags: HMW
LayerCount: 2
Fore
SplineSet
148 640 m 2
 148 430 l 2
 148 341 109 288 80 288 c 1
 80 292 l 1
 109 292 148 239 148 150 c 2
 148 -60 l 2
 148 -156 166 -190 231 -190 c 2
 251 -190 l 1
 251 -200 l 1
 231 -200 l 2
 157 -200 138 -159 138 -60 c 2
 138 150 l 2
 138 226 110 275 80 285 c 1
 80 295 l 1
 110 305 138 354 138 430 c 2
 138 640 l 2
 138 739 157 780 231 780 c 2
 251 780 l 1
 251 770 l 1
 231 770 l 2
 166 770 148 736 148 640 c 2
EndSplineSet
EndChar

StartChar: braceright
Encoding: 125 125 93
GlifName: braceright
Width: 281
VWidth: 0
Flags: HMW
LayerCount: 2
Fore
SplineSet
133 -60 m 6
 133 150 l 6
 133 239 172 292 201 292 c 5
 201 288 l 5
 172 288 133 341 133 430 c 6
 133 640 l 6
 133 736 115 770 50 770 c 6
 30 770 l 1
 30 780 l 1
 50 780 l 6
 124 780 143 739 143 640 c 6
 143 430 l 6
 143 354 171 305 201 295 c 5
 201 285 l 5
 171 275 143 226 143 150 c 6
 143 -60 l 6
 143 -159 124 -200 50 -200 c 6
 30 -200 l 1
 30 -190 l 1
 50 -190 l 6
 115 -190 133 -156 133 -60 c 6
EndSplineSet
EndChar

StartChar: asciitilde
Encoding: 126 126 94
GlifName: asciitilde
Width: 575
VWidth: 0
Flags: HMW
LayerCount: 2
Fore
SplineSet
88 178 m 1
 78 181 l 1
 76 188 75 196 75 205 c 0
 75 238 83 268 101 290 c 0
 120 313 148 327 184 327 c 0
 243 327 275 282 302 250 c 0
 326 221 356 182 404 182 c 0
 463 182 491 228 491 290 c 0
 491 298 490 311 486 321 c 1
 496 318 l 1
 498 310 500 300 500 290 c 0
 500 258 494 228 478 207 c 0
 462 185 437 172 404 172 c 0
 350 172 322 211 294 243 c 0
 269 271 239 317 184 317 c 0
 121 317 84 268 84 200 c 0
 84 193 85 186 88 178 c 1
EndSplineSet
EndChar

StartChar: exclamdown
Encoding: 161 161 95
GlifName: exclamdown
Width: 300
VWidth: 0
Flags: HMW
LayerCount: 2
Fore
SplineSet
176 -245 m 1
 162 -245 l 5
 166 255 l 1
 172 255 l 1
 176 -245 l 1
180 454 m 0
 180 447 175 443 169 443 c 0
 163 443 158 447 158 454 c 0
 158 461 163 465 169 465 c 0
 175 465 180 461 180 454 c 0
EndSplineSet
EndChar

StartChar: cent
Encoding: 162 162 96
GlifName: cent
Width: 580
VWidth: 0
Flags: HMW
LayerCount: 2
Fore
SplineSet
316 -4 m 1
 320 -4 l 1
 325 -112 l 1
 311 -112 l 1
 316 -4 l 1
96 230 m 0
 96 99 192 0 319 0 c 0
 393 0 453 36 474 61 c 1
 474 48 l 1
 452 23 392 -10 319 -10 c 0
 187 -10 86 91 86 230 c 0
 86 369 187 470 319 470 c 0
 392 470 453 436 474 412 c 1
 474 399 l 1
 453 424 393 460 319 460 c 0
 192 460 96 361 96 230 c 0
311 578 m 1
 325 578 l 1
 320 463 l 5
 316 463 l 1
 311 578 l 1
EndSplineSet
EndChar

StartChar: sterling
Encoding: 163 163 97
GlifName: sterling
Width: 580
VWidth: 0
Flags: HMW
LayerCount: 2
Fore
SplineSet
87 305 m 1
 397 305 l 1
 397 295 l 1
 87 295 l 1
 87 305 l 1
481 498 m 1
 478 577 432 700 311 700 c 0
 208 700 146 619 146 538 c 4
 146 415 268 371 268 264 c 0
 268 158 132 47 108 0 c 1
 104 10 l 1
 497 10 l 1
 497 0 l 1
 94 0 l 1
 172 102 258 176 258 264 c 0
 258 366 136 412 136 538 c 4
 136 627 202 710 311 710 c 0
 444 710 486 578 491 498 c 1
 481 498 l 1
EndSplineSet
EndChar

StartChar: currency
Encoding: 164 164 98
GlifName: currency
Width: 560
VWidth: 0
Flags: HMW
LayerCount: 2
Fore
SplineSet
57 523 m 1
 67 533 l 1
 130 469 l 1
 121 460 l 1
 57 523 l 1
67 67 m 1
 57 77 l 5
 121 140 l 5
 130 131 l 1
 67 67 l 1
449 460 m 1
 439 469 l 1
 503 533 l 1
 512 523 l 1
 449 460 l 1
439 131 m 1
 449 140 l 1
 512 77 l 1
 503 67 l 1
 439 131 l 1
52 300 m 0
 52 439 155 540 280 540 c 0
 405 540 508 439 508 300 c 0
 508 161 405 60 280 60 c 0
 155 60 52 161 52 300 c 0
62 300 m 0
 62 169 160 70 280 70 c 0
 400 70 498 169 498 300 c 0
 498 431 400 530 280 530 c 0
 160 530 62 431 62 300 c 0
EndSplineSet
EndChar

StartChar: yen
Encoding: 165 165 99
GlifName: yen
Width: 565
VWidth: 0
Flags: HMW
LayerCount: 2
Fore
SplineSet
258 275 m 1
 269 275 l 1
 269 0 l 1
 258 0 l 1
 258 275 l 1
494 700 m 1
 507 700 l 1
 264 256 l 1
 30 700 l 1
 43 700 l 1
 264 281 l 1
 494 700 l 1
30 145 m 1
 30 155 l 1
 507 155 l 5
 507 145 l 5
 30 145 l 1
30 270 m 1
 30 280 l 1
 507 280 l 5
 507 270 l 5
 30 270 l 1
EndSplineSet
EndChar

StartChar: brokenbar
Encoding: 166 166 100
GlifName: brokenbar
Width: 210
VWidth: 0
Flags: HMW
LayerCount: 2
Fore
SplineSet
100 695 m 1
 110 695 l 5
 110 455 l 5
 100 455 l 1
 100 695 l 1
110 245 m 5
 110 5 l 5
 100 5 l 1
 100 245 l 1
 110 245 l 5
EndSplineSet
EndChar

StartChar: section
Encoding: 167 167 101
GlifName: section
Width: 398
VWidth: 0
Flags: HMW
LayerCount: 2
Fore
SplineSet
357 616 m 1
 337 665 267 700 203 700 c 0
 143 700 69 670 69 599 c 0
 69 530 172 504 223 483 c 0
 288 456 368 427 368 360 c 0
 368 281 304 240 205 240 c 1
 205 240 l 1
 295 255 358 290 358 360 c 0
 358 420 269 454 216 475 c 0
 153 500 59 522 59 599 c 0
 59 675 129 710 203 710 c 0
 276 710 346 671 364 620 c 1
 357 616 l 1
38 127 m 1
 51 61 128 0 215 0 c 0
 275 0 358 20 358 100 c 0
 358 180 272 206 209 233 c 4
 147 260 59 292 59 359 c 0
 59 415 109 480 223 480 c 1
 223 480 l 1
 123 470 69 410 69 359 c 0
 69 296 165 262 216 241 c 4
 281 214 368 187 368 100 c 0
 368 21 294 -10 215 -10 c 0
 130 -10 44 48 30 123 c 1
 38 127 l 1
EndSplineSet
EndChar

StartChar: dieresis
Encoding: 168 168 102
GlifName: dieresis
Width: 422
VWidth: 0
Flags: HMW
LayerCount: 2
Fore
SplineSet
300 689 m 0
 300 696 305 700 311 700 c 0
 317 700 322 696 322 689 c 0
 322 682 317 678 311 678 c 0
 305 678 300 682 300 689 c 0
100 689 m 0
 100 696 105 700 111 700 c 0
 117 700 122 696 122 689 c 0
 122 682 117 678 111 678 c 0
 105 678 100 682 100 689 c 0
EndSplineSet
EndChar

StartChar: copyright
Encoding: 169 169 103
GlifName: copyright
Width: 800
VWidth: 0
Flags: HMW
LayerCount: 2
Fore
SplineSet
198 350 m 4
 198 230 277 142 389 142 c 4
 448 142 489 159 524 193 c 5
 524 183 l 1
 489 152 450 135 389 135 c 0
 273 135 191 225 191 350 c 0
 191 475 273 565 389 565 c 0
 450 565 489 548 524 517 c 1
 524 508 l 5
 490 542 445 558 389 558 c 0
 277 558 198 472 198 350 c 4
50 350 m 4
 50 147 207 0 400 0 c 4
 593 0 750 147 750 350 c 4
 750 553 593 700 400 700 c 4
 207 700 50 553 50 350 c 4
40 350 m 4
 40 559 196 710 400 710 c 4
 604 710 760 559 760 350 c 4
 760 141 604 -10 400 -10 c 4
 196 -10 40 141 40 350 c 4
EndSplineSet
EndChar

StartChar: registered
Encoding: 174 174 104
GlifName: registered
Width: 800
VWidth: 0
Flags: HMW
LayerCount: 2
Fore
SplineSet
365 340 m 1
 373 340 l 1
 506 150 l 1
 497 150 l 1
 365 340 l 1
300 570 m 1
 307 570 l 1
 307 150 l 1
 300 150 l 1
 300 570 l 1
301 563 m 1
 301 570 l 1
 369 570 l 2
 450 570 511 531 511 454 c 4
 511 377 450 338 369 338 c 2
 301 338 l 1
 301 344 l 1
 369 344 l 2
 448 344 504 380 504 454 c 4
 504 528 448 563 369 563 c 2
 301 563 l 1
50 350 m 4
 50 147 207 0 400 0 c 4
 593 0 750 147 750 350 c 4
 750 553 593 700 400 700 c 4
 207 700 50 553 50 350 c 4
40 350 m 4
 40 559 196 710 400 710 c 4
 604 710 760 559 760 350 c 4
 760 141 604 -10 400 -10 c 4
 196 -10 40 141 40 350 c 4
EndSplineSet
EndChar

StartChar: ordfeminine
Encoding: 170 170 105
GlifName: ordfeminine
Width: 238
VWidth: 0
Flags: HMW
LayerCount: 2
Fore
SplineSet
30 528 m 0
 30 479 67 460 102 460 c 0
 147 460 183 497 183 540 c 1
 186 540 l 1
 186 496 153 455 102 455 c 0
 64 455 26 476 26 528 c 0
 26 576 70 600 116 600 c 0
 155 600 174 587 184 578 c 1
 184 572 l 1
 172 583 150 596 116 596 c 0
 74 596 30 574 30 528 c 0
48 662 m 1
 44 666 l 1
 60 682 86 700 122 700 c 0
 167 700 188 669 188 625 c 2
 188 460 l 1
 183 460 l 1
 183 625 l 2
 183 668 164 695 122 695 c 0
 89 695 66 680 48 662 c 1
EndSplineSet
EndChar

StartChar: ordmasculine
Encoding: 186 186 106
GlifName: ordmasculine
Width: 278
VWidth: 0
Flags: HMW
LayerCount: 2
Fore
SplineSet
20 580 m 4
 20 650 71 700 139 700 c 4
 207 700 258 650 258 580 c 4
 258 510 207 460 139 460 c 4
 71 460 20 510 20 580 c 4
30 580 m 4
 30 515 79 470 139 470 c 4
 199 470 248 515 248 580 c 4
 248 645 199 690 139 690 c 4
 79 690 30 645 30 580 c 4
EndSplineSet
EndChar

StartChar: guillemotleft
Encoding: 171 171 107
GlifName: guillemotleft
Width: 485
VWidth: 0
Flags: HMW
LayerCount: 2
Fore
SplineSet
50 255 m 1
 40 255 l 1
 248 490 l 1
 255 483 l 1
 50 255 l 1
40 255 m 1
 50 255 l 1
 255 27 l 1
 248 20 l 5
 40 255 l 1
210 255 m 1
 200 255 l 1
 408 490 l 1
 415 483 l 1
 210 255 l 1
200 255 m 1
 210 255 l 1
 415 27 l 1
 408 20 l 5
 200 255 l 1
EndSplineSet
EndChar

StartChar: guillemotright
Encoding: 187 187 108
GlifName: guillemotright
Width: 485
VWidth: 0
Flags: HMW
LayerCount: 2
Fore
SplineSet
435 255 m 1
 445 255 l 1
 237 20 l 1
 230 27 l 1
 435 255 l 1
445 255 m 1
 435 255 l 1
 230 483 l 1
 237 490 l 5
 445 255 l 1
275 255 m 1
 285 255 l 1
 77 20 l 1
 70 27 l 1
 275 255 l 1
285 255 m 1
 275 255 l 1
 70 483 l 1
 77 490 l 5
 285 255 l 1
EndSplineSet
EndChar

StartChar: uni00AD
Encoding: 173 173 109
GlifName: uni00A_D_
Width: 210
VWidth: 0
Flags: HMW
LayerCount: 2
Fore
SplineSet
5 265 m 1
 5 275 l 1
 205 275 l 1
 205 265 l 1
 5 265 l 1
EndSplineSet
EndChar

StartChar: logicalnot
Encoding: 172 172 110
GlifName: logicalnot
Width: 620
VWidth: 0
Flags: HMW
LayerCount: 2
Fore
SplineSet
65 365 m 1
 65 375 l 1
 555 375 l 1
 555 365 l 1
 65 365 l 1
545 375 m 5
 555 375 l 1
 555 175 l 1
 545 175 l 5
 545 375 l 5
EndSplineSet
EndChar

StartChar: macron
Encoding: 175 175 111
GlifName: macron
Width: 510
VWidth: 0
Flags: HMW
LayerCount: 2
Fore
SplineSet
80 665 m 5
 80 675 l 1
 430 675 l 1
 430 665 l 5
 80 665 l 5
EndSplineSet
EndChar

StartChar: degree
Encoding: 176 176 112
GlifName: degree
Width: 278
VWidth: 0
Flags: HMW
LayerCount: 2
Fore
SplineSet
20 600 m 4
 20 670 71 720 139 720 c 4
 207 720 258 670 258 600 c 4
 258 530 207 480 139 480 c 4
 71 480 20 530 20 600 c 4
30 600 m 4
 30 535 79 490 139 490 c 4
 199 490 248 535 248 600 c 4
 248 665 199 710 139 710 c 4
 79 710 30 665 30 600 c 4
EndSplineSet
EndChar

StartChar: plusminus
Encoding: 177 177 113
GlifName: plusminus
Width: 610
VWidth: 0
Flags: HMW
LayerCount: 2
Fore
SplineSet
65 0 m 1
 65 10 l 1
 545 10 l 1
 545 0 l 1
 65 0 l 1
65 380 m 1
 65 390 l 1
 545 390 l 1
 545 380 l 1
 65 380 l 1
300 620 m 1
 310 620 l 1
 310 150 l 1
 300 150 l 1
 300 620 l 1
EndSplineSet
EndChar

StartChar: uni00B2
Encoding: 178 178 114
GlifName: uni00B_2
Width: 332
VWidth: 0
Flags: HMW
LayerCount: 2
Fore
SplineSet
30 282 m 1
 222 483 l 6
 251 514 279 544 279 594 c 4
 279 641 250 703 172 703 c 0
 100 703 54 643 54 558 c 1
 48 558 l 1
 48 647 97 709 172 709 c 0
 252 709 285 644 285 594 c 0
 285 545 257 510 227 479 c 2
 45 288 l 1
 302 288 l 1
 302 282 l 1
 30 282 l 1
EndSplineSet
EndChar

StartChar: uni00B3
Encoding: 179 179 115
GlifName: uni00B_3
Width: 308
VWidth: 0
Flags: HMW
LayerCount: 2
Fore
SplineSet
140 497 m 1
 140 502 l 1
 194 502 265 538 265 600 c 0
 265 650 228 700 161 700 c 0
 96 700 54 657 54 596 c 1
 48 596 l 1
 48 661 92 706 161 706 c 0
 233 706 271 653 271 600 c 0
 271 535 203 497 140 497 c 1
158 274 m 0
 77 274 30 326 30 391 c 1
 36 391 l 1
 36 327 80 280 158 280 c 0
 230 280 277 324 277 385 c 4
 277 460 194 496 140 496 c 1
 140 501 l 1
 203 501 283 462 283 385 c 4
 283 320 233 274 158 274 c 0
EndSplineSet
EndChar

StartChar: acute
Encoding: 180 180 116
GlifName: acute
Width: 353
VWidth: 0
Flags: HMW
LayerCount: 2
Fore
SplineSet
253 692 m 5
 80 535 l 5
 75 540 l 5
 245 700 l 5
 253 692 l 5
EndSplineSet
EndChar

StartChar: mu
Encoding: 181 181 117
GlifName: mu
Width: 475
VWidth: 0
Flags: HMW
LayerCount: 2
Fore
SplineSet
380 0 m 1
 380 460 l 1
 390 460 l 1
 390 0 l 1
 380 0 l 1
95 150 m 2
 95 59 128 0 218 0 c 0
 309 0 380 85 380 180 c 1
 385 180 l 1
 385 71 313 -10 218 -10 c 0
 123 -10 85 51 85 150 c 2
 85 460 l 1
 95 460 l 1
 95 150 l 2
85 460 m 1
 95 460 l 5
 95 -320 l 5
 85 -320 l 1
 85 460 l 1
EndSplineSet
EndChar

StartChar: paragraph
Encoding: 182 182 118
GlifName: paragraph
Width: 448
VWidth: 0
Flags: HMW
LayerCount: 2
Fore
SplineSet
288 690 m 5
 288 700 l 1
 388 700 l 1
 388 690 l 5
 288 690 l 5
378 700 m 1
 388 700 l 1
 388 -220 l 1
 378 -220 l 1
 378 700 l 1
288 700 m 1
 298 700 l 1
 298 -220 l 1
 288 -220 l 1
 288 700 l 1
288 270 m 1
 163 270 60 346 60 485 c 0
 60 624 163 700 288 700 c 1
 288 270 l 1
EndSplineSet
EndChar

StartChar: periodcentered
Encoding: 183 183 119
GlifName: periodcentered
Width: 242
VWidth: 0
Flags: HMW
LayerCount: 2
Fore
SplineSet
110 221 m 4
 110 228 115 232 121 232 c 4
 127 232 132 228 132 221 c 4
 132 214 127 210 121 210 c 4
 115 210 110 214 110 221 c 4
EndSplineSet
EndChar

StartChar: uni00B9
Encoding: 185 185 120
GlifName: uni00B_9
Width: 470
VWidth: 0
Flags: HMW
LayerCount: 2
Fore
SplineSet
143 666 m 5
 143 673 l 5
 251 697 l 5
 251 274 l 1
 245 274 l 1
 245 689 l 5
 143 666 l 5
EndSplineSet
EndChar

StartChar: cedilla
Encoding: 184 184 121
GlifName: cedilla
Width: 350
Flags: HMW
LayerCount: 2
Fore
SplineSet
176 0 m 5
 188 0 l 5
 132 -76 l 1
 121 -88 l 1
 176 0 l 5
275 -126 m 1
 265 -126 l 1
 265 -82 231 -62 202 -62 c 0
 172 -62 144 -72 121 -88 c 1
 132 -76 l 1
 158 -60 169 -52 202 -52 c 0
 235 -52 275 -77 275 -126 c 1
275 -126 m 1
 275 -187 223 -220 168 -220 c 0
 131 -220 107 -210 79 -182 c 1
 86 -176 l 1
 114 -200 135 -210 168 -210 c 0
 215 -210 265 -182 265 -126 c 1
 275 -126 l 1
EndSplineSet
EndChar

StartChar: questiondown
Encoding: 191 191 122
GlifName: questiondown
Width: 542
VWidth: 0
Flags: HMW
LayerCount: 2
Fore
SplineSet
328 699 m 0
 328 692 323 688 317 688 c 0
 311 688 306 692 306 699 c 0
 306 706 311 710 317 710 c 0
 323 710 328 706 328 699 c 0
320 355 m 1
 308 355 l 1
 307 530 l 1
 315 530 l 1
 320 355 l 1
90 180 m 0
 90 79 158 0 278 0 c 0
 370 0 424 44 468 113 c 1
 477 107 l 1
 431 37 377 -10 278 -10 c 0
 153 -10 80 71 80 180 c 0
 80 279 182 363 312 363 c 1
 320 355 l 1
 190 355 90 276 90 180 c 0
EndSplineSet
EndChar

StartChar: multiply
Encoding: 215 215 123
GlifName: multiply
Width: 578
VWidth: 0
Flags: HMW
LayerCount: 2
Fore
SplineSet
88 46 m 1
 81 53 l 1
 283 254 l 1
 80 456 l 1
 87 463 l 1
 289 260 l 1
 491 463 l 1
 498 456 l 1
 295 254 l 1
 497 53 l 1
 490 46 l 1
 289 248 l 1
 88 46 l 1
EndSplineSet
EndChar

StartChar: Oslash
Encoding: 216 216 124
GlifName: O_slash
Width: 790
VWidth: 0
Flags: HMW
LayerCount: 2
Fore
SplineSet
61 350 m 0
 61 149 196 3 387 3 c 0
 578 3 713 149 713 350 c 0
 713 551 578 697 387 697 c 0
 196 697 61 551 61 350 c 0
50 350 m 0
 50 559 193 708 387 708 c 0
 581 708 724 559 724 350 c 0
 724 141 581 -8 387 -8 c 0
 193 -8 50 141 50 350 c 0
712 733 m 1
 723 727 l 5
 74 -33 l 5
 64 -27 l 1
 712 733 l 1
EndSplineSet
EndChar

StartChar: Thorn
Encoding: 222 222 125
GlifName: T_horn
Width: 520
VWidth: 0
Flags: HMW
LayerCount: 2
Fore
SplineSet
240 140 m 5
 240 150 l 5
 365 150 467 234 467 350 c 4
 467 476 365 550 240 550 c 5
 240 560 l 5
 375 560 478 479 478 350 c 4
 478 221 375 140 240 140 c 5
84 140 m 1
 84 150 l 1
 240 150 l 5
 240 140 l 5
 84 140 l 1
84 550 m 1
 84 560 l 1
 240 560 l 5
 240 550 l 5
 84 550 l 1
80 700 m 1
 90 700 l 1
 90 0 l 1
 80 0 l 1
 80 700 l 1
EndSplineSet
EndChar

StartChar: divide
Encoding: 247 247 126
GlifName: divide
Width: 623
Flags: HMW
LayerCount: 2
Fore
SplineSet
299 451 m 0
 299 458 304 462 310 462 c 0
 316 462 321 458 321 451 c 0
 321 444 316 440 310 440 c 0
 304 440 299 444 299 451 c 0
299 31 m 0
 299 38 304 42 310 42 c 0
 316 42 321 38 321 31 c 0
 321 24 316 20 310 20 c 0
 304 20 299 24 299 31 c 0
60 235 m 1
 60 245 l 1
 560 245 l 1
 560 235 l 1
 60 235 l 1
EndSplineSet
EndChar

StartChar: oslash
Encoding: 248 248 127
GlifName: oslash
Width: 546
VWidth: 0
Flags: HMW
LayerCount: 2
Fore
SplineSet
45 230 m 0
 45 369 146 470 278 470 c 0
 410 470 511 369 511 230 c 0
 511 91 410 -10 278 -10 c 0
 146 -10 45 91 45 230 c 0
55 230 m 0
 55 96 153 0 278 0 c 0
 403 0 501 96 501 230 c 0
 501 364 403 460 278 460 c 0
 153 460 55 364 55 230 c 0
458 493 m 1
 467 487 l 1
 77 -37 l 1
 68 -31 l 1
 458 493 l 1
EndSplineSet
EndChar

StartChar: circumflex
Encoding: 710 710 128
GlifName: circumflex
Width: 480
VWidth: 0
Flags: HMW
LayerCount: 2
Fore
SplineSet
240 718 m 1
 87 583 l 5
 80 590 l 1
 240 730 l 1
 400 590 l 1
 393 583 l 1
 240 718 l 1
EndSplineSet
EndChar

StartChar: ogonek
Encoding: 731 731 129
GlifName: ogonek
Width: 250
VWidth: 0
Flags: HMW
LayerCount: 2
Fore
SplineSet
210 -173 m 1
 217 -180 l 1
 202 -200 162 -220 119 -220 c 4
 55 -220 16 -189 16 -140 c 1
 26 -140 l 1
 26 -186 69 -210 119 -210 c 4
 159 -210 195 -191 210 -173 c 1
26 -140 m 1
 16 -140 l 1
 16 -71 99 -26 169 10 c 1
 176 0 l 1
 108 -32 26 -83 26 -140 c 1
EndSplineSet
EndChar

StartChar: tilde
Encoding: 732 732 130
GlifName: tilde
Width: 530
VWidth: 0
Flags: HMW
LayerCount: 2
Fore
SplineSet
142 649 m 5
 142 678 159 707 204 707 c 4
 259 707 274 660 328 660 c 0
 357 660 369 676 384 708 c 1
 393 705 l 1
 377 668 357 652 327 652 c 0
 272 652 251 699 206 699 c 0
 165 699 151 673 151 648 c 5
 142 649 l 5
EndSplineSet
EndChar

StartChar: ring
Encoding: 730 730 131
GlifName: ring
Width: 278
VWidth: 0
Flags: HMW
LayerCount: 2
Fore
SplineSet
37 785 m 0
 37 845 87 885 139 885 c 0
 191 885 241 845 241 785 c 0
 241 725 191 685 139 685 c 0
 87 685 37 725 37 785 c 0
47 785 m 4
 47 732 91 695 139 695 c 4
 187 695 231 732 231 785 c 4
 231 838 187 875 139 875 c 4
 91 875 47 838 47 785 c 4
EndSplineSet
EndChar

StartChar: dotaccent
Encoding: 729 729 132
GlifName: dotaccent
Width: 242
VWidth: 0
Flags: HMW
LayerCount: 2
Fore
SplineSet
110 751 m 4
 110 758 115 762 121 762 c 4
 127 762 132 758 132 751 c 4
 132 744 127 740 121 740 c 4
 115 740 110 744 110 751 c 4
EndSplineSet
EndChar

StartChar: uni2010
Encoding: 8208 8208 133
GlifName: uni2010
Width: 210
VWidth: 0
Flags: HMW
LayerCount: 2
Fore
SplineSet
5 265 m 5
 5 275 l 1
 205 275 l 1
 205 265 l 5
 5 265 l 5
EndSplineSet
EndChar

StartChar: endash
Encoding: 8211 8211 134
GlifName: endash
Width: 740
VWidth: 0
Flags: HMW
LayerCount: 2
Fore
SplineSet
70 265 m 5
 70 275 l 1
 670 275 l 1
 670 265 l 5
 70 265 l 5
EndSplineSet
EndChar

StartChar: figuredash
Encoding: 8210 8210 135
GlifName: figuredash
Width: 590
VWidth: 0
Flags: HMW
LayerCount: 2
Fore
SplineSet
70 265 m 5
 70 275 l 1
 520 275 l 1
 520 265 l 5
 70 265 l 5
EndSplineSet
EndChar

StartChar: emdash
Encoding: 8212 8212 136
GlifName: emdash
Width: 890
VWidth: 0
Flags: HMW
LayerCount: 2
Fore
SplineSet
70 265 m 5
 70 275 l 1
 820 275 l 1
 820 265 l 5
 70 265 l 5
EndSplineSet
EndChar

StartChar: minus
Encoding: 8722 8722 137
GlifName: minus
Width: 590
VWidth: 0
Flags: HMW
LayerCount: 2
Fore
SplineSet
70 265 m 5
 70 275 l 1
 520 275 l 1
 520 265 l 5
 70 265 l 5
EndSplineSet
EndChar

StartChar: quoteright
Encoding: 8217 8217 138
GlifName: quoteright
Width: 245
VWidth: 0
Flags: HMW
LayerCount: 2
Fore
SplineSet
173 700 m 1
 185 700 l 1
 90 470 l 5
 80 470 l 1
 173 700 l 1
EndSplineSet
EndChar

StartChar: quoteleft
Encoding: 8216 8216 139
GlifName: quoteleft
Width: 225
VWidth: 0
Flags: HMW
LayerCount: 2
Fore
SplineSet
72 470 m 1
 60 470 l 1
 155 700 l 5
 165 700 l 1
 72 470 l 1
EndSplineSet
EndChar

StartChar: quotesinglbase
Encoding: 8218 8218 140
GlifName: quotesinglbase
Width: 245
VWidth: 0
Flags: HMW
LayerCount: 2
Fore
SplineSet
153 80 m 1
 165 80 l 1
 70 -150 l 5
 60 -150 l 1
 153 80 l 1
EndSplineSet
EndChar

StartChar: quotedblleft
Encoding: 8220 8220 141
GlifName: quotedblleft
Width: 385
VWidth: 0
Flags: HMW
LayerCount: 2
Fore
SplineSet
92 470 m 1
 80 470 l 1
 175 700 l 5
 185 700 l 1
 92 470 l 1
232 470 m 1
 220 470 l 1
 315 700 l 5
 325 700 l 1
 232 470 l 1
EndSplineSet
EndChar

StartChar: quotedblright
Encoding: 8221 8221 142
GlifName: quotedblright
Width: 385
VWidth: 0
Flags: HMW
LayerCount: 2
Fore
SplineSet
153 700 m 1
 165 700 l 1
 70 470 l 5
 60 470 l 1
 153 700 l 1
293 700 m 1
 305 700 l 1
 210 470 l 5
 200 470 l 1
 293 700 l 1
EndSplineSet
EndChar

StartChar: perthousand
Encoding: 8240 8240 143
GlifName: perthousand
Width: 1071
VWidth: 0
Flags: HMW
LayerCount: 2
Fore
SplineSet
740 140 m 4
 740 224 798 290 888 290 c 4
 978 290 1036 224 1036 140 c 4
 1036 56 978 -10 888 -10 c 4
 798 -10 740 56 740 140 c 4
750 140 m 4
 750 64 803 -1 888 -1 c 4
 973 -1 1026 64 1026 140 c 4
 1026 216 973 280 888 280 c 4
 803 280 750 216 750 140 c 4
35 560 m 4
 35 644 93 710 183 710 c 4
 273 710 331 644 331 560 c 4
 331 476 273 410 183 410 c 4
 93 410 35 476 35 560 c 4
45 560 m 4
 45 484 98 419 183 419 c 4
 268 419 321 484 321 560 c 4
 321 636 268 700 183 700 c 4
 98 700 45 636 45 560 c 4
370 140 m 4
 370 224 428 290 518 290 c 4
 608 290 666 224 666 140 c 4
 666 56 608 -10 518 -10 c 4
 428 -10 370 56 370 140 c 4
380 140 m 4
 380 64 433 -1 518 -1 c 4
 603 -1 656 64 656 140 c 4
 656 216 603 280 518 280 c 4
 433 280 380 216 380 140 c 4
573 700 m 5
 585 700 l 5
 128 0 l 5
 116 0 l 5
 573 700 l 5
EndSplineSet
EndChar

StartChar: guilsinglleft
Encoding: 8249 8249 144
GlifName: guilsinglleft
Width: 325
VWidth: 0
Flags: HMW
LayerCount: 2
Fore
SplineSet
50 255 m 1
 40 255 l 1
 248 490 l 1
 255 483 l 1
 50 255 l 1
40 255 m 1
 50 255 l 1
 255 27 l 1
 248 20 l 5
 40 255 l 1
EndSplineSet
EndChar

StartChar: guilsinglright
Encoding: 8250 8250 145
GlifName: guilsinglright
Width: 350
VWidth: 0
Flags: HMW
LayerCount: 2
Fore
SplineSet
300 255 m 1
 310 255 l 1
 102 20 l 1
 95 27 l 1
 300 255 l 1
310 255 m 1
 300 255 l 1
 95 483 l 1
 102 490 l 1
 310 255 l 1
EndSplineSet
EndChar

StartChar: uni2031
Encoding: 8241 8241 146
GlifName: uni2031
Width: 1441
VWidth: 0
Flags: HMW
LayerCount: 2
Fore
SplineSet
1110 140 m 0
 1110 224 1168 290 1258 290 c 0
 1348 290 1406 224 1406 140 c 0
 1406 56 1348 -10 1258 -10 c 0
 1168 -10 1110 56 1110 140 c 0
1120 140 m 0
 1120 64 1173 -1 1258 -1 c 0
 1343 -1 1396 64 1396 140 c 0
 1396 216 1343 280 1258 280 c 0
 1173 280 1120 216 1120 140 c 0
740 140 m 0
 740 224 798 290 888 290 c 0
 978 290 1036 224 1036 140 c 0
 1036 56 978 -10 888 -10 c 0
 798 -10 740 56 740 140 c 0
750 140 m 0
 750 64 803 -1 888 -1 c 0
 973 -1 1026 64 1026 140 c 0
 1026 216 973 280 888 280 c 0
 803 280 750 216 750 140 c 0
35 560 m 0
 35 644 93 710 183 710 c 0
 273 710 331 644 331 560 c 0
 331 476 273 410 183 410 c 0
 93 410 35 476 35 560 c 0
45 560 m 0
 45 484 98 419 183 419 c 0
 268 419 321 484 321 560 c 0
 321 636 268 700 183 700 c 0
 98 700 45 636 45 560 c 0
370 140 m 0
 370 224 428 290 518 290 c 0
 608 290 666 224 666 140 c 0
 666 56 608 -10 518 -10 c 0
 428 -10 370 56 370 140 c 0
380 140 m 0
 380 64 433 -1 518 -1 c 0
 603 -1 656 64 656 140 c 0
 656 216 603 280 518 280 c 0
 433 280 380 216 380 140 c 0
573 700 m 1
 585 700 l 1
 128 0 l 1
 116 0 l 1
 573 700 l 1
EndSplineSet
EndChar

StartChar: uni203D
Encoding: 8253 8253 147
GlifName: uni203D_
Width: 557
VWidth: 0
Flags: HMW
LayerCount: 2
Fore
SplineSet
452 520 m 0
 452 621 384 700 264 700 c 0
 172 700 118 656 74 587 c 1
 65 593 l 1
 111 663 165 710 264 710 c 0
 389 710 462 629 462 520 c 0
 462 421 370 337 260 337 c 5
 252 345 l 5
 362 345 452 424 452 520 c 0
249 510 m 5
 261 510 l 5
 258 170 l 5
 252 170 l 5
 249 510 l 5
244 1 m 4
 244 8 249 12 255 12 c 4
 261 12 266 8 266 1 c 4
 266 -6 261 -10 255 -10 c 4
 249 -10 244 -6 244 1 c 4
EndSplineSet
EndChar

StartChar: Euro
Encoding: 8364 8364 148
GlifName: E_uro
Width: 700
VWidth: 0
Flags: HMW
LayerCount: 2
Fore
SplineSet
75 445 m 1
 75 455 l 1
 576 455 l 1
 576 445 l 1
 75 445 l 1
75 325 m 5
 75 335 l 1
 550 335 l 1
 550 325 l 5
 75 325 l 5
160 350 m 0
 160 145 270 0 430 0 c 0
 487 0 539 16 580 46 c 5
 580 31 l 1
 535 5 484 -10 430 -10 c 0
 256 -10 150 141 150 350 c 0
 150 559 256 710 430 710 c 0
 484 710 535 695 580 669 c 5
 580 654 l 5
 539 684 487 700 430 700 c 0
 260 700 160 555 160 350 c 0
EndSplineSet
EndChar

StartChar: fraction
Encoding: 8260 8260 149
GlifName: fraction
Width: 705
VWidth: 0
Flags: HMW
LayerCount: 2
Fore
SplineSet
633 700 m 1
 645 700 l 1
 72 0 l 5
 60 0 l 1
 633 700 l 1
EndSplineSet
EndChar

StartChar: onequarter
Encoding: 188 188 150
GlifName: onequarter
Width: 754
VWidth: 0
Flags: HMW
LayerCount: 2
Fore
SplineSet
671 700 m 1
 683 700 l 1
 110 0 l 5
 98 0 l 1
 671 700 l 1
21 666 m 5
 21 673 l 5
 129 697 l 5
 129 274 l 1
 123 274 l 1
 123 689 l 5
 21 666 l 5
401 84 m 5
 407 90 l 5
 627 90 l 4
 629 90 l 4
 697 90 l 5
 697 84 l 5
 401 84 l 5
408 84 m 5
 401 84 l 5
 631 420 l 29
 631 420 l 5
 631 0 l 5
 625 0 l 5
 625 85 l 4
 625 88 l 4
 625 400 l 5
 408 84 l 5
EndSplineSet
EndChar

StartChar: onehalf
Encoding: 189 189 151
GlifName: onehalf
Width: 819
VWidth: 0
Flags: HMW
LayerCount: 2
Fore
SplineSet
671 700 m 1
 683 700 l 1
 110 0 l 5
 98 0 l 1
 671 700 l 1
21 666 m 5
 21 673 l 5
 129 697 l 5
 129 274 l 1
 123 274 l 1
 123 689 l 5
 21 666 l 5
496 2 m 5
 688 202 l 6
 717 233 745 263 745 313 c 4
 745 360 716 423 638 423 c 4
 566 423 520 363 520 278 c 5
 514 278 l 5
 514 367 563 429 638 429 c 4
 718 429 752 363 752 313 c 4
 752 264 723 230 693 199 c 6
 511 8 l 5
 768 8 l 5
 768 2 l 5
 496 2 l 5
EndSplineSet
EndChar

StartChar: threequarters
Encoding: 190 190 152
GlifName: threequarters
Width: 820
VWidth: 0
Flags: HMW
LayerCount: 2
Fore
SplineSet
738 700 m 1
 750 700 l 1
 177 0 l 5
 165 0 l 1
 738 700 l 1
145 497 m 1
 145 502 l 1
 199 502 270 538 270 600 c 0
 270 650 233 700 166 700 c 0
 101 700 59 657 59 596 c 1
 53 596 l 1
 53 661 97 706 166 706 c 0
 238 706 276 653 276 600 c 0
 276 535 208 497 145 497 c 1
163 274 m 0
 82 274 35 326 35 391 c 1
 41 391 l 1
 41 327 85 280 163 280 c 0
 235 280 282 324 282 385 c 4
 282 460 199 496 145 496 c 1
 145 501 l 1
 208 501 288 462 288 385 c 4
 288 320 238 274 163 274 c 0
468 84 m 5
 474 90 l 5
 694 90 l 4
 696 90 l 4
 764 90 l 5
 764 84 l 5
 468 84 l 5
475 84 m 5
 468 84 l 5
 698 420 l 29
 698 420 l 5
 698 0 l 5
 692 0 l 5
 692 85 l 4
 692 88 l 4
 692 400 l 5
 475 84 l 5
EndSplineSet
EndChar

StartChar: uni2150
Encoding: 8528 8528 153
GlifName: uni2150
Width: 842
VWidth: 0
Flags: HMW
LayerCount: 2
Fore
SplineSet
621 700 m 1
 633 700 l 1
 60 0 l 5
 48 0 l 1
 621 700 l 1
21 666 m 5
 21 673 l 5
 129 697 l 5
 129 274 l 1
 123 274 l 1
 123 689 l 5
 21 666 l 5
523 414 m 1
 523 420 l 1
 805 420 l 1
 583 0 l 1
 576 0 l 5
 795 414 l 5
 523 414 l 1
EndSplineSet
EndChar

StartChar: uni2151
Encoding: 8529 8529 154
GlifName: uni2151
Width: 784
VWidth: 0
Flags: HMW
LayerCount: 2
Fore
SplineSet
621 700 m 1
 633 700 l 1
 60 0 l 5
 48 0 l 1
 621 700 l 1
21 666 m 5
 21 673 l 5
 129 697 l 5
 129 274 l 1
 123 274 l 1
 123 689 l 5
 21 666 l 5
724 290 m 4
 724 366 674 422 599 422 c 4
 524 422 474 366 474 290 c 4
 474 220 530 166 593 166 c 4
 677 166 724 226 724 290 c 4
562 2 m 5
 555 2 l 5
 700 209 l 5
 700 209 l 5
 675 178 638 160 593 160 c 4
 525 160 468 219 468 290 c 4
 468 370 518 428 599 428 c 4
 680 428 730 370 730 290 c 4
 730 256 712 217 696 195 c 6
 562 2 l 5
EndSplineSet
EndChar

StartChar: uni2152
Encoding: 8530 8530 155
GlifName: uni2152
Width: 1080
VWidth: 0
Flags: HMW
LayerCount: 2
Fore
SplineSet
621 700 m 1
 633 700 l 1
 60 0 l 5
 48 0 l 1
 621 700 l 1
21 666 m 5
 21 673 l 5
 129 697 l 5
 129 274 l 1
 123 274 l 1
 123 689 l 5
 21 666 l 5
433 393 m 5
 433 400 l 5
 541 424 l 5
 541 1 l 1
 535 1 l 1
 535 416 l 5
 433 393 l 5
750 210 m 4
 750 98 796 0 875 0 c 4
 954 0 1000 98 1000 210 c 4
 1000 322 954 420 875 420 c 4
 796 420 750 322 750 210 c 4
743 210 m 0
 743 329 792 426 875 426 c 4
 958 426 1007 329 1007 210 c 0
 1007 91 958 -6 875 -6 c 4
 792 -6 743 91 743 210 c 0
EndSplineSet
EndChar

StartChar: onethird
Encoding: 8531 8531 156
GlifName: onethird
Width: 755
VWidth: 0
Flags: HMW
LayerCount: 2
Fore
SplineSet
621 700 m 1
 633 700 l 1
 60 0 l 5
 48 0 l 1
 621 700 l 1
21 666 m 5
 21 673 l 5
 129 697 l 5
 129 274 l 1
 123 274 l 1
 123 689 l 5
 21 666 l 5
578 217 m 1
 578 222 l 1
 632 222 703 258 703 320 c 0
 703 370 666 420 599 420 c 0
 534 420 492 377 492 316 c 1
 486 316 l 1
 486 381 530 426 599 426 c 0
 671 426 709 373 709 320 c 0
 709 255 641 217 578 217 c 1
596 -6 m 0
 515 -6 468 46 468 111 c 1
 474 111 l 1
 474 47 518 0 596 0 c 0
 668 0 715 44 715 105 c 4
 715 180 632 216 578 216 c 1
 578 221 l 1
 641 221 721 182 721 105 c 4
 721 40 671 -6 596 -6 c 0
EndSplineSet
EndChar

StartChar: twothirds
Encoding: 8532 8532 157
GlifName: twothirds
Width: 882
VWidth: 0
Flags: HMW
LayerCount: 2
Fore
SplineSet
748 700 m 1
 760 700 l 1
 187 0 l 5
 175 0 l 1
 748 700 l 1
33 282 m 5
 225 483 l 6
 254 514 282 544 282 594 c 4
 282 641 253 703 175 703 c 4
 103 703 57 643 57 558 c 5
 51 558 l 5
 51 647 100 709 175 709 c 4
 255 709 288 644 288 594 c 4
 288 545 260 510 230 479 c 6
 48 288 l 5
 305 288 l 5
 305 282 l 5
 33 282 l 5
705 217 m 1
 705 222 l 1
 759 222 830 258 830 320 c 0
 830 370 793 420 726 420 c 0
 661 420 619 377 619 316 c 1
 613 316 l 1
 613 381 657 426 726 426 c 0
 798 426 836 373 836 320 c 0
 836 255 768 217 705 217 c 1
723 -6 m 0
 642 -6 595 46 595 111 c 1
 601 111 l 1
 601 47 645 0 723 0 c 0
 795 0 842 44 842 105 c 4
 842 180 759 216 705 216 c 1
 705 221 l 1
 768 221 848 182 848 105 c 4
 848 40 798 -6 723 -6 c 0
EndSplineSet
EndChar

StartChar: uni2155
Encoding: 8533 8533 158
GlifName: uni2155
Width: 744
VWidth: 0
Flags: HMW
LayerCount: 2
Fore
SplineSet
621 700 m 1
 633 700 l 1
 60 0 l 5
 48 0 l 1
 621 700 l 1
21 666 m 5
 21 673 l 5
 129 697 l 5
 129 274 l 1
 123 274 l 1
 123 689 l 5
 21 666 l 5
683 136 m 0
 683 41 623 -8 548 -8 c 0
 483 -8 445 26 423 80 c 1
 428 83 l 1
 450 30 485 -2 548 -2 c 0
 620 -2 677 45 677 136 c 0
 677 209 627 260 564 260 c 0
 512 260 472 236 441 194 c 1
 451 213 l 1
 469 240 511 266 564 266 c 0
 630 266 683 213 683 136 c 0
500 412 m 1
 451 213 l 1
 441 194 l 1
 496 418 l 1
 694 418 l 1
 694 412 l 1
 500 412 l 1
EndSplineSet
EndChar

StartChar: uni2156
Encoding: 8534 8534 159
GlifName: uni2156
Width: 871
VWidth: 0
Flags: HMW
LayerCount: 2
Fore
SplineSet
748 700 m 1
 760 700 l 1
 187 0 l 5
 175 0 l 1
 748 700 l 1
33 282 m 5
 225 483 l 6
 254 514 282 544 282 594 c 4
 282 641 253 703 175 703 c 4
 103 703 57 643 57 558 c 5
 51 558 l 5
 51 647 100 709 175 709 c 4
 255 709 288 644 288 594 c 4
 288 545 260 510 230 479 c 6
 48 288 l 5
 305 288 l 5
 305 282 l 5
 33 282 l 5
810 136 m 0
 810 41 750 -8 675 -8 c 0
 610 -8 572 26 550 80 c 1
 555 83 l 1
 577 30 612 -2 675 -2 c 0
 747 -2 804 45 804 136 c 0
 804 209 754 260 691 260 c 0
 639 260 599 236 568 194 c 1
 578 213 l 1
 596 240 638 266 691 266 c 0
 757 266 810 213 810 136 c 0
627 412 m 1
 578 213 l 1
 568 194 l 1
 623 418 l 1
 821 418 l 1
 821 412 l 1
 627 412 l 1
EndSplineSet
EndChar

StartChar: uni2157
Encoding: 8535 8535 160
GlifName: uni2157
Width: 831
VWidth: 0
Flags: HMW
LayerCount: 2
Fore
SplineSet
708 700 m 1
 720 700 l 1
 147 0 l 5
 135 0 l 1
 708 700 l 1
145 497 m 1
 145 502 l 1
 199 502 270 538 270 600 c 0
 270 650 233 700 166 700 c 0
 101 700 59 657 59 596 c 1
 53 596 l 1
 53 661 97 706 166 706 c 0
 238 706 276 653 276 600 c 0
 276 535 208 497 145 497 c 1
163 274 m 0
 82 274 35 326 35 391 c 1
 41 391 l 1
 41 327 85 280 163 280 c 0
 235 280 282 324 282 385 c 4
 282 460 199 496 145 496 c 1
 145 501 l 1
 208 501 288 462 288 385 c 4
 288 320 238 274 163 274 c 0
770 136 m 0
 770 41 710 -8 635 -8 c 0
 570 -8 532 26 510 80 c 1
 515 83 l 1
 537 30 572 -2 635 -2 c 0
 707 -2 764 45 764 136 c 0
 764 209 714 260 651 260 c 0
 599 260 559 236 528 194 c 1
 538 213 l 1
 556 240 598 266 651 266 c 0
 717 266 770 213 770 136 c 0
587 412 m 1
 538 213 l 1
 528 194 l 1
 583 418 l 1
 781 418 l 1
 781 412 l 1
 587 412 l 1
EndSplineSet
EndChar

StartChar: uni2158
Encoding: 8536 8536 161
GlifName: uni2158
Width: 866
VWidth: 0
Flags: HMW
LayerCount: 2
Fore
SplineSet
743 700 m 1
 755 700 l 1
 182 0 l 5
 170 0 l 1
 743 700 l 1
35 364 m 1
 41 370 l 1
 261 370 l 0
 263 370 l 0
 331 370 l 1
 331 364 l 1
 35 364 l 1
42 364 m 1
 35 364 l 1
 265 700 l 25
 266 700 l 1
 266 280 l 1
 259 280 l 1
 259 365 l 0
 259 368 l 0
 259 680 l 5
 42 364 l 1
805 136 m 0
 805 41 745 -8 670 -8 c 0
 605 -8 567 26 545 80 c 1
 550 83 l 1
 572 30 607 -2 670 -2 c 0
 742 -2 799 45 799 136 c 0
 799 209 749 260 686 260 c 0
 634 260 594 236 563 194 c 1
 573 213 l 1
 591 240 633 266 686 266 c 0
 752 266 805 213 805 136 c 0
622 412 m 1
 573 213 l 1
 563 194 l 1
 618 418 l 1
 816 418 l 1
 816 412 l 1
 622 412 l 1
EndSplineSet
EndChar

StartChar: uni2159
Encoding: 8537 8537 162
GlifName: uni2159
Width: 734
VWidth: 0
Flags: HMW
LayerCount: 2
Fore
SplineSet
621 700 m 1
 633 700 l 1
 60 0 l 5
 48 0 l 1
 621 700 l 1
21 666 m 5
 21 673 l 5
 129 697 l 5
 129 274 l 1
 123 274 l 1
 123 689 l 5
 21 666 l 5
434 130 m 4
 434 54 484 -2 559 -2 c 4
 634 -2 684 54 684 130 c 4
 684 200 629 254 566 254 c 4
 482 254 434 194 434 130 c 4
596 418 m 5
 604 418 l 5
 458 211 l 5
 458 211 l 5
 483 242 521 260 566 260 c 4
 634 260 690 201 690 130 c 4
 690 50 640 -8 559 -8 c 4
 478 -8 428 50 428 130 c 4
 428 164 446 203 462 225 c 6
 596 418 l 5
EndSplineSet
EndChar

StartChar: uni215A
Encoding: 8538 8538 163
GlifName: uni215A_
Width: 856
VWidth: 0
Flags: HMW
LayerCount: 2
Fore
SplineSet
743 700 m 1
 755 700 l 1
 182 0 l 5
 170 0 l 1
 743 700 l 1
295 416 m 0
 295 321 235 272 160 272 c 0
 95 272 57 306 35 360 c 1
 40 363 l 1
 62 310 97 278 160 278 c 0
 232 278 289 325 289 416 c 0
 289 489 239 540 176 540 c 0
 124 540 84 516 53 474 c 1
 63 493 l 1
 81 520 123 546 176 546 c 0
 242 546 295 493 295 416 c 0
112 692 m 1
 63 493 l 1
 53 474 l 1
 108 698 l 1
 306 698 l 1
 306 692 l 1
 112 692 l 1
556 130 m 4
 556 54 606 -2 681 -2 c 4
 756 -2 806 54 806 130 c 4
 806 200 751 254 688 254 c 4
 604 254 556 194 556 130 c 4
718 418 m 5
 726 418 l 5
 580 211 l 5
 580 211 l 5
 605 242 643 260 688 260 c 4
 756 260 812 201 812 130 c 4
 812 50 762 -8 681 -8 c 4
 600 -8 550 50 550 130 c 4
 550 164 568 203 584 225 c 6
 718 418 l 5
EndSplineSet
EndChar

StartChar: oneeighth
Encoding: 8539 8539 164
GlifName: oneeighth
Width: 760
VWidth: 0
Flags: HMW
LayerCount: 2
Fore
SplineSet
621 700 m 1
 633 700 l 1
 60 0 l 5
 48 0 l 1
 621 700 l 1
21 666 m 5
 21 673 l 5
 129 697 l 5
 129 274 l 1
 123 274 l 1
 123 689 l 5
 21 666 l 5
485 325 m 0
 485 378 529 426 589 426 c 0
 649 426 693 378 693 325 c 0
 693 266 640 221 589 221 c 0
 538 221 485 266 485 325 c 0
491 325 m 0
 491 267 547 225 589 225 c 0
 631 225 687 267 687 325 c 0
 687 377 646 420 589 420 c 0
 532 420 491 377 491 325 c 0
473 111 m 0
 473 176 529 223 589 223 c 4
 649 223 705 176 705 111 c 0
 705 46 664 -6 589 -6 c 0
 514 -6 473 46 473 111 c 0
479 111 m 0
 479 47 520 0 589 0 c 0
 658 0 699 47 699 111 c 0
 699 175 643 219 589 219 c 0
 535 219 479 175 479 111 c 0
EndSplineSet
EndChar

StartChar: threeeighths
Encoding: 8540 8540 165
GlifName: threeeighths
Width: 847
VWidth: 0
Flags: HMW
LayerCount: 2
Fore
SplineSet
708 700 m 1
 720 700 l 1
 147 0 l 5
 135 0 l 1
 708 700 l 1
145 497 m 1
 145 502 l 1
 199 502 270 538 270 600 c 0
 270 650 233 700 166 700 c 0
 101 700 59 657 59 596 c 1
 53 596 l 1
 53 661 97 706 166 706 c 0
 238 706 276 653 276 600 c 0
 276 535 208 497 145 497 c 1
163 274 m 0
 82 274 35 326 35 391 c 1
 41 391 l 1
 41 327 85 280 163 280 c 0
 235 280 282 324 282 385 c 4
 282 460 199 496 145 496 c 1
 145 501 l 1
 208 501 288 462 288 385 c 4
 288 320 238 274 163 274 c 0
572 325 m 0
 572 378 616 426 676 426 c 0
 736 426 780 378 780 325 c 0
 780 266 727 221 676 221 c 0
 625 221 572 266 572 325 c 0
578 325 m 0
 578 267 634 225 676 225 c 0
 718 225 774 267 774 325 c 0
 774 377 733 420 676 420 c 0
 619 420 578 377 578 325 c 0
560 111 m 0
 560 176 616 223 676 223 c 4
 736 223 792 176 792 111 c 0
 792 46 751 -6 676 -6 c 0
 601 -6 560 46 560 111 c 0
566 111 m 0
 566 47 607 0 676 0 c 0
 745 0 786 47 786 111 c 0
 786 175 730 219 676 219 c 0
 622 219 566 175 566 111 c 0
EndSplineSet
EndChar

StartChar: fiveeighths
Encoding: 8541 8541 166
GlifName: fiveeighths
Width: 882
VWidth: 0
Flags: HMW
LayerCount: 2
Fore
SplineSet
743 700 m 1
 755 700 l 1
 182 0 l 5
 170 0 l 1
 743 700 l 1
295 416 m 0
 295 321 235 272 160 272 c 0
 95 272 57 306 35 360 c 1
 40 363 l 1
 62 310 97 278 160 278 c 0
 232 278 289 325 289 416 c 0
 289 489 239 540 176 540 c 0
 124 540 84 516 53 474 c 1
 63 493 l 1
 81 520 123 546 176 546 c 0
 242 546 295 493 295 416 c 0
112 692 m 1
 63 493 l 1
 53 474 l 1
 108 698 l 1
 306 698 l 1
 306 692 l 1
 112 692 l 1
607 325 m 0
 607 378 651 426 711 426 c 0
 771 426 815 378 815 325 c 0
 815 266 762 221 711 221 c 0
 660 221 607 266 607 325 c 0
613 325 m 0
 613 267 669 225 711 225 c 0
 753 225 809 267 809 325 c 0
 809 377 768 420 711 420 c 0
 654 420 613 377 613 325 c 0
595 111 m 0
 595 176 651 223 711 223 c 4
 771 223 827 176 827 111 c 0
 827 46 786 -6 711 -6 c 0
 636 -6 595 46 595 111 c 0
601 111 m 0
 601 47 642 0 711 0 c 0
 780 0 821 47 821 111 c 0
 821 175 765 219 711 219 c 0
 657 219 601 175 601 111 c 0
EndSplineSet
EndChar

StartChar: seveneighths
Encoding: 8542 8542 167
GlifName: seveneighths
Width: 772
VWidth: 0
Flags: HMW
LayerCount: 2
Fore
SplineSet
633 700 m 1
 645 700 l 1
 72 0 l 5
 60 0 l 1
 633 700 l 1
35 694 m 1
 35 700 l 1
 317 700 l 1
 95 280 l 1
 88 280 l 5
 307 694 l 5
 35 694 l 1
497 325 m 0
 497 378 541 426 601 426 c 0
 661 426 705 378 705 325 c 0
 705 266 652 221 601 221 c 0
 550 221 497 266 497 325 c 0
503 325 m 0
 503 267 559 225 601 225 c 0
 643 225 699 267 699 325 c 0
 699 377 658 420 601 420 c 0
 544 420 503 377 503 325 c 0
485 111 m 0
 485 176 541 223 601 223 c 4
 661 223 717 176 717 111 c 0
 717 46 676 -6 601 -6 c 0
 526 -6 485 46 485 111 c 0
491 111 m 0
 491 47 532 0 601 0 c 0
 670 0 711 47 711 111 c 0
 711 175 655 219 601 219 c 0
 547 219 491 175 491 111 c 0
EndSplineSet
EndChar

StartChar: uni2074
Encoding: 8308 8308 168
GlifName: uni2074
Width: 371
VWidth: 0
Flags: HMW
LayerCount: 2
Fore
SplineSet
35 364 m 1
 41 370 l 1
 261 370 l 0
 263 370 l 0
 331 370 l 1
 331 364 l 1
 35 364 l 1
42 364 m 1
 35 364 l 1
 265 700 l 25
 266 700 l 1
 266 280 l 1
 259 280 l 1
 259 365 l 0
 259 368 l 0
 259 680 l 5
 42 364 l 1
EndSplineSet
EndChar

StartChar: uni2075
Encoding: 8309 8309 169
GlifName: uni2075
Width: 341
VWidth: 0
Flags: HMW
LayerCount: 2
Fore
SplineSet
295 416 m 0
 295 321 235 272 160 272 c 0
 95 272 57 306 35 360 c 1
 40 363 l 1
 62 310 97 278 160 278 c 0
 232 278 289 325 289 416 c 0
 289 489 239 540 176 540 c 0
 124 540 84 516 53 474 c 1
 63 493 l 1
 81 520 123 546 176 546 c 0
 242 546 295 493 295 416 c 0
112 692 m 1
 63 493 l 1
 53 474 l 1
 108 698 l 1
 306 698 l 1
 306 692 l 1
 112 692 l 1
EndSplineSet
EndChar

StartChar: uni2076
Encoding: 8310 8310 170
GlifName: uni2076
Width: 332
VWidth: 0
Flags: HMW
LayerCount: 2
Fore
SplineSet
46 410 m 4
 46 334 96 278 171 278 c 4
 246 278 296 334 296 410 c 4
 296 480 241 534 178 534 c 4
 94 534 46 474 46 410 c 4
208 698 m 5
 216 698 l 5
 70 491 l 5
 70 491 l 5
 95 522 133 540 178 540 c 4
 246 540 302 481 302 410 c 4
 302 330 252 272 171 272 c 4
 90 272 40 330 40 410 c 4
 40 444 58 483 74 505 c 6
 208 698 l 5
EndSplineSet
EndChar

StartChar: uni2077
Encoding: 8311 8311 171
GlifName: uni2077
Width: 352
VWidth: 0
Flags: HMW
LayerCount: 2
Fore
SplineSet
35 694 m 1
 35 700 l 1
 317 700 l 1
 95 280 l 1
 88 280 l 5
 307 694 l 5
 35 694 l 1
EndSplineSet
EndChar

StartChar: uni2078
Encoding: 8312 8312 172
GlifName: uni2078
Width: 302
VWidth: 0
Flags: HMW
LayerCount: 2
Fore
SplineSet
47 605 m 0
 47 658 91 706 151 706 c 0
 211 706 255 658 255 605 c 0
 255 546 202 501 151 501 c 0
 100 501 47 546 47 605 c 0
53 605 m 0
 53 547 109 505 151 505 c 0
 193 505 249 547 249 605 c 0
 249 657 208 700 151 700 c 0
 94 700 53 657 53 605 c 0
35 391 m 0
 35 456 91 503 151 503 c 4
 211 503 267 456 267 391 c 0
 267 326 226 274 151 274 c 0
 76 274 35 326 35 391 c 0
41 391 m 0
 41 327 82 280 151 280 c 0
 220 280 261 327 261 391 c 0
 261 455 205 499 151 499 c 0
 97 499 41 455 41 391 c 0
EndSplineSet
EndChar

StartChar: uni2079
Encoding: 8313 8313 173
GlifName: uni2079
Width: 332
VWidth: 0
Flags: HMW
LayerCount: 2
Fore
SplineSet
286 570 m 4
 286 646 236 702 161 702 c 4
 86 702 36 646 36 570 c 4
 36 500 92 446 155 446 c 4
 239 446 286 506 286 570 c 4
124 282 m 5
 117 282 l 5
 262 489 l 5
 262 489 l 5
 237 458 200 440 155 440 c 4
 87 440 30 499 30 570 c 4
 30 650 80 708 161 708 c 4
 242 708 292 650 292 570 c 4
 292 536 274 497 258 475 c 6
 124 282 l 5
EndSplineSet
EndChar

StartChar: uni2070
Encoding: 8304 8304 174
GlifName: uni2070
Width: 324
VWidth: 0
Flags: HMW
LayerCount: 2
Fore
SplineSet
42 490 m 4
 42 378 88 280 167 280 c 4
 246 280 292 378 292 490 c 4
 292 602 246 700 167 700 c 4
 88 700 42 602 42 490 c 4
35 490 m 0
 35 609 84 706 167 706 c 4
 250 706 299 609 299 490 c 0
 299 371 250 274 167 274 c 4
 84 274 35 371 35 490 c 0
EndSplineSet
EndChar

StartChar: uni2080
Encoding: 8320 8320 175
GlifName: uni2080
Width: 334
VWidth: 0
Flags: HMW
LayerCount: 2
Fore
SplineSet
42 210 m 4
 42 98 88 0 167 0 c 4
 246 0 292 98 292 210 c 4
 292 322 246 420 167 420 c 4
 88 420 42 322 42 210 c 4
35 210 m 0
 35 329 84 426 167 426 c 4
 250 426 299 329 299 210 c 0
 299 91 250 -6 167 -6 c 4
 84 -6 35 91 35 210 c 0
EndSplineSet
EndChar

StartChar: uni2084
Encoding: 8324 8324 176
GlifName: uni2084
Width: 371
VWidth: 0
Flags: HMW
LayerCount: 2
Fore
SplineSet
35 84 m 1
 41 90 l 1
 261 90 l 0
 263 90 l 0
 331 90 l 1
 331 84 l 1
 35 84 l 1
42 84 m 1
 35 84 l 1
 265 420 l 25
 266 420 l 1
 266 0 l 1
 259 0 l 1
 259 85 l 0
 259 88 l 0
 259 400 l 5
 42 84 l 1
EndSplineSet
EndChar

StartChar: uni2085
Encoding: 8325 8325 177
GlifName: uni2085
Width: 341
VWidth: 0
Flags: HMW
LayerCount: 2
Fore
SplineSet
295 136 m 0
 295 41 235 -8 160 -8 c 0
 95 -8 57 26 35 80 c 1
 40 83 l 1
 62 30 97 -2 160 -2 c 0
 232 -2 289 45 289 136 c 0
 289 209 239 260 176 260 c 0
 124 260 84 236 53 194 c 1
 63 213 l 1
 81 240 123 266 176 266 c 0
 242 266 295 213 295 136 c 0
112 412 m 1
 63 213 l 1
 53 194 l 1
 108 418 l 1
 306 418 l 1
 306 412 l 1
 112 412 l 1
EndSplineSet
EndChar

StartChar: uni2086
Encoding: 8326 8326 178
GlifName: uni2086
Width: 332
VWidth: 0
Flags: HMW
LayerCount: 2
Fore
SplineSet
46 130 m 4
 46 54 96 -2 171 -2 c 4
 246 -2 296 54 296 130 c 4
 296 200 241 254 178 254 c 4
 94 254 46 194 46 130 c 4
208 418 m 5
 216 418 l 5
 70 211 l 5
 70 211 l 5
 95 242 133 260 178 260 c 4
 246 260 302 201 302 130 c 4
 302 50 252 -8 171 -8 c 4
 90 -8 40 50 40 130 c 4
 40 164 58 203 74 225 c 6
 208 418 l 5
EndSplineSet
EndChar

StartChar: uni2087
Encoding: 8327 8327 179
GlifName: uni2087
Width: 352
VWidth: 0
Flags: HMW
LayerCount: 2
Fore
SplineSet
35 414 m 1
 35 420 l 1
 317 420 l 1
 95 0 l 1
 88 0 l 5
 307 414 l 5
 35 414 l 1
EndSplineSet
EndChar

StartChar: uni2088
Encoding: 8328 8328 180
GlifName: uni2088
Width: 302
VWidth: 0
Flags: HMW
LayerCount: 2
Fore
SplineSet
47 325 m 0
 47 378 91 426 151 426 c 0
 211 426 255 378 255 325 c 0
 255 266 202 221 151 221 c 0
 100 221 47 266 47 325 c 0
53 325 m 0
 53 267 109 225 151 225 c 0
 193 225 249 267 249 325 c 0
 249 377 208 420 151 420 c 0
 94 420 53 377 53 325 c 0
35 111 m 0
 35 176 91 223 151 223 c 4
 211 223 267 176 267 111 c 0
 267 46 226 -6 151 -6 c 0
 76 -6 35 46 35 111 c 0
41 111 m 0
 41 47 82 0 151 0 c 0
 220 0 261 47 261 111 c 0
 261 175 205 219 151 219 c 0
 97 219 41 175 41 111 c 0
EndSplineSet
EndChar

StartChar: uni2089
Encoding: 8329 8329 181
GlifName: uni2089
Width: 332
VWidth: 0
Flags: HMW
LayerCount: 2
Fore
SplineSet
286 290 m 4
 286 366 236 422 161 422 c 4
 86 422 36 366 36 290 c 4
 36 220 92 166 155 166 c 4
 239 166 286 226 286 290 c 4
124 2 m 5
 117 2 l 5
 262 209 l 5
 262 209 l 5
 237 178 200 160 155 160 c 4
 87 160 30 219 30 290 c 4
 30 370 80 428 161 428 c 4
 242 428 292 370 292 290 c 4
 292 256 274 217 258 195 c 6
 124 2 l 5
EndSplineSet
EndChar

StartChar: uni2081
Encoding: 8321 8321 182
GlifName: uni2081
Width: 288
VWidth: 0
Flags: HMW
LayerCount: 2
Fore
SplineSet
95 393 m 5
 95 400 l 5
 203 424 l 5
 203 1 l 1
 197 1 l 1
 197 416 l 5
 95 393 l 5
EndSplineSet
EndChar

StartChar: uni2082
Encoding: 8322 8322 183
GlifName: uni2082
Width: 332
VWidth: 0
Flags: HMW
LayerCount: 2
Fore
SplineSet
30 2 m 1
 222 203 l 6
 251 234 279 264 279 314 c 4
 279 361 250 423 172 423 c 0
 100 423 54 363 54 278 c 1
 48 278 l 1
 48 367 97 429 172 429 c 0
 252 429 285 364 285 314 c 0
 285 265 257 230 227 199 c 2
 45 8 l 1
 302 8 l 1
 302 2 l 1
 30 2 l 1
EndSplineSet
EndChar

StartChar: uni2083
Encoding: 8323 8323 184
GlifName: uni2083
Width: 318
VWidth: 0
Flags: HMW
LayerCount: 2
Fore
SplineSet
140 217 m 1
 140 222 l 1
 194 222 265 258 265 320 c 0
 265 370 228 420 161 420 c 0
 96 420 54 377 54 316 c 1
 48 316 l 1
 48 381 92 426 161 426 c 0
 233 426 271 373 271 320 c 0
 271 255 203 217 140 217 c 1
158 -6 m 0
 77 -6 30 46 30 111 c 1
 36 111 l 1
 36 47 80 0 158 0 c 0
 230 0 277 44 277 105 c 4
 277 180 194 216 140 216 c 1
 140 221 l 1
 203 221 283 182 283 105 c 4
 283 40 233 -6 158 -6 c 0
EndSplineSet
EndChar

StartChar: Agrave
Encoding: 192 192 185
GlifName: A_grave
Width: 600
VWidth: 0
Flags: HM
LayerCount: 2
Fore
SplineSet
127 272 m 1
 127 282 l 1
 472 282 l 1
 472 272 l 1
 127 272 l 1
300 688 m 5
 136 277 l 1
 135 273 l 1
 27 0 l 1
 15 0 l 1
 300 715 l 5
 585 0 l 1
 573 0 l 1
 466 273 l 1
 465 276 l 1
 300 688 l 5
164 932 m 5
 172 940 l 5
 342 780 l 5
 338 775 l 5
 164 932 l 5
EndSplineSet
EndChar

StartChar: Aacute
Encoding: 193 193 186
GlifName: A_acute
Width: 600
VWidth: 0
Flags: HM
LayerCount: 2
Fore
SplineSet
127 272 m 1
 127 282 l 1
 472 282 l 1
 472 272 l 1
 127 272 l 1
300 688 m 5
 136 277 l 1
 135 273 l 1
 27 0 l 1
 15 0 l 1
 300 715 l 5
 585 0 l 1
 573 0 l 1
 466 273 l 1
 465 276 l 1
 300 688 l 5
436 932 m 5
 262 775 l 5
 258 780 l 5
 428 940 l 5
 436 932 l 5
EndSplineSet
EndChar

StartChar: Acircumflex
Encoding: 194 194 187
GlifName: A_circumflex
Width: 600
VWidth: 0
Flags: HM
LayerCount: 2
Fore
SplineSet
127 272 m 1
 127 282 l 1
 472 282 l 1
 472 272 l 1
 127 272 l 1
300 688 m 5
 136 277 l 1
 135 273 l 1
 27 0 l 1
 15 0 l 1
 300 715 l 5
 585 0 l 1
 573 0 l 1
 466 273 l 1
 465 276 l 1
 300 688 l 5
300 910 m 1
 147 775 l 5
 140 782 l 1
 300 922 l 1
 460 782 l 1
 453 775 l 1
 300 910 l 1
EndSplineSet
EndChar

StartChar: Atilde
Encoding: 195 195 188
GlifName: A_tilde
Width: 600
VWidth: 0
Flags: HM
LayerCount: 2
Fore
SplineSet
127 272 m 1
 127 282 l 1
 472 282 l 1
 472 272 l 1
 127 272 l 1
300 688 m 5
 136 277 l 1
 135 273 l 1
 27 0 l 1
 15 0 l 1
 300 715 l 5
 585 0 l 1
 573 0 l 1
 466 273 l 1
 465 276 l 1
 300 688 l 5
174 796 m 5
 174 825 191 854 236 854 c 4
 291 854 306 807 360 807 c 0
 389 807 401 823 416 855 c 1
 426 852 l 1
 410 815 390 799 360 799 c 0
 305 799 283 846 238 846 c 0
 197 846 184 820 184 795 c 5
 174 796 l 5
EndSplineSet
EndChar

StartChar: Adieresis
Encoding: 196 196 189
GlifName: A_dieresis
Width: 600
VWidth: 0
Flags: HM
LayerCount: 2
Fore
SplineSet
127 272 m 1
 127 282 l 1
 472 282 l 1
 472 272 l 1
 127 272 l 1
300 688 m 5
 136 277 l 1
 135 273 l 1
 27 0 l 1
 15 0 l 1
 300 715 l 5
 585 0 l 1
 573 0 l 1
 466 273 l 1
 465 276 l 1
 300 688 l 5
389 806 m 0
 389 813 394 817 400 817 c 0
 406 817 411 813 411 806 c 0
 411 799 406 795 400 795 c 0
 394 795 389 799 389 806 c 0
189 806 m 0
 189 813 194 817 200 817 c 0
 206 817 211 813 211 806 c 0
 211 799 206 795 200 795 c 0
 194 795 189 799 189 806 c 0
EndSplineSet
EndChar

StartChar: Aring
Encoding: 197 197 190
GlifName: A_ring
Width: 600
VWidth: 0
Flags: HM
LayerCount: 2
Fore
SplineSet
127 272 m 1
 127 282 l 1
 472 282 l 1
 472 272 l 1
 127 272 l 1
300 688 m 5
 136 277 l 1
 135 273 l 1
 27 0 l 1
 15 0 l 1
 300 715 l 5
 585 0 l 1
 573 0 l 1
 466 273 l 1
 465 276 l 1
 300 688 l 5
198 808 m 0
 198 868 248 908 300 908 c 0
 352 908 402 868 402 808 c 0
 402 748 352 708 300 708 c 0
 248 708 198 748 198 808 c 0
208 808 m 4
 208 755 252 718 300 718 c 4
 348 718 392 755 392 808 c 4
 392 861 348 898 300 898 c 4
 252 898 208 861 208 808 c 4
EndSplineSet
EndChar

StartChar: AE
Encoding: 198 198 191
GlifName: A_E_
Width: 896
VWidth: 0
Flags: HMW
LayerCount: 2
Fore
SplineSet
207 280 m 5
 207 290 l 5
 497 290 l 1
 497 280 l 1
 207 280 l 5
485 700 m 1
 498 700 l 1
 18 0 l 1
 5 0 l 1
 485 700 l 1
497 0 m 1
 497 10 l 1
 816 10 l 1
 816 0 l 1
 497 0 l 1
500 690 m 1
 485 700 l 1
 816 700 l 1
 816 690 l 1
 500 690 l 1
497 384 m 1
 497 394 l 1
 796 394 l 1
 796 384 l 1
 497 384 l 1
490 700 m 1
 501 700 l 1
 501 0 l 1
 490 0 l 1
 490 700 l 1
EndSplineSet
EndChar

StartChar: Ccedilla
Encoding: 199 199 192
GlifName: C_cedilla
Width: 685
VWidth: 0
Flags: HM
LayerCount: 2
Fore
SplineSet
62 350 m 0
 62 150 193 4 380 4 c 0
 479 4 547 31 605 88 c 1
 605 72 l 1
 546 20 482 -8 380 -8 c 0
 186 -8 50 141 50 350 c 0
 50 559 186 708 380 708 c 0
 482 708 546 680 605 628 c 1
 605 613 l 1
 549 669 474 696 380 696 c 0
 194 696 62 553 62 350 c 0
374 -1 m 1
 386 -1 l 1
 330 -77 l 1
 319 -89 l 1
 374 -1 l 1
473 -127 m 1
 463 -127 l 1
 463 -83 429 -63 400 -63 c 0
 370 -63 342 -73 319 -89 c 1
 330 -77 l 1
 356 -61 367 -53 400 -53 c 0
 433 -53 473 -78 473 -127 c 1
473 -127 m 1
 473 -188 421 -221 366 -221 c 0
 329 -221 305 -211 277 -183 c 1
 284 -177 l 1
 312 -201 333 -211 366 -211 c 0
 413 -211 463 -183 463 -127 c 1
 473 -127 l 1
EndSplineSet
EndChar

StartChar: Egrave
Encoding: 200 200 193
GlifName: E_grave
Width: 510
VWidth: 0
Flags: HM
LayerCount: 2
Fore
SplineSet
92 0 m 1
 92 10 l 1
 430 10 l 1
 430 0 l 1
 92 0 l 1
92 690 m 1
 92 700 l 1
 430 700 l 1
 430 690 l 1
 92 690 l 1
92 384 m 1
 92 394 l 1
 410 394 l 1
 410 384 l 1
 92 384 l 1
90 700 m 1
 101 700 l 1
 101 0 l 1
 90 0 l 1
 90 700 l 1
104 925 m 5
 112 933 l 5
 282 773 l 5
 278 768 l 5
 104 925 l 5
EndSplineSet
EndChar

StartChar: Eacute
Encoding: 201 201 194
GlifName: E_acute
Width: 510
VWidth: 0
Flags: HM
LayerCount: 2
Fore
SplineSet
92 0 m 1
 92 10 l 1
 430 10 l 1
 430 0 l 1
 92 0 l 1
92 690 m 1
 92 700 l 1
 430 700 l 1
 430 690 l 1
 92 690 l 1
92 384 m 1
 92 394 l 1
 410 394 l 1
 410 384 l 1
 92 384 l 1
90 700 m 1
 101 700 l 1
 101 0 l 1
 90 0 l 1
 90 700 l 1
416 925 m 5
 242 768 l 5
 238 773 l 5
 408 933 l 5
 416 925 l 5
EndSplineSet
EndChar

StartChar: Ecircumflex
Encoding: 202 202 195
GlifName: E_circumflex
Width: 510
VWidth: 0
Flags: HM
LayerCount: 2
Fore
SplineSet
92 0 m 1
 92 10 l 1
 430 10 l 1
 430 0 l 1
 92 0 l 1
92 690 m 1
 92 700 l 1
 430 700 l 1
 430 690 l 1
 92 690 l 1
92 384 m 1
 92 394 l 1
 410 394 l 5
 410 384 l 1
 92 384 l 1
90 700 m 1
 101 700 l 1
 101 0 l 1
 90 0 l 1
 90 700 l 1
260 903 m 1
 107 768 l 5
 100 775 l 1
 260 915 l 1
 420 775 l 1
 413 768 l 1
 260 903 l 1
EndSplineSet
EndChar

StartChar: Edieresis
Encoding: 203 203 196
GlifName: E_dieresis
Width: 510
VWidth: 0
Flags: HM
LayerCount: 2
Fore
SplineSet
92 0 m 1
 92 10 l 1
 430 10 l 1
 430 0 l 1
 92 0 l 1
92 690 m 1
 92 700 l 1
 430 700 l 1
 430 690 l 1
 92 690 l 1
92 384 m 1
 92 394 l 1
 410 394 l 1
 410 384 l 1
 92 384 l 1
90 700 m 1
 101 700 l 1
 101 0 l 1
 90 0 l 1
 90 700 l 1
349 799 m 4
 349 806 354 810 360 810 c 4
 366 810 371 806 371 799 c 4
 371 792 366 788 360 788 c 4
 354 788 349 792 349 799 c 4
149 799 m 4
 149 806 154 810 160 810 c 4
 166 810 171 806 171 799 c 4
 171 792 166 788 160 788 c 4
 154 788 149 792 149 799 c 4
EndSplineSet
EndChar

StartChar: Igrave
Encoding: 204 204 197
GlifName: I_grave
Width: 180
VWidth: 0
Flags: HMW
LayerCount: 2
Fore
SplineSet
85 700 m 1
 95 700 l 1
 95 0 l 1
 85 0 l 1
 85 700 l 1
-66 925 m 5
 -58 933 l 5
 112 773 l 5
 108 768 l 5
 -66 925 l 5
EndSplineSet
EndChar

StartChar: Iacute
Encoding: 205 205 198
GlifName: I_acute
Width: 180
VWidth: 0
Flags: HMW
LayerCount: 2
Fore
SplineSet
85 700 m 1
 95 700 l 1
 95 0 l 1
 85 0 l 1
 85 700 l 1
246 925 m 1
 72 768 l 5
 68 773 l 5
 238 933 l 1
 246 925 l 1
EndSplineSet
EndChar

StartChar: Icircumflex
Encoding: 206 206 199
GlifName: I_circumflex
Width: 180
VWidth: 0
Flags: HMW
LayerCount: 2
Fore
SplineSet
85 700 m 1
 95 700 l 5
 95 0 l 5
 85 0 l 1
 85 700 l 1
90 903 m 1
 -63 768 l 5
 -70 775 l 1
 90 915 l 1
 250 775 l 1
 243 768 l 1
 90 903 l 1
EndSplineSet
EndChar

StartChar: Idieresis
Encoding: 207 207 200
GlifName: I_dieresis
Width: 180
VWidth: 0
Flags: HMW
LayerCount: 2
Fore
SplineSet
85 700 m 1
 95 700 l 1
 95 0 l 1
 85 0 l 1
 85 700 l 1
149 799 m 0
 149 806 154 810 160 810 c 0
 166 810 171 806 171 799 c 0
 171 792 166 788 160 788 c 0
 154 788 149 792 149 799 c 0
9 799 m 4
 9 806 14 810 20 810 c 4
 26 810 31 806 31 799 c 4
 31 792 26 788 20 788 c 4
 14 788 9 792 9 799 c 4
EndSplineSet
EndChar

StartChar: Ntilde
Encoding: 209 209 201
GlifName: N_tilde
Width: 665
VWidth: 0
Flags: HMW
LayerCount: 2
Fore
SplineSet
61 678 m 1
 50 715 l 1
 584 17 l 1
 595 -15 l 1
 61 678 l 1
584 700 m 1
 595 700 l 1
 595 -15 l 1
 584 17 l 1
 584 700 l 1
50 715 m 1
 61 678 l 1
 61 0 l 1
 50 0 l 1
 50 715 l 1
214 776 m 5
 214 805 231 834 276 834 c 4
 331 834 346 787 400 787 c 4
 429 787 441 803 456 835 c 5
 466 832 l 5
 450 795 430 779 400 779 c 4
 345 779 323 826 278 826 c 4
 237 826 224 800 224 775 c 5
 214 776 l 5
EndSplineSet
EndChar

StartChar: Eth
Encoding: 208 208 202
GlifName: E_th
Width: 680
VWidth: 0
Flags: HMW
LayerCount: 2
Fore
SplineSet
95 689 m 1
 95 700 l 1
 250 700 l 2
 454 700 585 559 585 350 c 1
 574 350 l 1
 574 553 448 689 250 689 c 2
 95 689 l 1
250 0 m 2
 95 0 l 1
 95 11 l 1
 250 11 l 2
 448 11 574 147 574 350 c 1
 585 350 l 1
 585 141 454 0 250 0 c 2
90 700 m 1
 101 700 l 1
 101 0 l 1
 90 0 l 1
 90 700 l 1
5 345 m 1
 5 355 l 1
 305 355 l 1
 305 345 l 1
 5 345 l 1
EndSplineSet
EndChar

StartChar: Ograve
Encoding: 210 210 203
GlifName: O_grave
Width: 774
VWidth: 0
Flags: HMW
LayerCount: 2
Fore
SplineSet
61 350 m 0
 61 149 196 3 387 3 c 0
 578 3 713 149 713 350 c 0
 713 551 578 697 387 697 c 0
 196 697 61 551 61 350 c 0
50 350 m 0
 50 559 193 708 387 708 c 0
 581 708 724 559 724 350 c 0
 724 141 581 -8 387 -8 c 0
 193 -8 50 141 50 350 c 0
252 925 m 5
 260 933 l 5
 430 773 l 5
 424 768 l 5
 252 925 l 5
EndSplineSet
EndChar

StartChar: Oacute
Encoding: 211 211 204
GlifName: O_acute
Width: 774
VWidth: 0
Flags: HMW
LayerCount: 2
Fore
SplineSet
61 350 m 0
 61 149 196 3 387 3 c 0
 578 3 713 149 713 350 c 0
 713 551 578 697 387 697 c 0
 196 697 61 551 61 350 c 0
50 350 m 0
 50 559 193 708 387 708 c 0
 581 708 724 559 724 350 c 0
 724 141 581 -8 387 -8 c 0
 193 -8 50 141 50 350 c 0
522 925 m 5
 350 768 l 5
 344 773 l 5
 514 933 l 5
 522 925 l 5
EndSplineSet
EndChar

StartChar: Ocircumflex
Encoding: 212 212 205
GlifName: O_circumflex
Width: 774
VWidth: 0
Flags: HMW
LayerCount: 2
Fore
SplineSet
61 350 m 4
 61 149 196 3 387 3 c 4
 578 3 713 149 713 350 c 4
 713 551 578 697 387 697 c 4
 196 697 61 551 61 350 c 4
50 350 m 4
 50 559 193 708 387 708 c 4
 581 708 724 559 724 350 c 4
 724 141 581 -8 387 -8 c 4
 193 -8 50 141 50 350 c 4
387 903 m 1
 234 768 l 5
 227 775 l 1
 387 915 l 1
 547 775 l 1
 540 768 l 1
 387 903 l 1
EndSplineSet
EndChar

StartChar: Otilde
Encoding: 213 213 206
GlifName: O_tilde
Width: 774
VWidth: 0
Flags: HMW
LayerCount: 2
Fore
SplineSet
61 350 m 0
 61 149 196 3 387 3 c 0
 578 3 713 149 713 350 c 0
 713 551 578 697 387 697 c 0
 196 697 61 551 61 350 c 0
50 350 m 0
 50 559 193 708 387 708 c 0
 581 708 724 559 724 350 c 0
 724 141 581 -8 387 -8 c 0
 193 -8 50 141 50 350 c 0
262 789 m 5
 262 818 279 847 324 847 c 4
 379 847 394 800 448 800 c 4
 477 800 489 816 504 848 c 5
 512 845 l 5
 496 808 476 792 446 792 c 4
 391 792 371 839 326 839 c 4
 285 839 270 813 270 788 c 5
 262 789 l 5
EndSplineSet
EndChar

StartChar: Odieresis
Encoding: 214 214 207
GlifName: O_dieresis
Width: 774
VWidth: 0
Flags: HMW
LayerCount: 2
Fore
SplineSet
61 350 m 0
 61 149 196 3 387 3 c 0
 578 3 713 149 713 350 c 0
 713 551 578 697 387 697 c 0
 196 697 61 551 61 350 c 0
50 350 m 0
 50 559 193 708 387 708 c 0
 581 708 724 559 724 350 c 0
 724 141 581 -8 387 -8 c 0
 193 -8 50 141 50 350 c 0
486 809 m 4
 486 816 491 820 497 820 c 4
 503 820 508 816 508 809 c 4
 508 802 503 798 497 798 c 4
 491 798 486 802 486 809 c 4
266 809 m 0
 266 816 271 820 277 820 c 0
 283 820 288 816 288 809 c 0
 288 802 283 798 277 798 c 0
 271 798 266 802 266 809 c 0
EndSplineSet
EndChar

StartChar: Ugrave
Encoding: 217 217 208
GlifName: U_grave
Width: 576
VWidth: 0
Flags: HMW
LayerCount: 2
Fore
SplineSet
85 700 m 1
 96 700 l 1
 96 220 l 2
 96 84 168 1 288 1 c 0
 408 1 480 84 480 220 c 2
 480 700 l 1
 491 700 l 1
 491 220 l 2
 491 81 423 -10 288 -10 c 0
 153 -10 85 81 85 220 c 2
 85 700 l 1
152 925 m 5
 160 933 l 5
 330 773 l 5
 326 768 l 5
 152 925 l 5
EndSplineSet
EndChar

StartChar: Uacute
Encoding: 218 218 209
GlifName: U_acute
Width: 576
VWidth: 0
Flags: HMW
LayerCount: 2
Fore
SplineSet
85 700 m 1
 96 700 l 1
 96 220 l 2
 96 84 168 1 288 1 c 0
 408 1 480 84 480 220 c 2
 480 700 l 1
 491 700 l 1
 491 220 l 2
 491 81 423 -10 288 -10 c 0
 153 -10 85 81 85 220 c 2
 85 700 l 1
424 925 m 5
 250 768 l 5
 246 773 l 5
 416 933 l 5
 424 925 l 5
EndSplineSet
EndChar

StartChar: Ucircumflex
Encoding: 219 219 210
GlifName: U_circumflex
Width: 576
VWidth: 0
Flags: HMW
LayerCount: 2
Fore
SplineSet
85 700 m 1
 96 700 l 1
 96 220 l 2
 96 84 168 1 288 1 c 0
 408 1 480 84 480 220 c 2
 480 700 l 1
 491 700 l 1
 491 220 l 2
 491 81 423 -10 288 -10 c 4
 153 -10 85 81 85 220 c 2
 85 700 l 1
288 903 m 1
 135 768 l 5
 128 775 l 1
 288 915 l 1
 448 775 l 1
 441 768 l 1
 288 903 l 1
EndSplineSet
EndChar

StartChar: Udieresis
Encoding: 220 220 211
GlifName: U_dieresis
Width: 576
VWidth: 0
Flags: HMW
LayerCount: 2
Fore
SplineSet
85 700 m 1
 96 700 l 1
 96 220 l 2
 96 84 168 1 288 1 c 0
 408 1 480 84 480 220 c 2
 480 700 l 1
 491 700 l 1
 491 220 l 2
 491 81 423 -10 288 -10 c 0
 153 -10 85 81 85 220 c 2
 85 700 l 1
367 779 m 4
 367 786 372 790 378 790 c 4
 384 790 389 786 389 779 c 4
 389 772 384 768 378 768 c 4
 372 768 367 772 367 779 c 4
187 779 m 0
 187 786 192 790 198 790 c 0
 204 790 209 786 209 779 c 0
 209 772 204 768 198 768 c 0
 192 768 187 772 187 779 c 0
EndSplineSet
EndChar

StartChar: Yacute
Encoding: 221 221 212
GlifName: Y_acute
Width: 507
VWidth: 0
Flags: HMW
LayerCount: 2
Fore
SplineSet
243 275 m 1
 254 275 l 1
 254 0 l 1
 243 0 l 1
 243 275 l 1
479 700 m 1
 492 700 l 1
 248 256 l 1
 15 700 l 1
 28 700 l 1
 248 281 l 1
 479 700 l 1
409 925 m 5
 236 768 l 5
 231 773 l 5
 401 933 l 5
 409 925 l 5
EndSplineSet
EndChar

StartChar: agrave
Encoding: 224 224 213
GlifName: agrave
Width: 435
VWidth: 0
Flags: HM
LayerCount: 2
Fore
SplineSet
50 135 m 0
 50 37 123 0 193 0 c 0
 283 0 355 74 355 160 c 1
 360 160 l 1
 360 71 295 -10 193 -10 c 0
 118 -10 40 31 40 135 c 0
 40 232 130 281 221 281 c 0
 299 281 337 253 358 235 c 1
 358 225 l 1
 334 247 289 271 221 271 c 0
 138 271 50 227 50 135 c 0
84 395 m 1
 77 403 l 1
 110 434 160 470 233 470 c 0
 323 470 365 409 365 320 c 2
 365 0 l 1
 355 0 l 1
 355 320 l 2
 355 406 316 460 233 460 c 0
 167 460 121 430 84 395 c 1
98 707 m 5
 106 715 l 5
 276 555 l 5
 270 550 l 5
 98 707 l 5
EndSplineSet
Substitution2: "'ss01' Style Set 1 in Latin lookup 1 subtable" agrave.alt
EndChar

StartChar: aacute
Encoding: 225 225 214
GlifName: aacute
Width: 435
VWidth: 0
Flags: HM
LayerCount: 2
Fore
SplineSet
50 135 m 0
 50 37 123 0 193 0 c 0
 283 0 355 74 355 160 c 1
 360 160 l 1
 360 71 295 -10 193 -10 c 0
 118 -10 40 31 40 135 c 0
 40 232 130 281 221 281 c 0
 299 281 337 253 358 235 c 1
 358 225 l 1
 334 247 289 271 221 271 c 0
 138 271 50 227 50 135 c 0
84 395 m 1
 77 403 l 1
 110 434 160 470 233 470 c 0
 323 470 365 409 365 320 c 2
 365 0 l 1
 355 0 l 1
 355 320 l 2
 355 406 316 460 233 460 c 0
 167 460 121 430 84 395 c 1
348 707 m 5
 176 550 l 5
 170 555 l 5
 340 715 l 5
 348 707 l 5
EndSplineSet
Substitution2: "'ss01' Style Set 1 in Latin lookup 1 subtable" aacute.alt
EndChar

StartChar: acircumflex
Encoding: 226 226 215
GlifName: acircumflex
Width: 435
VWidth: 0
Flags: HM
LayerCount: 2
Fore
SplineSet
50 135 m 4
 50 37 123 0 193 0 c 4
 283 0 355 74 355 160 c 5
 360 160 l 5
 360 71 295 -10 193 -10 c 4
 118 -10 40 31 40 135 c 4
 40 232 130 281 221 281 c 4
 299 281 337 253 358 235 c 5
 358 225 l 5
 334 247 289 271 221 271 c 4
 138 271 50 227 50 135 c 4
84 395 m 5
 77 403 l 5
 110 434 160 470 233 470 c 4
 323 470 365 409 365 320 c 6
 365 0 l 5
 355 0 l 5
 355 320 l 6
 355 406 316 460 233 460 c 4
 167 460 121 430 84 395 c 5
233 675 m 1
 80 540 l 5
 73 547 l 1
 233 687 l 1
 393 547 l 1
 386 540 l 1
 233 675 l 1
EndSplineSet
Substitution2: "'ss01' Style Set 1 in Latin lookup 1 subtable" acircumflex.alt
EndChar

StartChar: atilde
Encoding: 227 227 216
GlifName: atilde
Width: 435
VWidth: 0
Flags: HM
LayerCount: 2
Fore
SplineSet
50 135 m 0
 50 37 123 0 193 0 c 0
 283 0 355 74 355 160 c 1
 360 160 l 1
 360 71 295 -10 193 -10 c 0
 118 -10 40 31 40 135 c 0
 40 232 130 281 221 281 c 0
 299 281 337 253 358 235 c 1
 358 225 l 1
 334 247 289 271 221 271 c 0
 138 271 50 227 50 135 c 0
84 395 m 1
 77 403 l 1
 110 434 160 470 233 470 c 0
 323 470 365 409 365 320 c 2
 365 0 l 1
 355 0 l 1
 355 320 l 2
 355 406 316 460 233 460 c 0
 167 460 121 430 84 395 c 1
98 581 m 5
 98 610 115 639 160 639 c 4
 215 639 230 592 284 592 c 4
 313 592 325 608 340 640 c 5
 348 637 l 5
 332 600 312 584 282 584 c 4
 227 584 207 631 162 631 c 4
 121 631 106 605 106 580 c 5
 98 581 l 5
EndSplineSet
Substitution2: "'ss01' Style Set 1 in Latin lookup 1 subtable" atilde.alt
EndChar

StartChar: adieresis
Encoding: 228 228 217
GlifName: adieresis
Width: 435
VWidth: 0
Flags: HM
LayerCount: 2
Fore
SplineSet
50 135 m 0
 50 37 123 0 193 0 c 0
 283 0 355 74 355 160 c 1
 360 160 l 1
 360 71 295 -10 193 -10 c 0
 118 -10 40 31 40 135 c 0
 40 232 130 281 221 281 c 0
 299 281 337 253 358 235 c 1
 358 225 l 1
 334 247 289 271 221 271 c 0
 138 271 50 227 50 135 c 0
84 395 m 1
 77 403 l 1
 110 434 160 470 233 470 c 0
 323 470 365 409 365 320 c 2
 365 0 l 1
 355 0 l 1
 355 320 l 2
 355 406 316 460 233 460 c 0
 167 460 121 430 84 395 c 1
292 561 m 4
 292 568 297 572 303 572 c 4
 309 572 314 568 314 561 c 4
 314 554 309 550 303 550 c 4
 297 550 292 554 292 561 c 4
132 561 m 4
 132 568 137 572 143 572 c 4
 149 572 154 568 154 561 c 4
 154 554 149 550 143 550 c 4
 137 550 132 554 132 561 c 4
EndSplineSet
Substitution2: "'ss01' Style Set 1 in Latin lookup 1 subtable" adieresis.alt
EndChar

StartChar: aring
Encoding: 229 229 218
GlifName: aring
Width: 435
VWidth: 0
Flags: HMW
LayerCount: 2
Fore
SplineSet
50 135 m 4
 50 37 123 0 193 0 c 4
 283 0 355 74 355 160 c 5
 360 160 l 5
 360 71 295 -10 193 -10 c 4
 118 -10 40 31 40 135 c 4
 40 232 130 281 221 281 c 4
 299 281 337 253 358 235 c 5
 358 225 l 5
 334 247 289 271 221 271 c 4
 138 271 50 227 50 135 c 4
84 395 m 5
 77 403 l 5
 110 434 160 470 233 470 c 4
 323 470 365 409 365 320 c 6
 365 0 l 5
 355 0 l 5
 355 320 l 6
 355 406 316 460 233 460 c 4
 167 460 121 430 84 395 c 5
131 630 m 0
 131 690 181 730 233 730 c 0
 285 730 335 690 335 630 c 0
 335 570 285 530 233 530 c 0
 181 530 131 570 131 630 c 0
141 630 m 4
 141 577 185 540 233 540 c 4
 281 540 325 577 325 630 c 4
 325 683 281 720 233 720 c 4
 185 720 141 683 141 630 c 4
EndSplineSet
Substitution2: "'ss01' Style Set 1 in Latin lookup 1 subtable" aring.alt
EndChar

StartChar: germandbls
Encoding: 223 223 219
GlifName: germandbls
Width: 530
VWidth: 0
Flags: HMW
LayerCount: 2
Fore
SplineSet
80 606 m 1
 90 606 l 1
 90 0 l 1
 80 0 l 1
 80 606 l 1
232 445 m 1
 232 453 l 1
 342 453 435 490 435 606 c 4
 435 702 387 780 257 780 c 0
 157 780 90 702 90 606 c 1
 80 606 l 1
 80 715 152 790 257 790 c 0
 392 790 445 715 445 606 c 4
 445 507 387 445 232 445 c 1
252 0 m 5
 382 0 475 94 475 225 c 4
 475 378 342 443 232 443 c 5
 232 450 l 1
 387 450 485 354 485 225 c 4
 485 86 387 -10 252 -10 c 1
 252 0 l 5
EndSplineSet
EndChar

StartChar: ae
Encoding: 230 230 220
GlifName: ae
Width: 825
VWidth: 0
Flags: HMW
LayerCount: 2
Fore
SplineSet
50 132 m 0
 50 63 95 0 194 0 c 0
 282 0 355 81 355 167 c 1
 363 166 l 1
 363 77 293 -10 194 -10 c 0
 92 -10 40 54 40 132 c 0
 40 226 119 281 225 281 c 0
 303 281 344 248 358 235 c 1
 358 225 l 1
 340 243 293 271 225 271 c 0
 123 271 50 218 50 132 c 0
84 395 m 1
 77 403 l 1
 109 432 155 470 238 470 c 0
 323 470 362 404 362 330 c 2
 362 159 l 1
 355 159 l 1
 355 320 l 2
 355 393 325 460 235 460 c 0
 159 460 114 423 84 395 c 1
362 228 m 1
 362 238 l 1
 779 238 l 1
 785 228 l 1
 362 228 l 1
776 250 m 2
 776 384 669 460 579 460 c 0
 449 460 365 357 365 235 c 1
 365 235 l 1
 365 99 453 0 563 0 c 0
 680 0 731 52 771 113 c 1
 779 107 l 1
 733 37 682 -10 563 -10 c 0
 448 -10 355 91 355 230 c 0
 355 247 358 263 361 279 c 4
 380 392 458 470 583 470 c 0
 663 470 787 398 787 253 c 0
 787 245 786 236 785 228 c 1
 776 230 l 1
 776 250 l 2
EndSplineSet
EndChar

StartChar: ccedilla
Encoding: 231 231 221
GlifName: ccedilla
Width: 488
VWidth: 0
Flags: HM
LayerCount: 2
Fore
SplineSet
50 230 m 4
 50 96 148 0 273 0 c 4
 347 0 407 37 428 61 c 5
 428 48 l 5
 406 23 346 -10 273 -10 c 4
 141 -10 40 91 40 230 c 4
 40 369 141 470 273 470 c 4
 346 470 406 436 428 412 c 5
 428 399 l 5
 407 423 347 460 273 460 c 4
 148 460 50 364 50 230 c 4
267 -3 m 5
 279 -3 l 5
 223 -79 l 1
 212 -91 l 1
 267 -3 l 5
366 -129 m 1
 356 -129 l 1
 356 -85 322 -65 293 -65 c 0
 263 -65 235 -75 212 -91 c 1
 223 -79 l 1
 249 -63 260 -55 293 -55 c 0
 326 -55 366 -80 366 -129 c 1
366 -129 m 1
 366 -190 314 -223 259 -223 c 0
 222 -223 198 -213 170 -185 c 1
 177 -179 l 1
 205 -203 226 -213 259 -213 c 0
 306 -213 356 -185 356 -129 c 1
 366 -129 l 1
EndSplineSet
EndChar

StartChar: egrave
Encoding: 232 232 222
GlifName: egrave
Width: 522
VWidth: 0
Flags: HMW
LayerCount: 2
Fore
SplineSet
52 228 m 5
 52 238 l 5
 471 238 l 5
 475 228 l 5
 52 228 l 5
466 253 m 6
 466 372 370 460 265 460 c 4
 157 460 55 375 55 232 c 5
 55 232 l 5
 55 100 141 0 260 0 c 4
 378 0 431 64 461 113 c 5
 469 107 l 5
 439 59 385 -10 260 -10 c 4
 135 -10 45 93 45 232 c 4
 45 259 48 284 55 308 c 4
 82 403 162 470 265 470 c 4
 375 470 477 379 477 254 c 4
 477 246 476 236 475 228 c 5
 466 230 l 5
 466 253 l 6
130 687 m 5
 138 695 l 5
 308 535 l 5
 302 530 l 5
 130 687 l 5
EndSplineSet
EndChar

StartChar: eacute
Encoding: 233 233 223
GlifName: eacute
Width: 522
VWidth: 0
Flags: HMW
LayerCount: 2
Fore
SplineSet
52 228 m 5
 52 238 l 5
 471 238 l 5
 475 228 l 5
 52 228 l 5
466 253 m 6
 466 372 370 460 265 460 c 4
 157 460 55 375 55 232 c 5
 55 232 l 5
 55 100 141 0 260 0 c 4
 378 0 431 64 461 113 c 5
 469 107 l 5
 439 59 385 -10 260 -10 c 4
 135 -10 45 93 45 232 c 4
 45 259 48 284 55 308 c 4
 82 403 162 470 265 470 c 4
 375 470 477 379 477 254 c 4
 477 246 476 236 475 228 c 5
 466 230 l 5
 466 253 l 6
400 687 m 5
 228 530 l 5
 222 535 l 5
 392 695 l 5
 400 687 l 5
EndSplineSet
EndChar

StartChar: ecircumflex
Encoding: 234 234 224
GlifName: ecircumflex
Width: 522
VWidth: 0
Flags: HMW
LayerCount: 2
Fore
SplineSet
52 228 m 5
 52 238 l 5
 471 238 l 5
 475 228 l 5
 52 228 l 5
466 253 m 6
 466 372 370 460 265 460 c 4
 157 460 55 375 55 232 c 5
 55 232 l 5
 55 100 141 0 260 0 c 4
 378 0 431 64 461 113 c 5
 469 107 l 5
 439 59 385 -10 260 -10 c 4
 135 -10 45 93 45 232 c 4
 45 259 48 284 55 308 c 4
 82 403 162 470 265 470 c 4
 375 470 477 379 477 254 c 4
 477 246 476 236 475 228 c 5
 466 230 l 5
 466 253 l 6
265 685 m 1
 112 550 l 5
 105 557 l 1
 265 697 l 1
 425 557 l 1
 418 550 l 1
 265 685 l 1
EndSplineSet
EndChar

StartChar: edieresis
Encoding: 235 235 225
GlifName: edieresis
Width: 522
VWidth: 0
Flags: HMW
LayerCount: 2
Fore
SplineSet
52 228 m 5
 52 238 l 5
 471 238 l 5
 475 228 l 5
 52 228 l 5
466 253 m 6
 466 372 370 460 265 460 c 4
 157 460 55 375 55 232 c 5
 55 232 l 5
 55 100 141 0 260 0 c 4
 378 0 431 64 461 113 c 5
 469 107 l 5
 439 59 385 -10 260 -10 c 4
 135 -10 45 93 45 232 c 4
 45 259 48 284 55 308 c 4
 82 403 162 470 265 470 c 4
 375 470 477 379 477 254 c 4
 477 246 476 236 475 228 c 5
 466 230 l 5
 466 253 l 6
354 561 m 0
 354 568 359 572 365 572 c 0
 371 572 376 568 376 561 c 0
 376 554 371 550 365 550 c 0
 359 550 354 554 354 561 c 0
154 561 m 0
 154 568 159 572 165 572 c 0
 171 572 176 568 176 561 c 0
 176 554 171 550 165 550 c 0
 159 550 154 554 154 561 c 0
EndSplineSet
EndChar

StartChar: igrave
Encoding: 236 236 226
GlifName: igrave
Width: 190
VWidth: 0
Flags: HM
LayerCount: 2
Fore
SplineSet
90 460 m 1
 100 460 l 1
 100 0 l 1
 90 0 l 1
 90 460 l 1
-60 687 m 5
 -52 695 l 5
 118 535 l 5
 112 530 l 5
 -60 687 l 5
EndSplineSet
EndChar

StartChar: dotlessi
Encoding: 305 305 227
GlifName: dotlessi
Width: 190
VWidth: 0
Flags: HMW
LayerCount: 2
Fore
SplineSet
90 460 m 1
 100 460 l 1
 100 0 l 1
 90 0 l 1
 90 460 l 1
EndSplineSet
EndChar

StartChar: kgreenlandic
Encoding: 312 312 228
GlifName: kgreenlandic
Width: 372
VWidth: 0
Flags: HMW
LayerCount: 2
Fore
SplineSet
80 460 m 5
 90 460 l 5
 90 0 l 1
 80 0 l 1
 80 460 l 5
328 460 m 1
 344 460 l 1
 102 270 l 1
 362 0 l 1
 348 0 l 1
 88 270 l 1
 328 460 l 1
EndSplineSet
EndChar

StartChar: iacute
Encoding: 237 237 229
GlifName: iacute
Width: 190
VWidth: 0
Flags: HM
LayerCount: 2
Fore
SplineSet
90 460 m 1
 100 460 l 1
 100 0 l 1
 90 0 l 1
 90 460 l 1
250 687 m 5
 78 530 l 5
 72 535 l 5
 242 695 l 5
 250 687 l 5
EndSplineSet
EndChar

StartChar: icircumflex
Encoding: 238 238 230
GlifName: icircumflex
Width: 190
VWidth: 0
Flags: HM
LayerCount: 2
Fore
SplineSet
90 460 m 1
 100 460 l 1
 100 0 l 1
 90 0 l 1
 90 460 l 1
95 665 m 1
 -58 530 l 5
 -65 537 l 1
 95 677 l 1
 255 537 l 1
 248 530 l 1
 95 665 l 1
EndSplineSet
EndChar

StartChar: idieresis
Encoding: 239 239 231
GlifName: idieresis
Width: 190
VWidth: 0
Flags: HM
LayerCount: 2
Fore
SplineSet
90 460 m 1
 100 460 l 1
 100 0 l 1
 90 0 l 1
 90 460 l 1
164 541 m 0
 164 548 169 552 175 552 c 0
 181 552 186 548 186 541 c 0
 186 534 181 530 175 530 c 0
 169 530 164 534 164 541 c 0
4 541 m 4
 4 548 9 552 15 552 c 4
 21 552 26 548 26 541 c 4
 26 534 21 530 15 530 c 4
 9 530 4 534 4 541 c 4
EndSplineSet
EndChar

StartChar: ntilde
Encoding: 241 241 232
GlifName: ntilde
Width: 475
VWidth: 0
Flags: HM
LayerCount: 2
Fore
SplineSet
95 460 m 1
 95 0 l 1
 85 0 l 1
 85 460 l 1
 95 460 l 1
380 320 m 6
 380 401 347 460 257 460 c 0
 166 460 95 375 95 280 c 1
 90 280 l 1
 90 389 162 470 257 470 c 0
 352 470 390 409 390 320 c 6
 390 0 l 1
 380 0 l 1
 380 320 l 6
112 551 m 5
 112 580 129 609 174 609 c 4
 229 609 244 562 298 562 c 0
 327 562 339 578 354 610 c 1
 363 607 l 1
 347 570 327 554 297 554 c 0
 242 554 221 601 176 601 c 0
 135 601 121 575 121 550 c 5
 112 551 l 5
EndSplineSet
EndChar

StartChar: ograve
Encoding: 242 242 233
GlifName: ograve
Width: 556
VWidth: 0
Flags: HM
LayerCount: 2
Fore
SplineSet
45 230 m 0
 45 369 146 470 278 470 c 0
 410 470 511 369 511 230 c 0
 511 91 410 -10 278 -10 c 0
 146 -10 45 91 45 230 c 0
55 230 m 0
 55 96 153 0 278 0 c 0
 403 0 501 96 501 230 c 0
 501 364 403 460 278 460 c 0
 153 460 55 364 55 230 c 0
142 687 m 5
 150 695 l 5
 320 535 l 5
 316 530 l 5
 142 687 l 5
EndSplineSet
EndChar

StartChar: oacute
Encoding: 243 243 234
GlifName: oacute
Width: 556
VWidth: 0
Flags: HM
LayerCount: 2
Fore
SplineSet
45 230 m 0
 45 369 146 470 278 470 c 0
 410 470 511 369 511 230 c 0
 511 91 410 -10 278 -10 c 0
 146 -10 45 91 45 230 c 0
55 230 m 0
 55 96 153 0 278 0 c 0
 403 0 501 96 501 230 c 0
 501 364 403 460 278 460 c 0
 153 460 55 364 55 230 c 0
414 687 m 5
 240 530 l 5
 236 535 l 5
 406 695 l 5
 414 687 l 5
EndSplineSet
EndChar

StartChar: ocircumflex
Encoding: 244 244 235
GlifName: ocircumflex
Width: 556
VWidth: 0
Flags: HM
LayerCount: 2
Fore
SplineSet
45 230 m 0
 45 369 146 470 278 470 c 0
 410 470 511 369 511 230 c 0
 511 91 410 -10 278 -10 c 0
 146 -10 45 91 45 230 c 0
55 230 m 0
 55 96 153 0 278 0 c 0
 403 0 501 96 501 230 c 0
 501 364 403 460 278 460 c 0
 153 460 55 364 55 230 c 0
278 685 m 1
 125 550 l 5
 118 557 l 1
 278 697 l 1
 438 557 l 1
 431 550 l 1
 278 685 l 1
EndSplineSet
EndChar

StartChar: otilde
Encoding: 245 245 236
GlifName: otilde
Width: 556
VWidth: 0
Flags: HM
LayerCount: 2
Fore
SplineSet
45 230 m 0
 45 369 146 470 278 470 c 0
 410 470 511 369 511 230 c 0
 511 91 410 -10 278 -10 c 0
 146 -10 45 91 45 230 c 0
55 230 m 0
 55 96 153 0 278 0 c 0
 403 0 501 96 501 230 c 0
 501 364 403 460 278 460 c 0
 153 460 55 364 55 230 c 0
152 551 m 5
 152 580 169 609 214 609 c 4
 269 609 284 562 338 562 c 0
 367 562 379 578 394 610 c 1
 404 607 l 1
 388 570 368 554 338 554 c 0
 283 554 261 601 216 601 c 0
 175 601 162 575 162 550 c 5
 152 551 l 5
EndSplineSet
EndChar

StartChar: odieresis
Encoding: 246 246 237
GlifName: odieresis
Width: 556
VWidth: 0
Flags: HM
LayerCount: 2
Fore
SplineSet
45 230 m 0
 45 369 146 470 278 470 c 0
 410 470 511 369 511 230 c 0
 511 91 410 -10 278 -10 c 0
 146 -10 45 91 45 230 c 0
55 230 m 0
 55 96 153 0 278 0 c 0
 403 0 501 96 501 230 c 0
 501 364 403 460 278 460 c 0
 153 460 55 364 55 230 c 0
367 561 m 0
 367 568 372 572 378 572 c 0
 384 572 389 568 389 561 c 0
 389 554 384 550 378 550 c 0
 372 550 367 554 367 561 c 0
167 561 m 0
 167 568 172 572 178 572 c 0
 184 572 189 568 189 561 c 0
 189 554 184 550 178 550 c 0
 172 550 167 554 167 561 c 0
EndSplineSet
EndChar

StartChar: ugrave
Encoding: 249 249 238
GlifName: ugrave
Width: 475
VWidth: 0
Flags: HM
LayerCount: 2
Fore
SplineSet
380 0 m 1
 380 460 l 1
 390 460 l 1
 390 0 l 1
 380 0 l 1
95 150 m 2
 95 59 128 0 218 0 c 0
 309 0 380 85 380 180 c 1
 385 180 l 1
 385 71 313 -10 218 -10 c 0
 123 -10 85 51 85 150 c 2
 85 460 l 1
 95 460 l 1
 95 150 l 2
82 697 m 5
 90 705 l 5
 260 545 l 5
 255 540 l 5
 82 697 l 5
EndSplineSet
EndChar

StartChar: uacute
Encoding: 250 250 239
GlifName: uacute
Width: 475
VWidth: 0
Flags: HM
LayerCount: 2
Fore
SplineSet
380 0 m 1
 380 460 l 1
 390 460 l 1
 390 0 l 1
 380 0 l 1
95 150 m 2
 95 59 128 0 218 0 c 0
 309 0 380 85 380 180 c 1
 385 180 l 1
 385 71 313 -10 218 -10 c 0
 123 -10 85 51 85 150 c 2
 85 460 l 1
 95 460 l 1
 95 150 l 2
393 697 m 5
 220 540 l 5
 215 545 l 5
 385 705 l 5
 393 697 l 5
EndSplineSet
EndChar

StartChar: ucircumflex
Encoding: 251 251 240
GlifName: ucircumflex
Width: 475
VWidth: 0
Flags: HM
LayerCount: 2
Fore
SplineSet
380 0 m 1
 380 460 l 1
 390 460 l 1
 390 0 l 1
 380 0 l 1
95 150 m 2
 95 59 128 0 218 0 c 0
 309 0 380 85 380 180 c 1
 385 180 l 1
 385 71 313 -10 218 -10 c 0
 123 -10 85 51 85 150 c 2
 85 460 l 1
 95 460 l 1
 95 150 l 2
238 675 m 5
 84 540 l 5
 78 547 l 5
 238 687 l 5
 398 547 l 5
 390 540 l 5
 238 675 l 5
EndSplineSet
EndChar

StartChar: udieresis
Encoding: 252 252 241
GlifName: udieresis
Width: 475
VWidth: 0
Flags: HM
LayerCount: 2
Fore
SplineSet
380 0 m 1
 380 460 l 1
 390 460 l 1
 390 0 l 1
 380 0 l 1
95 150 m 2
 95 59 128 0 218 0 c 0
 309 0 380 85 380 180 c 1
 385 180 l 1
 385 71 313 -10 218 -10 c 0
 123 -10 85 51 85 150 c 2
 85 460 l 1
 95 460 l 1
 95 150 l 2
306 561 m 4
 306 568 312 572 318 572 c 4
 324 572 328 568 328 561 c 4
 328 554 324 550 318 550 c 4
 312 550 306 554 306 561 c 4
146 561 m 4
 146 568 152 572 158 572 c 4
 164 572 168 568 168 561 c 4
 168 554 164 550 158 550 c 4
 152 550 146 554 146 561 c 4
EndSplineSet
EndChar

StartChar: yacute
Encoding: 253 253 242
GlifName: yacute
Width: 425
VWidth: 0
Flags: HMW
LayerCount: 2
Fore
SplineSet
415 460 m 1
 115 -220 l 1
 104 -220 l 1
 210 20 l 1
 10 460 l 1
 22 460 l 1
 221 20 l 1
 210 20 l 1
 404 460 l 1
 415 460 l 1
368 687 m 5
 195 530 l 5
 190 535 l 5
 360 695 l 5
 368 687 l 5
EndSplineSet
EndChar

StartChar: thorn
Encoding: 254 254 243
GlifName: thorn
Width: 541
VWidth: 0
Flags: HMW
LayerCount: 2
Fore
SplineSet
90 -220 m 5
 80 -220 l 1
 80 780 l 1
 90 780 l 5
 90 -220 l 5
496 230 m 0
 496 83 403 -10 283 -10 c 0
 160 -10 85 111 85 230 c 0
 85 349 160 470 283 470 c 0
 403 470 496 377 496 230 c 0
486 230 m 0
 486 371 396 460 280 460 c 0
 171 460 90 346 90 230 c 0
 90 114 171 0 280 0 c 0
 396 0 486 89 486 230 c 0
EndSplineSet
EndChar

StartChar: ydieresis
Encoding: 255 255 244
GlifName: ydieresis
Width: 425
VWidth: 0
Flags: HMW
LayerCount: 2
Fore
SplineSet
415 460 m 1
 115 -220 l 1
 104 -220 l 1
 210 20 l 1
 10 460 l 1
 22 460 l 1
 221 20 l 1
 210 20 l 1
 404 460 l 1
 415 460 l 1
282 561 m 0
 282 568 286 572 292 572 c 0
 298 572 304 568 304 561 c 0
 304 554 298 550 292 550 c 0
 286 550 282 554 282 561 c 0
122 561 m 4
 122 568 126 572 132 572 c 4
 138 572 144 568 144 561 c 4
 144 554 138 550 132 550 c 4
 126 550 122 554 122 561 c 4
EndSplineSet
EndChar

StartChar: Amacron
Encoding: 256 256 245
GlifName: A_macron
Width: 600
VWidth: 0
Flags: HM
LayerCount: 2
Fore
SplineSet
127 272 m 1
 127 282 l 1
 472 282 l 1
 472 272 l 1
 127 272 l 1
300 688 m 5
 136 277 l 1
 135 273 l 1
 27 0 l 1
 15 0 l 1
 300 715 l 5
 585 0 l 1
 573 0 l 1
 466 273 l 1
 465 276 l 1
 300 688 l 5
125 795 m 5
 125 805 l 1
 475 805 l 1
 475 795 l 5
 125 795 l 5
EndSplineSet
EndChar

StartChar: amacron
Encoding: 257 257 246
GlifName: amacron
Width: 435
VWidth: 0
Flags: HM
LayerCount: 2
Fore
SplineSet
50 135 m 4
 50 37 123 0 193 0 c 4
 283 0 355 74 355 160 c 5
 360 160 l 5
 360 71 295 -10 193 -10 c 4
 118 -10 40 31 40 135 c 4
 40 232 130 281 221 281 c 4
 299 281 337 253 358 235 c 5
 358 225 l 5
 334 247 289 271 221 271 c 4
 138 271 50 227 50 135 c 4
84 395 m 5
 77 403 l 5
 110 434 160 470 233 470 c 4
 323 470 365 409 365 320 c 6
 365 0 l 5
 355 0 l 5
 355 320 l 6
 355 406 316 460 233 460 c 4
 167 460 121 430 84 395 c 5
58 550 m 5
 58 560 l 1
 408 560 l 1
 408 550 l 5
 58 550 l 5
EndSplineSet
Substitution2: "'ss01' Style Set 1 in Latin lookup 1 subtable" amacron.alt
EndChar

StartChar: breve
Encoding: 728 728 247
GlifName: breve
Width: 546
VWidth: 0
Flags: HMW
LayerCount: 2
Fore
SplineSet
115 850 m 1
 125 850 l 1
 125 784 181 720 273 720 c 4
 365 720 421 784 421 850 c 1
 431 850 l 1
 431 781 378 710 273 710 c 0
 168 710 115 781 115 850 c 1
EndSplineSet
EndChar

StartChar: Abreve
Encoding: 258 258 248
GlifName: A_breve
Width: 600
VWidth: 0
Flags: HM
LayerCount: 2
Fore
SplineSet
127 272 m 1
 127 282 l 1
 472 282 l 1
 472 272 l 1
 127 272 l 1
300 688 m 5
 136 277 l 1
 135 273 l 1
 27 0 l 1
 15 0 l 1
 300 715 l 5
 585 0 l 1
 573 0 l 1
 466 273 l 1
 465 276 l 1
 300 688 l 5
142 925 m 1
 152 925 l 1
 152 859 208 795 300 795 c 4
 392 795 448 859 448 925 c 1
 458 925 l 1
 458 856 405 785 300 785 c 0
 195 785 142 856 142 925 c 1
EndSplineSet
EndChar

StartChar: abreve
Encoding: 259 259 249
GlifName: abreve
Width: 435
VWidth: 0
Flags: HM
LayerCount: 2
Fore
SplineSet
50 135 m 4
 50 37 123 0 193 0 c 4
 283 0 355 74 355 160 c 5
 360 160 l 5
 360 71 295 -10 193 -10 c 4
 118 -10 40 31 40 135 c 4
 40 232 130 281 221 281 c 4
 299 281 337 253 358 235 c 5
 358 225 l 5
 334 247 289 271 221 271 c 4
 138 271 50 227 50 135 c 4
84 395 m 5
 77 403 l 5
 110 434 160 470 233 470 c 4
 323 470 365 409 365 320 c 6
 365 0 l 5
 355 0 l 5
 355 320 l 6
 355 406 316 460 233 460 c 4
 167 460 121 430 84 395 c 5
65 680 m 1
 75 680 l 1
 75 614 131 550 223 550 c 4
 315 550 371 614 371 680 c 1
 381 680 l 1
 381 611 328 540 223 540 c 0
 118 540 65 611 65 680 c 1
EndSplineSet
Substitution2: "'ss01' Style Set 1 in Latin lookup 1 subtable" abreve.alt
EndChar

StartChar: Aogonek
Encoding: 260 260 250
GlifName: A_ogonek
Width: 600
VWidth: 0
Flags: HM
LayerCount: 2
Fore
SplineSet
127 272 m 1
 127 282 l 1
 472 282 l 1
 472 272 l 1
 127 272 l 1
300 688 m 5
 136 277 l 1
 135 273 l 1
 27 0 l 1
 15 0 l 1
 300 715 l 5
 585 0 l 1
 573 0 l 1
 466 273 l 1
 465 276 l 1
 300 688 l 5
619 -173 m 1
 626 -180 l 1
 611 -200 571 -220 528 -220 c 4
 464 -220 425 -189 425 -140 c 1
 435 -140 l 1
 435 -186 478 -210 528 -210 c 4
 568 -210 604 -191 619 -173 c 1
435 -140 m 1
 425 -140 l 1
 425 -71 508 -26 578 10 c 1
 585 -0 l 1
 517 -32 435 -83 435 -140 c 1
EndSplineSet
EndChar

StartChar: aogonek
Encoding: 261 261 251
GlifName: aogonek
Width: 435
VWidth: 0
Flags: HM
LayerCount: 2
Fore
SplineSet
50 135 m 4
 50 37 123 0 193 0 c 4
 283 0 355 74 355 160 c 5
 360 160 l 5
 360 71 295 -10 193 -10 c 4
 118 -10 40 31 40 135 c 4
 40 232 130 281 221 281 c 4
 299 281 337 253 358 235 c 5
 358 225 l 5
 334 247 289 271 221 271 c 4
 138 271 50 227 50 135 c 4
84 395 m 5
 77 403 l 5
 110 434 160 470 233 470 c 4
 323 470 365 409 365 320 c 6
 365 0 l 5
 355 0 l 5
 355 320 l 6
 355 406 316 460 233 460 c 4
 167 460 121 430 84 395 c 5
399 -173 m 1
 406 -180 l 1
 391 -200 351 -220 308 -220 c 4
 244 -220 205 -189 205 -140 c 1
 215 -140 l 1
 215 -186 258 -210 308 -210 c 4
 348 -210 384 -191 399 -173 c 1
215 -140 m 1
 205 -140 l 1
 205 -71 288 -26 358 10 c 1
 365 -0 l 1
 297 -32 215 -83 215 -140 c 1
EndSplineSet
Substitution2: "'ss01' Style Set 1 in Latin lookup 1 subtable" aogonek.alt
EndChar

StartChar: Cacute
Encoding: 262 262 252
GlifName: C_acute
Width: 685
VWidth: 0
Flags: HM
LayerCount: 2
Fore
SplineSet
62 350 m 4
 62 150 193 4 380 4 c 4
 479 4 547 31 605 88 c 5
 605 72 l 1
 546 20 482 -8 380 -8 c 0
 186 -8 50 141 50 350 c 0
 50 559 186 708 380 708 c 0
 482 708 546 680 605 628 c 1
 605 613 l 5
 549 669 474 696 380 696 c 0
 194 696 62 553 62 350 c 4
516 925 m 5
 342 768 l 5
 338 773 l 5
 508 933 l 5
 516 925 l 5
EndSplineSet
EndChar

StartChar: cacute
Encoding: 263 263 253
GlifName: cacute
Width: 488
VWidth: 0
Flags: HM
LayerCount: 2
Fore
SplineSet
50 230 m 4
 50 96 148 0 273 0 c 4
 347 0 407 37 428 61 c 5
 428 48 l 5
 406 23 346 -10 273 -10 c 4
 141 -10 40 91 40 230 c 4
 40 369 141 470 273 470 c 4
 346 470 406 436 428 412 c 5
 428 399 l 5
 407 423 347 460 273 460 c 4
 148 460 50 364 50 230 c 4
418 697 m 5
 246 540 l 5
 240 545 l 5
 410 705 l 5
 418 697 l 5
EndSplineSet
EndChar

StartChar: Ccircumflex
Encoding: 264 264 254
GlifName: C_circumflex
Width: 685
VWidth: 0
Flags: HM
LayerCount: 2
Fore
SplineSet
62 350 m 4
 62 150 193 4 380 4 c 4
 479 4 547 31 605 88 c 5
 605 72 l 1
 546 20 482 -8 380 -8 c 0
 186 -8 50 141 50 350 c 0
 50 559 186 708 380 708 c 0
 482 708 546 680 605 628 c 1
 605 613 l 5
 549 669 474 696 380 696 c 0
 194 696 62 553 62 350 c 4
380 903 m 1
 227 768 l 5
 220 775 l 1
 380 915 l 1
 540 775 l 1
 533 768 l 1
 380 903 l 1
EndSplineSet
EndChar

StartChar: ccircumflex
Encoding: 265 265 255
GlifName: ccircumflex
Width: 488
VWidth: 0
Flags: HM
LayerCount: 2
Fore
SplineSet
50 230 m 4
 50 96 148 0 273 0 c 4
 347 0 407 37 428 61 c 5
 428 48 l 5
 406 23 346 -10 273 -10 c 4
 141 -10 40 91 40 230 c 4
 40 369 141 470 273 470 c 4
 346 470 406 436 428 412 c 5
 428 399 l 5
 407 423 347 460 273 460 c 4
 148 460 50 364 50 230 c 4
273 665 m 1
 120 530 l 5
 113 537 l 1
 273 677 l 1
 433 537 l 1
 426 530 l 1
 273 665 l 1
EndSplineSet
EndChar

StartChar: Cdotaccent
Encoding: 266 266 256
GlifName: C_dotaccent
Width: 685
VWidth: 0
Flags: HM
LayerCount: 2
Fore
SplineSet
62 350 m 4
 62 150 193 4 380 4 c 4
 479 4 547 31 605 88 c 5
 605 72 l 1
 546 20 482 -8 380 -8 c 0
 186 -8 50 141 50 350 c 0
 50 559 186 708 380 708 c 0
 482 708 546 680 605 628 c 1
 605 613 l 5
 549 669 474 696 380 696 c 0
 194 696 62 553 62 350 c 4
369 789 m 4
 369 796 374 800 380 800 c 4
 386 800 391 796 391 789 c 4
 391 782 386 778 380 778 c 4
 374 778 369 782 369 789 c 4
EndSplineSet
EndChar

StartChar: cdotaccent
Encoding: 267 267 257
GlifName: cdotaccent
Width: 488
VWidth: 0
Flags: HM
LayerCount: 2
Fore
SplineSet
50 230 m 4
 50 96 148 0 273 0 c 4
 347 0 407 37 428 61 c 5
 428 48 l 5
 406 23 346 -10 273 -10 c 4
 141 -10 40 91 40 230 c 4
 40 369 141 470 273 470 c 4
 346 470 406 436 428 412 c 5
 428 399 l 5
 407 423 347 460 273 460 c 4
 148 460 50 364 50 230 c 4
262 551 m 4
 262 558 267 562 273 562 c 4
 279 562 284 558 284 551 c 4
 284 544 279 540 273 540 c 4
 267 540 262 544 262 551 c 4
EndSplineSet
EndChar

StartChar: Ccaron
Encoding: 268 268 258
GlifName: C_caron
Width: 685
VWidth: 0
Flags: HM
LayerCount: 2
Fore
SplineSet
62 350 m 4
 62 150 193 4 380 4 c 4
 479 4 547 31 605 88 c 5
 605 72 l 1
 546 20 482 -8 380 -8 c 0
 186 -8 50 141 50 350 c 0
 50 559 186 708 380 708 c 0
 482 708 546 680 605 628 c 1
 605 613 l 5
 549 669 474 696 380 696 c 0
 194 696 62 553 62 350 c 4
380 790 m 5
 532 926 l 1
 540 918 l 1
 380 778 l 1
 220 918 l 1
 228 926 l 1
 380 790 l 5
EndSplineSet
EndChar

StartChar: ccaron
Encoding: 269 269 259
GlifName: ccaron
Width: 488
VWidth: 0
Flags: HM
LayerCount: 2
Fore
SplineSet
50 230 m 4
 50 96 148 0 273 0 c 4
 347 0 407 37 428 61 c 5
 428 48 l 5
 406 23 346 -10 273 -10 c 4
 141 -10 40 91 40 230 c 4
 40 369 141 470 273 470 c 4
 346 470 406 436 428 412 c 5
 428 399 l 5
 407 423 347 460 273 460 c 4
 148 460 50 364 50 230 c 4
273 562 m 5
 425 698 l 1
 433 690 l 1
 273 550 l 1
 113 690 l 1
 121 698 l 1
 273 562 l 5
EndSplineSet
EndChar

StartChar: Dcaron
Encoding: 270 270 260
GlifName: D_caron
Width: 635
VWidth: 0
Flags: HM
LayerCount: 2
Fore
SplineSet
95 689 m 5
 95 700 l 5
 250 700 l 6
 454 700 585 559 585 350 c 5
 574 350 l 5
 574 553 450 689 250 689 c 6
 95 689 l 5
250 0 m 6
 95 0 l 5
 95 11 l 5
 250 11 l 6
 450 11 574 146 574 350 c 5
 585 350 l 5
 585 141 454 0 250 0 c 6
90 700 m 5
 101 700 l 5
 101 0 l 5
 90 0 l 5
 90 700 l 5
248 790 m 5
 400 926 l 1
 408 918 l 1
 248 778 l 1
 88 918 l 1
 96 926 l 1
 248 790 l 5
EndSplineSet
EndChar

StartChar: dcaron
Encoding: 271 271 261
GlifName: dcaron
Width: 570
VWidth: 0
Flags: HMW
LayerCount: 2
Fore
SplineSet
451 780 m 1
 461 780 l 1
 461 0 l 1
 451 0 l 1
 451 780 l 1
45 230 m 4
 45 377 138 470 258 470 c 4
 381 470 456 349 456 230 c 4
 456 111 381 -10 258 -10 c 4
 138 -10 45 83 45 230 c 4
55 230 m 4
 55 89 145 0 261 0 c 4
 370 0 451 114 451 230 c 4
 451 346 370 460 261 460 c 4
 145 460 55 371 55 230 c 4
655 764 m 5
 666 759 l 1
 556 509 l 1
 550 511 l 1
 655 764 l 5
EndSplineSet
EndChar

StartChar: Dcroat
Encoding: 272 272 262
GlifName: D_croat
Width: 680
VWidth: 0
Flags: HMW
LayerCount: 2
Fore
SplineSet
95 689 m 1
 95 700 l 1
 250 700 l 2
 454 700 585 559 585 350 c 1
 574 350 l 1
 574 553 448 689 250 689 c 2
 95 689 l 1
250 0 m 2
 95 0 l 1
 95 11 l 1
 250 11 l 2
 448 11 574 147 574 350 c 1
 585 350 l 1
 585 141 454 0 250 0 c 2
90 700 m 1
 101 700 l 1
 101 0 l 1
 90 0 l 1
 90 700 l 1
5 345 m 5
 5 355 l 5
 305 355 l 5
 305 345 l 5
 5 345 l 5
EndSplineSet
EndChar

StartChar: dcroat
Encoding: 273 273 263
GlifName: dcroat
Width: 541
VWidth: 0
Flags: HMW
LayerCount: 2
Fore
SplineSet
295 655 m 1
 295 665 l 1
 595 665 l 1
 595 655 l 1
 295 655 l 1
451 780 m 1
 461 780 l 1
 461 0 l 1
 451 0 l 1
 451 780 l 1
45 230 m 0
 45 379 138 470 258 470 c 0
 373 470 456 359 456 230 c 0
 456 101 373 -10 258 -10 c 0
 138 -10 45 81 45 230 c 0
55 230 m 0
 55 89 146 0 261 0 c 0
 376 0 451 124 451 230 c 0
 451 336 376 460 261 460 c 0
 146 460 55 371 55 230 c 0
EndSplineSet
EndChar

StartChar: Emacron
Encoding: 274 274 264
GlifName: E_macron
Width: 510
VWidth: 0
Flags: HMW
LayerCount: 2
Fore
SplineSet
92 0 m 1
 92 10 l 1
 430 10 l 1
 430 0 l 1
 92 0 l 1
92 690 m 1
 92 700 l 1
 430 700 l 1
 430 690 l 1
 92 690 l 1
92 384 m 1
 92 394 l 1
 410 394 l 5
 410 384 l 1
 92 384 l 1
90 700 m 1
 101 700 l 1
 101 0 l 1
 90 0 l 1
 90 700 l 1
105 835 m 5
 105 845 l 1
 455 845 l 1
 455 835 l 5
 105 835 l 5
EndSplineSet
EndChar

StartChar: emacron
Encoding: 275 275 265
GlifName: emacron
Width: 522
VWidth: 0
Flags: HMW
LayerCount: 2
Fore
SplineSet
52 228 m 5
 52 238 l 5
 471 238 l 5
 475 228 l 5
 52 228 l 5
466 253 m 6
 466 372 370 460 265 460 c 4
 157 460 55 375 55 232 c 5
 55 232 l 5
 55 100 141 0 260 0 c 4
 378 0 431 64 461 113 c 5
 469 107 l 5
 439 59 385 -10 260 -10 c 4
 135 -10 45 93 45 232 c 4
 45 259 48 284 55 308 c 4
 82 403 162 470 265 470 c 4
 375 470 477 379 477 254 c 4
 477 246 476 236 475 228 c 5
 466 230 l 5
 466 253 l 6
88 595 m 5
 88 605 l 1
 438 605 l 1
 438 595 l 5
 88 595 l 5
EndSplineSet
EndChar

StartChar: Ebreve
Encoding: 276 276 266
GlifName: E_breve
Width: 510
VWidth: 0
Flags: HM
LayerCount: 2
Fore
SplineSet
92 0 m 1
 92 10 l 1
 430 10 l 1
 430 0 l 1
 92 0 l 1
92 690 m 1
 92 700 l 1
 430 700 l 1
 430 690 l 1
 92 690 l 1
92 384 m 1
 92 394 l 1
 410 394 l 5
 410 384 l 1
 92 384 l 1
90 700 m 1
 101 700 l 1
 101 0 l 1
 90 0 l 1
 90 700 l 1
112 908 m 1
 122 908 l 1
 122 842 178 778 270 778 c 4
 362 778 418 842 418 908 c 1
 428 908 l 1
 428 839 375 768 270 768 c 0
 165 768 112 839 112 908 c 1
EndSplineSet
EndChar

StartChar: ebreve
Encoding: 277 277 267
GlifName: ebreve
Width: 522
VWidth: 0
Flags: HMW
LayerCount: 2
Fore
SplineSet
52 228 m 5
 52 238 l 5
 471 238 l 5
 475 228 l 5
 52 228 l 5
466 253 m 6
 466 372 370 460 265 460 c 4
 157 460 55 375 55 232 c 5
 55 232 l 5
 55 100 141 0 260 0 c 4
 378 0 431 64 461 113 c 5
 469 107 l 5
 439 59 385 -10 260 -10 c 4
 135 -10 45 93 45 232 c 4
 45 259 48 284 55 308 c 4
 82 403 162 470 265 470 c 4
 375 470 477 379 477 254 c 4
 477 246 476 236 475 228 c 5
 466 230 l 5
 466 253 l 6
107 690 m 1
 117 690 l 1
 117 624 173 560 265 560 c 4
 357 560 413 624 413 690 c 1
 423 690 l 1
 423 621 370 550 265 550 c 0
 160 550 107 621 107 690 c 1
EndSplineSet
EndChar

StartChar: Edotaccent
Encoding: 278 278 268
GlifName: E_dotaccent
Width: 510
VWidth: 0
Flags: HM
LayerCount: 2
Fore
SplineSet
92 0 m 1
 92 10 l 1
 430 10 l 1
 430 0 l 1
 92 0 l 1
92 690 m 1
 92 700 l 1
 430 700 l 1
 430 690 l 1
 92 690 l 1
92 384 m 1
 92 394 l 1
 410 394 l 5
 410 384 l 1
 92 384 l 1
90 700 m 1
 101 700 l 1
 101 0 l 1
 90 0 l 1
 90 700 l 1
249 779 m 4
 249 786 254 790 260 790 c 4
 266 790 271 786 271 779 c 4
 271 772 266 768 260 768 c 4
 254 768 249 772 249 779 c 4
EndSplineSet
EndChar

StartChar: edotaccent
Encoding: 279 279 269
GlifName: edotaccent
Width: 522
VWidth: 0
Flags: HMW
LayerCount: 2
Fore
SplineSet
52 228 m 1
 52 238 l 1
 471 238 l 1
 475 228 l 1
 52 228 l 1
466 253 m 2
 466 372 370 460 265 460 c 0
 157 460 55 375 55 232 c 1
 55 232 l 1
 55 100 141 0 260 0 c 0
 378 0 431 64 461 113 c 1
 469 107 l 1
 439 59 385 -10 260 -10 c 0
 135 -10 45 93 45 232 c 0
 45 259 48 284 55 308 c 0
 82 403 162 470 265 470 c 0
 375 470 477 379 477 254 c 0
 477 246 476 236 475 228 c 1
 466 230 l 1
 466 253 l 2
254 561 m 4
 254 568 259 572 265 572 c 4
 271 572 276 568 276 561 c 4
 276 554 271 550 265 550 c 4
 259 550 254 554 254 561 c 4
EndSplineSet
EndChar

StartChar: Eogonek
Encoding: 280 280 270
GlifName: E_ogonek
Width: 510
VWidth: 0
Flags: HM
LayerCount: 2
Fore
SplineSet
92 0 m 1
 92 10 l 1
 430 10 l 1
 430 0 l 1
 92 0 l 1
92 690 m 1
 92 700 l 1
 430 700 l 1
 430 690 l 1
 92 690 l 1
92 384 m 1
 92 394 l 1
 410 394 l 1
 410 384 l 1
 92 384 l 1
90 700 m 1
 101 700 l 1
 101 0 l 1
 90 0 l 1
 90 700 l 1
464 -173 m 5
 471 -180 l 5
 456 -200 416 -220 373 -220 c 4
 309 -220 270 -189 270 -140 c 5
 280 -140 l 5
 280 -186 323 -210 373 -210 c 4
 413 -210 449 -191 464 -173 c 5
280 -140 m 5
 270 -140 l 5
 270 -71 353 -26 423 10 c 5
 430 0 l 5
 362 -32 280 -83 280 -140 c 5
EndSplineSet
EndChar

StartChar: eogonek
Encoding: 281 281 271
GlifName: eogonek
Width: 522
VWidth: 0
Flags: HMW
LayerCount: 2
Fore
SplineSet
52 228 m 1
 52 238 l 1
 471 238 l 1
 475 228 l 1
 52 228 l 1
466 253 m 2
 466 372 370 460 265 460 c 0
 157 460 55 375 55 232 c 1
 55 232 l 1
 55 100 141 0 260 0 c 0
 378 0 431 64 461 113 c 1
 469 107 l 1
 439 59 385 -10 260 -10 c 0
 135 -10 45 93 45 232 c 0
 45 259 48 284 55 308 c 0
 82 403 162 470 265 470 c 0
 375 470 477 379 477 254 c 0
 477 246 476 236 475 228 c 1
 466 230 l 1
 466 253 l 2
298 -182 m 1
 304 -189 l 1
 289 -209 249 -229 206 -229 c 0
 142 -229 104 -198 104 -149 c 1
 114 -149 l 1
 114 -195 156 -219 206 -219 c 0
 246 -219 283 -200 298 -182 c 1
114 -149 m 1
 104 -149 l 1
 104 -80 186 -36 256 0 c 1
 264 -10 l 1
 196 -42 114 -92 114 -149 c 1
EndSplineSet
EndChar

StartChar: Ecaron
Encoding: 282 282 272
GlifName: E_caron
Width: 510
VWidth: 0
Flags: HM
LayerCount: 2
Fore
SplineSet
92 0 m 1
 92 10 l 1
 430 10 l 1
 430 0 l 1
 92 0 l 1
92 690 m 1
 92 700 l 1
 430 700 l 1
 430 690 l 1
 92 690 l 1
92 384 m 1
 92 394 l 1
 410 394 l 5
 410 384 l 1
 92 384 l 1
90 700 m 1
 101 700 l 1
 101 0 l 1
 90 0 l 1
 90 700 l 1
260 780 m 5
 412 916 l 1
 420 908 l 1
 260 768 l 1
 100 908 l 1
 108 916 l 1
 260 780 l 5
EndSplineSet
EndChar

StartChar: ecaron
Encoding: 283 283 273
GlifName: ecaron
Width: 522
VWidth: 0
Flags: HMW
LayerCount: 2
Fore
SplineSet
52 228 m 5
 52 238 l 5
 471 238 l 5
 475 228 l 5
 52 228 l 5
466 253 m 6
 466 372 370 460 265 460 c 4
 157 460 55 375 55 232 c 5
 55 232 l 5
 55 100 141 0 260 0 c 4
 378 0 431 64 461 113 c 5
 469 107 l 5
 439 59 385 -10 260 -10 c 4
 135 -10 45 93 45 232 c 4
 45 259 48 284 55 308 c 4
 82 403 162 470 265 470 c 4
 375 470 477 379 477 254 c 4
 477 246 476 236 475 228 c 5
 466 230 l 5
 466 253 l 6
265 562 m 5
 417 698 l 1
 425 690 l 1
 265 550 l 1
 105 690 l 1
 113 698 l 1
 265 562 l 5
EndSplineSet
EndChar

StartChar: Gcircumflex
Encoding: 284 284 274
GlifName: G_circumflex
Width: 765
VWidth: 0
Flags: HMW
LayerCount: 2
Fore
SplineSet
420 330 m 1
 420 340 l 1
 710 340 l 1
 700 330 l 1
 420 330 l 1
710 340 m 5
 710 156 584 -8 390 -8 c 0
 196 -8 50 141 50 350 c 0
 50 559 196 708 390 708 c 0
 519 708 608 643 668 556 c 1
 658 550 l 1
 608 633 512 697 390 697 c 0
 199 697 61 553 61 350 c 0
 61 150 198 3 390 3 c 0
 578 3 699 161 699 340 c 5
 710 340 l 5
390 903 m 1
 237 768 l 5
 230 775 l 1
 390 915 l 1
 550 775 l 1
 543 768 l 1
 390 903 l 1
EndSplineSet
EndChar

StartChar: gcircumflex
Encoding: 285 285 275
GlifName: gcircumflex
Width: 541
VWidth: 0
Flags: HM
LayerCount: 2
Fore
SplineSet
456 230 m 5
 451 230 l 5
 451 356 358 460 268 460 c 4
 138 460 55 366 55 230 c 5
 45 230 l 5
 45 379 138 470 263 470 c 4
 358 470 456 379 456 230 c 5
451 230 m 5
 456 230 l 5
 456 81 358 -10 263 -10 c 4
 138 -10 45 81 45 230 c 5
 55 230 l 5
 55 94 138 0 268 0 c 4
 358 0 451 104 451 230 c 5
60 -30 m 1
 70 -30 l 1
 70 -146 145 -220 252 -220 c 0
 359 -220 451 -145 451 10 c 2
 451 460 l 1
 461 460 l 1
 461 10 l 2
 461 -149 367 -230 252 -230 c 0
 137 -230 60 -149 60 -30 c 1
258 665 m 1
 105 530 l 1
 98 537 l 1
 258 677 l 1
 418 537 l 1
 411 530 l 1
 258 665 l 1
EndSplineSet
EndChar

StartChar: Gbreve
Encoding: 286 286 276
GlifName: G_breve
Width: 765
VWidth: 0
Flags: HMW
LayerCount: 2
Fore
SplineSet
420 330 m 1
 420 340 l 1
 710 340 l 1
 700 330 l 1
 420 330 l 1
710 340 m 5
 710 156 584 -8 390 -8 c 0
 196 -8 50 141 50 350 c 0
 50 559 196 708 390 708 c 0
 519 708 608 643 668 556 c 1
 658 550 l 1
 608 633 512 697 390 697 c 0
 199 697 61 553 61 350 c 0
 61 150 198 3 390 3 c 0
 578 3 699 161 699 340 c 5
 710 340 l 5
232 928 m 1
 242 928 l 1
 242 862 298 798 390 798 c 4
 482 798 538 862 538 928 c 1
 548 928 l 1
 548 859 495 788 390 788 c 0
 285 788 232 859 232 928 c 1
EndSplineSet
EndChar

StartChar: gbreve
Encoding: 287 287 277
GlifName: gbreve
Width: 541
VWidth: 0
Flags: HM
LayerCount: 2
Fore
SplineSet
456 230 m 5
 451 230 l 5
 451 356 358 460 268 460 c 4
 138 460 55 366 55 230 c 5
 45 230 l 5
 45 379 138 470 263 470 c 4
 358 470 456 379 456 230 c 5
451 230 m 5
 456 230 l 5
 456 81 358 -10 263 -10 c 4
 138 -10 45 81 45 230 c 5
 55 230 l 5
 55 94 138 0 268 0 c 4
 358 0 451 104 451 230 c 5
60 -30 m 1
 70 -30 l 1
 70 -146 145 -220 252 -220 c 0
 359 -220 451 -145 451 10 c 2
 451 460 l 1
 461 460 l 1
 461 10 l 2
 461 -149 367 -230 252 -230 c 0
 137 -230 60 -149 60 -30 c 1
100 690 m 1
 110 690 l 1
 110 624 166 560 258 560 c 0
 350 560 406 624 406 690 c 1
 416 690 l 1
 416 621 363 550 258 550 c 0
 153 550 100 621 100 690 c 1
EndSplineSet
EndChar

StartChar: Gdotaccent
Encoding: 288 288 278
GlifName: G_dotaccent
Width: 765
VWidth: 0
Flags: HMW
LayerCount: 2
Fore
SplineSet
420 330 m 1
 420 340 l 1
 710 340 l 1
 700 330 l 1
 420 330 l 1
710 340 m 5
 710 156 584 -8 390 -8 c 0
 196 -8 50 141 50 350 c 0
 50 559 196 708 390 708 c 0
 519 708 608 643 668 556 c 1
 658 550 l 1
 608 633 512 697 390 697 c 0
 199 697 61 553 61 350 c 0
 61 150 198 3 390 3 c 0
 578 3 699 161 699 340 c 5
 710 340 l 5
379 779 m 4
 379 786 384 790 390 790 c 4
 396 790 401 786 401 779 c 4
 401 772 396 768 390 768 c 4
 384 768 379 772 379 779 c 4
EndSplineSet
EndChar

StartChar: gdotaccent
Encoding: 289 289 279
GlifName: gdotaccent
Width: 541
VWidth: 0
Flags: HM
LayerCount: 2
Fore
SplineSet
456 230 m 5
 451 230 l 5
 451 356 358 460 268 460 c 4
 138 460 55 366 55 230 c 5
 45 230 l 5
 45 379 138 470 263 470 c 4
 358 470 456 379 456 230 c 5
451 230 m 5
 456 230 l 5
 456 81 358 -10 263 -10 c 4
 138 -10 45 81 45 230 c 5
 55 230 l 5
 55 94 138 0 268 0 c 4
 358 0 451 104 451 230 c 5
60 -30 m 1
 70 -30 l 1
 70 -146 145 -220 252 -220 c 0
 359 -220 451 -145 451 10 c 2
 451 460 l 1
 461 460 l 1
 461 10 l 2
 461 -149 367 -230 252 -230 c 0
 137 -230 60 -149 60 -30 c 1
247 541 m 0
 247 548 252 552 258 552 c 0
 264 552 269 548 269 541 c 0
 269 534 264 530 258 530 c 0
 252 530 247 534 247 541 c 0
EndSplineSet
EndChar

StartChar: uni0122
Encoding: 290 290 280
GlifName: uni0122
Width: 765
VWidth: 0
Flags: HMW
LayerCount: 2
Fore
SplineSet
420 330 m 1
 420 340 l 1
 710 340 l 1
 700 330 l 1
 420 330 l 1
710 340 m 5
 710 156 584 -8 390 -8 c 0
 196 -8 50 141 50 350 c 0
 50 559 196 708 390 708 c 0
 519 708 608 643 668 556 c 1
 658 550 l 1
 608 633 512 697 390 697 c 0
 199 697 61 553 61 350 c 0
 61 150 198 3 390 3 c 0
 578 3 699 161 699 340 c 5
 710 340 l 5
437 -68 m 5
 448 -73 l 1
 338 -323 l 1
 332 -321 l 1
 437 -68 l 5
EndSplineSet
EndChar

StartChar: Hcircumflex
Encoding: 292 292 281
GlifName: H_circumflex
Width: 647
VWidth: 0
Flags: HM
LayerCount: 2
Fore
SplineSet
93 377 m 5
 93 387 l 5
 553 387 l 5
 553 377 l 5
 93 377 l 5
546 700 m 5
 557 700 l 5
 557 0 l 5
 546 0 l 5
 546 700 l 5
90 700 m 5
 101 700 l 5
 101 0 l 5
 90 0 l 5
 90 700 l 5
324 903 m 1
 170 768 l 5
 164 775 l 1
 324 915 l 1
 484 775 l 1
 476 768 l 1
 324 903 l 1
EndSplineSet
EndChar

StartChar: hcircumflex
Encoding: 293 293 282
GlifName: hcircumflex
Width: 475
VWidth: 0
Flags: HM
LayerCount: 2
Fore
SplineSet
95 780 m 1
 95 0 l 1
 85 0 l 1
 85 780 l 1
 95 780 l 1
380 320 m 6
 380 401 347 460 257 460 c 0
 166 460 95 375 95 280 c 1
 90 280 l 1
 90 389 162 470 257 470 c 0
 352 470 390 409 390 320 c 6
 390 0 l 1
 380 0 l 1
 380 320 l 6
98 975 m 1
 -56 840 l 5
 -62 847 l 1
 98 987 l 1
 258 847 l 1
 250 840 l 1
 98 975 l 1
EndSplineSet
EndChar

StartChar: Itilde
Encoding: 296 296 283
GlifName: I_tilde
Width: 180
VWidth: 0
Flags: HMW
LayerCount: 2
Fore
SplineSet
85 700 m 1
 95 700 l 1
 95 0 l 1
 85 0 l 1
 85 700 l 1
-25 831 m 5
 -25 860 -8 889 37 889 c 4
 92 889 107 842 161 842 c 4
 190 842 202 858 217 890 c 5
 226 887 l 5
 210 850 190 834 160 834 c 4
 105 834 84 881 39 881 c 4
 -2 881 -16 855 -16 830 c 5
 -25 831 l 5
EndSplineSet
EndChar

StartChar: itilde
Encoding: 297 297 284
GlifName: itilde
Width: 190
VWidth: 0
Flags: HMW
LayerCount: 2
Fore
SplineSet
90 460 m 1
 100 460 l 1
 100 0 l 1
 90 0 l 1
 90 460 l 1
-18 591 m 5
 -18 620 -1 649 44 649 c 4
 99 649 114 602 168 602 c 4
 197 602 209 618 224 650 c 5
 233 647 l 5
 217 610 197 594 167 594 c 4
 112 594 91 641 46 641 c 4
 5 641 -9 615 -9 590 c 5
 -18 591 l 5
EndSplineSet
EndChar

StartChar: Imacron
Encoding: 298 298 285
GlifName: I_macron
Width: 180
VWidth: 0
Flags: HMW
LayerCount: 2
Fore
SplineSet
85 700 m 1
 95 700 l 5
 95 0 l 5
 85 0 l 1
 85 700 l 1
-52 835 m 5
 -52 845 l 1
 298 845 l 1
 298 835 l 5
 -52 835 l 5
EndSplineSet
EndChar

StartChar: imacron
Encoding: 299 299 286
GlifName: imacron
Width: 190
VWidth: 0
Flags: HMW
LayerCount: 2
Fore
SplineSet
90 460 m 1
 100 460 l 1
 100 0 l 1
 90 0 l 1
 90 460 l 1
-45 595 m 5
 -45 605 l 1
 305 605 l 1
 305 595 l 5
 -45 595 l 5
EndSplineSet
EndChar

StartChar: Ibreve
Encoding: 300 300 287
GlifName: I_breve
Width: 180
VWidth: 0
Flags: HMW
LayerCount: 2
Fore
SplineSet
85 700 m 1
 95 700 l 1
 95 0 l 1
 85 0 l 1
 85 700 l 1
-70 910 m 5
 -60 910 l 5
 -60 844 -4 780 88 780 c 4
 180 780 236 844 236 910 c 5
 246 910 l 5
 246 841 193 770 88 770 c 4
 -17 770 -70 841 -70 910 c 5
EndSplineSet
EndChar

StartChar: ibreve
Encoding: 301 301 288
GlifName: ibreve
Width: 190
VWidth: 0
Flags: HMW
LayerCount: 2
Fore
SplineSet
90 460 m 1
 100 460 l 1
 100 0 l 1
 90 0 l 1
 90 460 l 1
-63 670 m 5
 -53 670 l 5
 -53 604 3 540 95 540 c 4
 187 540 243 604 243 670 c 5
 253 670 l 5
 253 601 200 530 95 530 c 4
 -10 530 -63 601 -63 670 c 5
EndSplineSet
EndChar

StartChar: Iogonek
Encoding: 302 302 289
GlifName: I_ogonek
Width: 180
VWidth: 0
Flags: HMW
LayerCount: 2
Fore
SplineSet
85 700 m 1
 95 700 l 1
 95 0 l 1
 85 0 l 1
 85 700 l 1
129 -173 m 5
 136 -180 l 5
 121 -200 81 -220 38 -220 c 4
 -26 -220 -65 -189 -65 -140 c 5
 -55 -140 l 5
 -55 -186 -12 -210 38 -210 c 4
 78 -210 114 -191 129 -173 c 5
-55 -140 m 1
 -65 -140 l 1
 -65 -71 18 -26 88 10 c 1
 95 0 l 1
 27 -32 -55 -83 -55 -140 c 1
EndSplineSet
EndChar

StartChar: iogonek
Encoding: 303 303 290
GlifName: iogonek
Width: 190
VWidth: 0
Flags: HMW
LayerCount: 2
Fore
SplineSet
85 695 m 0
 85 701 88 705 95 705 c 0
 102 705 105 701 105 695 c 0
 105 689 102 685 95 685 c 0
 88 685 85 689 85 695 c 0
90 460 m 1
 100 460 l 1
 100 0 l 1
 90 0 l 1
 90 460 l 1
134 -173 m 5
 141 -180 l 5
 126 -200 86 -220 43 -220 c 4
 -21 -220 -60 -189 -60 -140 c 5
 -50 -140 l 5
 -50 -186 -7 -210 43 -210 c 4
 83 -210 119 -191 134 -173 c 5
-50 -140 m 1
 -60 -140 l 1
 -60 -71 23 -26 93 10 c 1
 100 0 l 1
 32 -32 -50 -83 -50 -140 c 1
EndSplineSet
EndChar

StartChar: Idotaccent
Encoding: 304 304 291
GlifName: I_dotaccent
Width: 180
VWidth: 0
Flags: HMW
LayerCount: 2
Fore
SplineSet
85 700 m 1
 95 700 l 1
 95 0 l 1
 85 0 l 1
 85 700 l 1
79 786 m 4
 79 793 84 797 90 797 c 4
 96 797 101 793 101 786 c 4
 101 779 96 775 90 775 c 4
 84 775 79 779 79 786 c 4
EndSplineSet
EndChar

StartChar: uni0136
Encoding: 310 310 292
GlifName: uni0136
Width: 454
VWidth: 0
Flags: HMW
LayerCount: 2
Fore
SplineSet
85 700 m 1
 96 700 l 1
 96 0 l 1
 85 0 l 1
 85 700 l 1
408 700 m 1
 424 700 l 1
 109 372 l 5
 439 0 l 1
 422 0 l 1
 94 372 l 1
 408 700 l 1
351 -76 m 5
 362 -81 l 1
 252 -331 l 1
 246 -329 l 1
 351 -76 l 5
EndSplineSet
EndChar

StartChar: uni0137
Encoding: 311 311 293
GlifName: uni0137
Width: 372
VWidth: 0
Flags: HMW
LayerCount: 2
Fore
SplineSet
80 780 m 5
 90 780 l 5
 90 0 l 5
 80 0 l 5
 80 780 l 5
328 460 m 5
 344 460 l 5
 102 270 l 5
 362 0 l 5
 348 0 l 5
 88 270 l 5
 328 460 l 5
286 -76 m 5
 297 -81 l 1
 187 -331 l 1
 181 -329 l 1
 286 -76 l 5
EndSplineSet
EndChar

StartChar: Lacute
Encoding: 313 313 294
GlifName: L_acute
Width: 430
VWidth: 0
Flags: HM
LayerCount: 2
Fore
SplineSet
97 0 m 1
 97 10 l 5
 410 10 l 5
 410 0 l 1
 97 0 l 1
90 700 m 1
 100 700 l 1
 100 0 l 1
 90 0 l 1
 90 700 l 1
426 925 m 5
 252 768 l 5
 248 773 l 5
 418 933 l 5
 426 925 l 5
EndSplineSet
EndChar

StartChar: lacute
Encoding: 314 314 295
GlifName: lacute
Width: 180
VWidth: 0
Flags: HM
LayerCount: 2
Fore
SplineSet
85 780 m 1
 95 780 l 5
 95 0 l 5
 85 0 l 1
 85 780 l 1
266 997 m 5
 92 840 l 5
 88 845 l 5
 258 1005 l 5
 266 997 l 5
EndSplineSet
EndChar

StartChar: uni013B
Encoding: 315 315 296
GlifName: uni013B_
Width: 430
VWidth: 0
Flags: HM
LayerCount: 2
Fore
SplineSet
97 0 m 1
 97 10 l 5
 410 10 l 5
 410 0 l 1
 97 0 l 1
90 700 m 1
 100 700 l 1
 100 0 l 1
 90 0 l 1
 90 700 l 1
277 -60 m 5
 288 -65 l 1
 178 -315 l 1
 172 -313 l 1
 277 -60 l 5
EndSplineSet
EndChar

StartChar: uni013C
Encoding: 316 316 297
GlifName: uni013C_
Width: 180
VWidth: 0
Flags: HM
LayerCount: 2
Fore
SplineSet
85 780 m 1
 95 780 l 5
 95 0 l 5
 85 0 l 1
 85 780 l 1
117 -60 m 5
 128 -65 l 1
 18 -315 l 1
 12 -313 l 1
 117 -60 l 5
EndSplineSet
EndChar

StartChar: Lcaron
Encoding: 317 317 298
GlifName: L_caron
Width: 450
VWidth: 0
Flags: HMW
LayerCount: 2
Fore
SplineSet
97 0 m 1
 97 10 l 5
 410 10 l 5
 410 0 l 1
 97 0 l 1
90 700 m 1
 100 700 l 1
 100 0 l 1
 90 0 l 1
 90 700 l 1
345 694 m 5
 356 689 l 1
 246 439 l 1
 240 441 l 1
 345 694 l 5
EndSplineSet
EndChar

StartChar: lcaron
Encoding: 318 318 299
GlifName: lcaron
Width: 230
VWidth: 0
Flags: HMW
LayerCount: 2
Fore
SplineSet
85 780 m 1
 95 780 l 5
 95 0 l 5
 85 0 l 1
 85 780 l 1
320 764 m 5
 331 759 l 1
 221 509 l 1
 215 511 l 1
 320 764 l 5
EndSplineSet
EndChar

StartChar: Ldot
Encoding: 319 319 300
GlifName: L_dot
Width: 430
VWidth: 0
Flags: HMW
LayerCount: 2
Fore
SplineSet
97 0 m 1
 97 10 l 5
 410 10 l 5
 410 0 l 1
 97 0 l 1
90 700 m 1
 100 700 l 1
 100 0 l 1
 90 0 l 1
 90 700 l 1
280 396 m 4
 280 403 285 407 291 407 c 4
 297 407 302 403 302 396 c 4
 302 389 297 385 291 385 c 4
 285 385 280 389 280 396 c 4
EndSplineSet
EndChar

StartChar: ldot
Encoding: 320 320 301
GlifName: ldot
Width: 370
VWidth: 0
Flags: HMW
LayerCount: 2
Fore
SplineSet
85 780 m 1
 95 780 l 5
 95 0 l 5
 85 0 l 1
 85 780 l 1
230 396 m 4
 230 403 235 407 241 407 c 4
 247 407 252 403 252 396 c 4
 252 389 247 385 241 385 c 4
 235 385 230 389 230 396 c 4
EndSplineSet
EndChar

StartChar: eth
Encoding: 240 240 302
GlifName: eth
Width: 536
VWidth: 0
Flags: HMW
LayerCount: 2
Fore
SplineSet
476 220 m 0
 476 326 397 427 257 427 c 0
 153 427 60 336 60 220 c 0
 60 94 143 0 268 0 c 0
 398 0 476 101 476 220 c 0
206 700 m 1
 430 379 l 2
 457 342 486 277 486 220 c 0
 486 86 403 -10 268 -10 c 0
 133 -10 50 86 50 220 c 0
 50 339 143 437 257 437 c 0
 332 437 394 407 436 355 c 1
 436 355 l 1
 194 700 l 1
 206 700 l 1
145 575 m 1
 145 585 l 1
 415 585 l 5
 415 575 l 5
 145 575 l 1
EndSplineSet
EndChar

StartChar: racute
Encoding: 341 341 303
GlifName: racute
Width: 290
VWidth: 0
Flags: HM
LayerCount: 2
Fore
SplineSet
95 460 m 1
 95 0 l 1
 85 0 l 1
 85 460 l 1
 95 460 l 1
269 440 m 1
 252 452 232 460 212 460 c 0
 132 460 95 376 95 280 c 1
 90 280 l 1
 90 389 127 470 212 470 c 0
 235 470 258 460 275 448 c 1
 269 440 l 1
316 687 m 5
 142 530 l 5
 138 535 l 5
 308 695 l 5
 316 687 l 5
EndSplineSet
EndChar

StartChar: rcaron
Encoding: 345 345 304
GlifName: rcaron
Width: 290
VWidth: 0
Flags: HM
LayerCount: 2
Fore
SplineSet
95 460 m 1
 95 0 l 1
 85 0 l 1
 85 460 l 1
 95 460 l 1
269 440 m 1
 252 452 232 460 212 460 c 4
 132 460 95 376 95 280 c 1
 90 280 l 1
 90 389 127 470 212 470 c 4
 235 470 258 460 275 448 c 1
 269 440 l 1
180 542 m 5
 332 678 l 1
 340 670 l 1
 180 530 l 1
 20 670 l 1
 28 678 l 1
 180 542 l 5
EndSplineSet
EndChar

StartChar: Rcaron
Encoding: 344 344 305
GlifName: R_caron
Width: 468
VWidth: 0
Flags: HMW
LayerCount: 2
Fore
SplineSet
199 317 m 1
 211 317 l 1
 433 0 l 1
 419 0 l 1
 199 317 l 1
90 700 m 1
 101 700 l 1
 101 0 l 1
 90 0 l 1
 90 700 l 1
92 689 m 1
 92 700 l 1
 205 700 l 2
 340 700 441 636 441 507 c 0
 441 378 340 314 205 314 c 2
 92 314 l 1
 92 324 l 1
 205 324 l 2
 337 324 430 384 430 507 c 0
 430 630 336 689 205 689 c 2
 92 689 l 1
228 780 m 5
 380 916 l 5
 388 908 l 5
 228 768 l 5
 68 908 l 5
 76 916 l 5
 228 780 l 5
EndSplineSet
EndChar

StartChar: uni0213
Encoding: 531 531 306
GlifName: uni0213
Width: 290
VWidth: 0
Flags: HM
LayerCount: 2
Fore
SplineSet
95 460 m 1
 95 0 l 1
 85 0 l 1
 85 460 l 1
 95 460 l 1
269 440 m 1
 252 452 232 460 212 460 c 4
 132 460 95 376 95 280 c 1
 90 280 l 1
 90 389 127 470 212 470 c 4
 235 470 258 460 275 448 c 1
 269 440 l 1
22 550 m 1
 32 550 l 1
 32 616 88 680 180 680 c 4
 272 680 328 616 328 550 c 1
 338 550 l 1
 338 619 285 690 180 690 c 0
 75 690 22 619 22 550 c 1
EndSplineSet
EndChar

StartChar: uni0212
Encoding: 530 530 307
GlifName: uni0212
Width: 468
VWidth: 0
Flags: HMW
LayerCount: 2
Fore
SplineSet
199 317 m 1
 211 317 l 1
 433 0 l 1
 419 0 l 1
 199 317 l 1
90 700 m 1
 101 700 l 1
 101 0 l 1
 90 0 l 1
 90 700 l 1
92 689 m 1
 92 700 l 1
 205 700 l 2
 340 700 441 636 441 507 c 4
 441 378 340 314 205 314 c 2
 92 314 l 1
 92 324 l 1
 205 324 l 2
 337 324 430 384 430 507 c 4
 430 630 336 689 205 689 c 2
 92 689 l 1
100 768 m 1
 110 768 l 1
 110 834 166 898 258 898 c 4
 350 898 406 834 406 768 c 1
 416 768 l 1
 416 837 363 908 258 908 c 0
 153 908 100 837 100 768 c 1
EndSplineSet
EndChar

StartChar: OE
Encoding: 338 338 308
GlifName: O_E_
Width: 951
VWidth: 0
Flags: HMW
LayerCount: 2
Fore
SplineSet
517 385 m 1
 517 395 l 1
 850 395 l 1
 850 385 l 1
 517 385 l 1
515 695 m 1
 526 695 l 1
 526 5 l 1
 515 5 l 1
 515 695 l 1
871 10 m 1
 871 0 l 1
 390 0 l 2
 187 0 40 141 40 350 c 0
 40 559 186 700 390 700 c 2
 870 700 l 1
 870 690 l 1
 523 690 l 1
 506 690 l 1
 390 690 l 2
 197 690 50 548 50 350 c 0
 50 152 198 10 390 10 c 2
 503 10 l 1
 527 10 l 1
 871 10 l 1
EndSplineSet
EndChar

StartChar: oe
Encoding: 339 339 309
GlifName: oe
Width: 926
VWidth: 0
Flags: HMW
LayerCount: 2
Fore
SplineSet
870 250 m 2
 870 356 788 460 668 460 c 0
 538 460 458 348 458 232 c 1
 458 232 l 1
 458 96 548 0 668 0 c 0
 763 0 826 47 865 113 c 1
 873 106 l 1
 827 36 767 -10 668 -10 c 0
 533 -10 452 101 452 230 c 0
 452 247 453 263 456 279 c 0
 475 392 559 470 668 470 c 0
 778 470 881 378 881 253 c 0
 881 245 880 236 879 228 c 1
 869 229 l 1
 870 250 l 2
455 228 m 1
 455 238 l 1
 879 238 l 1
 879 228 l 1
 455 228 l 1
45 230 m 0
 45 379 138 470 253 470 c 0
 358 470 458 379 458 230 c 0
 458 81 358 -10 253 -10 c 0
 138 -10 45 81 45 230 c 0
55 230 m 0
 55 89 142 0 256 0 c 0
 356 0 451 94 451 230 c 0
 451 366 356 460 256 460 c 0
 142 460 55 371 55 230 c 0
EndSplineSet
EndChar

StartChar: a.alt
Encoding: 65536 -1 310
GlifName: a.alt
Width: 541
VWidth: 0
Flags: HMW
LayerCount: 2
Fore
SplineSet
451 460 m 5
 461 460 l 5
 461 0 l 1
 451 0 l 1
 451 460 l 5
45 230 m 0
 45 377 138 470 258 470 c 0
 381 470 456 349 456 230 c 0
 456 111 381 -10 258 -10 c 0
 138 -10 45 83 45 230 c 0
55 230 m 0
 55 89 145 0 261 0 c 0
 370 0 451 114 451 230 c 0
 451 346 370 460 261 460 c 0
 145 460 55 371 55 230 c 0
EndSplineSet
EndChar

StartChar: Jcircumflex
Encoding: 308 308 312
GlifName: J_circumflex
Width: 197
VWidth: 0
Flags: HMW
LayerCount: 2
Fore
SplineSet
-127 -158 m 1
 -103 -182 -63 -209 -17 -209 c 0
 72 -209 96 -166 96 -50 c 2
 96 700 l 1
 107 700 l 1
 107 -60 l 2
 107 -169 78 -220 -16 -220 c 0
 -69 -220 -119 -185 -134 -165 c 1
 -127 -158 l 1
120 938 m 1
 -33 803 l 5
 -40 810 l 1
 120 950 l 1
 280 810 l 1
 273 803 l 1
 120 938 l 1
EndSplineSet
EndChar

StartChar: jcircumflex
Encoding: 309 309 313
GlifName: jcircumflex
Width: 180
VWidth: 0
Flags: HMW
LayerCount: 2
Fore
SplineSet
-96 -165 m 1
 -80 -185 -55 -210 -18 -210 c 0
 62 -210 80 -138 80 -82 c 2
 80 460 l 1
 90 460 l 1
 90 -82 l 2
 90 -151 66 -220 -18 -220 c 0
 -61 -220 -88 -192 -103 -172 c 1
 -96 -165 l 1
120 698 m 1
 -33 563 l 5
 -40 570 l 1
 120 710 l 1
 280 570 l 1
 273 563 l 1
 120 698 l 1
EndSplineSet
EndChar

StartChar: Nacute
Encoding: 323 323 314
GlifName: N_acute
Width: 665
VWidth: 0
Flags: HMW
LayerCount: 2
Fore
SplineSet
61 678 m 1
 50 715 l 1
 584 17 l 5
 595 -15 l 5
 61 678 l 1
584 700 m 1
 595 700 l 1
 595 -15 l 5
 584 17 l 5
 584 700 l 1
50 715 m 1
 61 678 l 1
 61 0 l 1
 50 0 l 1
 50 715 l 1
456 912 m 5
 282 755 l 5
 278 760 l 5
 448 920 l 5
 456 912 l 5
EndSplineSet
EndChar

StartChar: nacute
Encoding: 324 324 315
GlifName: nacute
Width: 475
VWidth: 0
Flags: HM
LayerCount: 2
Fore
SplineSet
95 460 m 1
 95 0 l 1
 85 0 l 1
 85 460 l 1
 95 460 l 1
380 320 m 6
 380 401 347 460 257 460 c 0
 166 460 95 375 95 280 c 1
 90 280 l 1
 90 389 162 470 257 470 c 0
 352 470 390 409 390 320 c 6
 390 0 l 1
 380 0 l 1
 380 320 l 6
383 697 m 5
 210 540 l 5
 205 545 l 5
 375 705 l 5
 383 697 l 5
EndSplineSet
EndChar

StartChar: uni0145
Encoding: 325 325 316
GlifName: uni0145
Width: 665
VWidth: 0
Flags: HMW
LayerCount: 2
Fore
SplineSet
61 678 m 1
 50 715 l 1
 584 17 l 5
 595 -15 l 5
 61 678 l 1
584 700 m 1
 595 700 l 1
 595 -15 l 5
 584 17 l 5
 584 700 l 1
50 715 m 1
 61 678 l 1
 61 0 l 1
 50 0 l 1
 50 715 l 1
342 -45 m 5
 353 -50 l 1
 243 -300 l 1
 237 -298 l 1
 342 -45 l 5
EndSplineSet
EndChar

StartChar: uni0146
Encoding: 326 326 317
GlifName: uni0146
Width: 475
VWidth: 0
Flags: HM
LayerCount: 2
Fore
SplineSet
95 460 m 1
 95 0 l 1
 85 0 l 1
 85 460 l 1
 95 460 l 1
380 320 m 6
 380 401 347 460 257 460 c 0
 166 460 95 375 95 280 c 1
 90 280 l 1
 90 389 162 470 257 470 c 0
 352 470 390 409 390 320 c 6
 390 0 l 1
 380 0 l 1
 380 320 l 6
254 -40 m 5
 266 -45 l 1
 156 -295 l 1
 150 -293 l 1
 254 -40 l 5
EndSplineSet
EndChar

StartChar: Ncaron
Encoding: 327 327 318
GlifName: N_caron
Width: 665
VWidth: 0
Flags: HMW
LayerCount: 2
Fore
SplineSet
61 678 m 1
 50 715 l 1
 584 17 l 5
 595 -15 l 5
 61 678 l 1
584 700 m 1
 595 700 l 1
 595 -15 l 5
 584 17 l 5
 584 700 l 1
50 715 m 1
 61 678 l 1
 61 0 l 1
 50 0 l 1
 50 715 l 1
340 777 m 5
 492 913 l 1
 500 905 l 1
 340 765 l 1
 180 905 l 1
 188 913 l 1
 340 777 l 5
EndSplineSet
EndChar

StartChar: ncaron
Encoding: 328 328 319
GlifName: ncaron
Width: 475
VWidth: 0
Flags: HM
LayerCount: 2
Fore
SplineSet
95 460 m 1
 95 0 l 1
 85 0 l 1
 85 460 l 1
 95 460 l 1
380 320 m 6
 380 401 347 460 257 460 c 0
 166 460 95 375 95 280 c 1
 90 280 l 1
 90 389 162 470 257 470 c 0
 352 470 390 409 390 320 c 6
 390 0 l 1
 380 0 l 1
 380 320 l 6
238 542 m 5
 390 678 l 1
 398 670 l 1
 238 530 l 1
 78 670 l 1
 86 678 l 1
 238 542 l 5
EndSplineSet
EndChar

StartChar: Omacron
Encoding: 332 332 320
GlifName: O_macron
Width: 774
VWidth: 0
Flags: HM
LayerCount: 2
Fore
SplineSet
61 350 m 4
 61 149 196 3 387 3 c 4
 578 3 713 149 713 350 c 4
 713 551 578 697 387 697 c 4
 196 697 61 551 61 350 c 4
50 350 m 4
 50 559 193 708 387 708 c 4
 581 708 724 559 724 350 c 4
 724 141 581 -8 387 -8 c 4
 193 -8 50 141 50 350 c 4
212 788 m 5
 212 798 l 1
 562 798 l 1
 562 788 l 5
 212 788 l 5
EndSplineSet
EndChar

StartChar: omacron
Encoding: 333 333 321
GlifName: omacron
Width: 556
VWidth: 0
Flags: HM
LayerCount: 2
Fore
SplineSet
45 230 m 0
 45 369 146 470 278 470 c 0
 410 470 511 369 511 230 c 0
 511 91 410 -10 278 -10 c 0
 146 -10 45 91 45 230 c 0
55 230 m 0
 55 96 153 0 278 0 c 0
 403 0 501 96 501 230 c 0
 501 364 403 460 278 460 c 0
 153 460 55 364 55 230 c 0
103 550 m 5
 103 560 l 1
 453 560 l 1
 453 550 l 5
 103 550 l 5
EndSplineSet
EndChar

StartChar: Obreve
Encoding: 334 334 322
GlifName: O_breve
Width: 774
VWidth: 0
Flags: HM
LayerCount: 2
Fore
SplineSet
61 350 m 4
 61 149 196 3 387 3 c 4
 578 3 713 149 713 350 c 4
 713 551 578 697 387 697 c 4
 196 697 61 551 61 350 c 4
50 350 m 4
 50 559 193 708 387 708 c 4
 581 708 724 559 724 350 c 4
 724 141 581 -8 387 -8 c 4
 193 -8 50 141 50 350 c 4
229 908 m 1
 239 908 l 1
 239 842 295 778 387 778 c 4
 479 778 535 842 535 908 c 1
 545 908 l 1
 545 839 492 768 387 768 c 0
 282 768 229 839 229 908 c 1
EndSplineSet
EndChar

StartChar: obreve
Encoding: 335 335 323
GlifName: obreve
Width: 556
VWidth: 0
Flags: HM
LayerCount: 2
Fore
SplineSet
45 230 m 0
 45 369 146 470 278 470 c 0
 410 470 511 369 511 230 c 0
 511 91 410 -10 278 -10 c 0
 146 -10 45 91 45 230 c 0
55 230 m 0
 55 96 153 0 278 0 c 0
 403 0 501 96 501 230 c 0
 501 364 403 460 278 460 c 0
 153 460 55 364 55 230 c 0
120 670 m 1
 130 670 l 1
 130 604 186 540 278 540 c 4
 370 540 426 604 426 670 c 1
 436 670 l 1
 436 601 383 530 278 530 c 0
 173 530 120 601 120 670 c 1
EndSplineSet
EndChar

StartChar: Racute
Encoding: 340 340 324
GlifName: R_acute
Width: 468
VWidth: 0
Flags: HMW
LayerCount: 2
Fore
SplineSet
199 317 m 1
 211 317 l 1
 433 0 l 1
 419 0 l 1
 199 317 l 1
90 700 m 1
 101 700 l 1
 101 0 l 1
 90 0 l 1
 90 700 l 1
92 689 m 1
 92 700 l 1
 205 700 l 2
 340 700 441 636 441 507 c 0
 441 378 340 314 205 314 c 2
 92 314 l 1
 92 324 l 1
 205 324 l 2
 337 324 430 384 430 507 c 0
 430 630 336 689 205 689 c 2
 92 689 l 1
363 925 m 5
 190 768 l 5
 185 773 l 5
 355 933 l 5
 363 925 l 5
EndSplineSet
EndChar

StartChar: uni0156
Encoding: 342 342 325
GlifName: uni0156
Width: 468
VWidth: 0
Flags: HMW
LayerCount: 2
Fore
SplineSet
199 317 m 1
 211 317 l 1
 433 0 l 1
 419 0 l 1
 199 317 l 1
90 700 m 1
 101 700 l 1
 101 0 l 1
 90 0 l 1
 90 700 l 1
92 689 m 1
 92 700 l 1
 205 700 l 2
 340 700 441 636 441 507 c 0
 441 378 340 314 205 314 c 2
 92 314 l 1
 92 324 l 1
 205 324 l 2
 337 324 430 384 430 507 c 0
 430 630 336 689 205 689 c 2
 92 689 l 1
258 -60 m 5
 270 -65 l 5
 160 -315 l 5
 154 -313 l 5
 258 -60 l 5
EndSplineSet
EndChar

StartChar: uni0157
Encoding: 343 343 326
GlifName: uni0157
Width: 290
VWidth: 0
Flags: HM
LayerCount: 2
Fore
SplineSet
95 460 m 1
 95 0 l 1
 85 0 l 1
 85 460 l 1
 95 460 l 1
269 440 m 1
 252 452 232 460 212 460 c 0
 132 460 95 376 95 280 c 1
 90 280 l 1
 90 389 127 470 212 470 c 0
 235 470 258 460 275 448 c 1
 269 440 l 1
97 -60 m 5
 108 -65 l 5
 -2 -315 l 5
 -8 -313 l 5
 97 -60 l 5
EndSplineSet
EndChar

StartChar: Scedilla
Encoding: 350 350 327
GlifName: S_cedilla
Width: 488
VWidth: 0
Flags: HMW
LayerCount: 2
Fore
SplineSet
50 197 m 1
 77 109 134 3 255 3 c 0
 385 3 432 77 432 175 c 0
 432 278 343 331 267 359 c 0
 187 388 80 442 80 550 c 0
 80 646 159 708 253 708 c 0
 366 708 421 621 439 550 c 1
 429 548 l 1
 410 615 359 697 253 697 c 4
 163 697 91 636 91 550 c 0
 91 450 188 399 273 368 c 0
 356 338 443 283 443 175 c 0
 443 76 394 -8 255 -8 c 0
 130 -8 69 96 40 193 c 1
 50 197 l 1
249 -1 m 5
 261 -1 l 5
 205 -77 l 1
 194 -89 l 1
 249 -1 l 5
348 -127 m 1
 338 -127 l 1
 338 -83 304 -63 275 -63 c 0
 245 -63 217 -73 194 -89 c 1
 205 -77 l 1
 231 -61 242 -53 275 -53 c 0
 308 -53 348 -78 348 -127 c 1
348 -127 m 1
 348 -188 296 -221 241 -221 c 0
 204 -221 180 -211 152 -183 c 1
 159 -177 l 1
 187 -201 208 -211 241 -211 c 0
 288 -211 338 -183 338 -127 c 1
 348 -127 l 1
EndSplineSet
EndChar

StartChar: scedilla
Encoding: 351 351 328
GlifName: scedilla
Width: 403
VWidth: 0
Flags: HMW
LayerCount: 2
Fore
SplineSet
50 147 m 1
 64 76 101 0 198 0 c 0
 270 0 322 45 322 117 c 4
 322 183 265 211 197 231 c 0
 124 252 67 272 67 359 c 0
 67 430 125 468 197 468 c 0
 277 468 313 419 331 368 c 1
 321 365 l 1
 304 413 269 458 197 458 c 0
 132 458 77 424 77 359 c 0
 77 278 133 260 203 240 c 0
 269 221 332 189 332 117 c 0
 332 38 277 -10 198 -10 c 0
 93 -10 54 69 40 144 c 1
 50 147 l 1
192 -3 m 5
 204 -3 l 5
 148 -79 l 1
 137 -91 l 1
 192 -3 l 5
291 -129 m 1
 281 -129 l 1
 281 -85 247 -65 218 -65 c 0
 188 -65 160 -75 137 -91 c 1
 148 -79 l 1
 174 -63 185 -55 218 -55 c 0
 251 -55 291 -80 291 -129 c 1
291 -129 m 1
 291 -190 239 -223 184 -223 c 0
 147 -223 123 -213 95 -185 c 1
 102 -179 l 1
 130 -203 151 -213 184 -213 c 0
 231 -213 281 -185 281 -129 c 1
 291 -129 l 1
EndSplineSet
EndChar

StartChar: Zcaron
Encoding: 381 381 329
GlifName: Z_caron
Width: 535
VWidth: 0
Flags: HMW
LayerCount: 2
Fore
SplineSet
40 689 m 1
 40 700 l 1
 520 700 l 1
 42 11 l 5
 510 11 l 1
 510 0 l 1
 20 0 l 1
 498 689 l 1
 40 689 l 1
280 780 m 5
 432 916 l 1
 440 908 l 1
 280 768 l 1
 120 908 l 1
 128 916 l 1
 280 780 l 5
EndSplineSet
EndChar

StartChar: zcaron
Encoding: 382 382 330
GlifName: zcaron
Width: 430
VWidth: 0
Flags: HMW
LayerCount: 2
Fore
SplineSet
35 10 m 1
 410 10 l 1
 410 0 l 1
 20 0 l 1
 35 10 l 1
40 460 m 1
 400 460 l 1
 385 450 l 1
 40 450 l 1
 40 460 l 1
387 460 m 5
 400 460 l 1
 33 0 l 1
 20 0 l 1
 387 460 l 5
245 542 m 1
 397 678 l 1
 405 670 l 1
 245 530 l 1
 85 670 l 1
 93 678 l 1
 245 542 l 1
EndSplineSet
EndChar

StartChar: Ydieresis
Encoding: 376 376 331
GlifName: Y_dieresis
Width: 507
VWidth: 0
Flags: HM
LayerCount: 2
Fore
SplineSet
243 275 m 1
 254 275 l 1
 254 0 l 1
 243 0 l 1
 243 275 l 1
479 700 m 1
 492 700 l 1
 248 256 l 1
 15 700 l 1
 28 700 l 1
 248 281 l 1
 479 700 l 1
332 779 m 0
 332 786 338 790 344 790 c 0
 350 790 355 786 355 779 c 0
 355 772 350 768 344 768 c 0
 338 768 332 772 332 779 c 0
152 779 m 0
 152 786 158 790 164 790 c 0
 170 790 175 786 175 779 c 0
 175 772 170 768 164 768 c 0
 158 768 152 772 152 779 c 0
EndSplineSet
EndChar

StartChar: Scaron
Encoding: 352 352 332
GlifName: S_caron
Width: 488
VWidth: 0
Flags: HMW
LayerCount: 2
Fore
SplineSet
50 197 m 1
 77 109 134 3 255 3 c 0
 385 3 432 77 432 175 c 0
 432 278 343 331 267 359 c 0
 187 388 80 442 80 550 c 0
 80 646 159 708 253 708 c 0
 366 708 421 621 439 550 c 1
 429 548 l 1
 410 615 359 697 253 697 c 4
 163 697 91 636 91 550 c 0
 91 450 188 399 273 368 c 0
 356 338 443 283 443 175 c 0
 443 76 394 -8 255 -8 c 0
 130 -8 69 96 40 193 c 1
 50 197 l 1
253 790 m 5
 405 926 l 1
 413 918 l 1
 253 778 l 1
 93 918 l 1
 101 926 l 1
 253 790 l 5
EndSplineSet
EndChar

StartChar: scaron
Encoding: 353 353 333
GlifName: scaron
Width: 403
VWidth: 0
Flags: HMW
LayerCount: 2
Fore
SplineSet
50 147 m 1
 64 76 101 0 198 0 c 0
 270 0 322 45 322 117 c 4
 322 183 265 211 197 231 c 0
 124 252 67 272 67 359 c 0
 67 430 125 468 197 468 c 0
 277 468 313 419 331 368 c 1
 321 365 l 1
 304 413 269 458 197 458 c 0
 132 458 77 424 77 359 c 0
 77 278 133 260 203 240 c 0
 269 221 332 189 332 117 c 0
 332 38 277 -10 198 -10 c 0
 93 -10 54 69 40 144 c 1
 50 147 l 1
197 542 m 5
 349 678 l 1
 357 670 l 1
 197 530 l 1
 37 670 l 1
 45 678 l 1
 197 542 l 5
EndSplineSet
EndChar

StartChar: Lslash
Encoding: 321 321 334
GlifName: L_slash
Width: 375
VWidth: 0
Flags: HMW
LayerCount: 2
Fore
SplineSet
-9 387 m 5
 -15 395 l 1
 255 565 l 1
 261 557 l 5
 -9 387 l 5
84 0 m 1
 84 10 l 1
 365 10 l 1
 365 0 l 1
 84 0 l 1
80 700 m 1
 91 700 l 1
 91 0 l 1
 80 0 l 1
 80 700 l 1
EndSplineSet
EndChar

StartChar: lslash
Encoding: 322 322 335
GlifName: lslash
Width: 160
VWidth: 0
Flags: HMW
LayerCount: 2
Fore
SplineSet
-8 387 m 5
 -15 395 l 1
 165 545 l 1
 172 537 l 5
 -8 387 l 5
75 780 m 1
 85 780 l 1
 85 0 l 1
 75 0 l 1
 75 780 l 1
EndSplineSet
EndChar

StartChar: uni0218
Encoding: 536 536 336
GlifName: uni0218
Width: 488
VWidth: 0
Flags: HMW
LayerCount: 2
Fore
SplineSet
50 197 m 1
 77 109 134 3 255 3 c 0
 385 3 432 77 432 175 c 0
 432 278 343 331 267 359 c 0
 187 388 80 442 80 550 c 0
 80 646 159 708 253 708 c 0
 366 708 421 621 439 550 c 1
 429 548 l 1
 410 615 359 697 253 697 c 4
 163 697 91 636 91 550 c 0
 91 450 188 399 273 368 c 0
 356 338 443 283 443 175 c 0
 443 76 394 -8 255 -8 c 0
 130 -8 69 96 40 193 c 1
 50 197 l 1
302 -68 m 5
 313 -73 l 1
 203 -323 l 1
 197 -321 l 1
 302 -68 l 5
EndSplineSet
EndChar

StartChar: uni0219
Encoding: 537 537 337
GlifName: uni0219
Width: 403
VWidth: 0
Flags: HMW
LayerCount: 2
Fore
SplineSet
50 147 m 1
 64 76 101 0 198 0 c 0
 270 0 322 45 322 117 c 4
 322 183 265 211 197 231 c 0
 124 252 67 272 67 359 c 0
 67 430 125 468 197 468 c 0
 277 468 313 419 331 368 c 1
 321 365 l 1
 304 413 269 458 197 458 c 0
 132 458 77 424 77 359 c 0
 77 278 133 260 203 240 c 0
 269 221 332 189 332 117 c 0
 332 38 277 -10 198 -10 c 0
 93 -10 54 69 40 144 c 1
 50 147 l 1
245 -70 m 5
 256 -75 l 1
 146 -325 l 1
 140 -323 l 1
 245 -70 l 5
EndSplineSet
EndChar

StartChar: pi
Encoding: 960 960 338
GlifName: pi
Width: 470
VWidth: 0
Flags: HMW
LayerCount: 2
Fore
SplineSet
90 450 m 1
 100 450 l 1
 100 0 l 1
 90 0 l 1
 90 450 l 1
30 460 m 1
 430 460 l 1
 430 450 l 1
 30 450 l 1
 30 460 l 1
340 450 m 1
 350 450 l 1
 350 121 l 6
 350 25 353 1 403 1 c 1
 403 -9 l 1
 349 -9 340 12 340 121 c 2
 340 450 l 1
EndSplineSet
EndChar

StartChar: trademark
Encoding: 8482 8482 339
GlifName: trademark
Width: 665
VWidth: 0
Flags: HMW
LayerCount: 2
Fore
SplineSet
38 694 m 1
 38 700 l 1
 234 700 l 1
 234 694 l 1
 138 694 l 1
 138 350 l 1
 133 350 l 1
 133 694 l 1
 38 694 l 1
592 688 m 5
 596 708 l 5
 633 350 l 1
 628 350 l 1
 592 688 l 5
316 708 m 5
 319 688 l 5
 284 350 l 1
 278 350 l 1
 316 708 l 5
596 708 m 5
 592 688 l 5
 456 402 l 1
 319 688 l 5
 316 708 l 5
 456 415 l 1
 596 708 l 5
EndSplineSet
EndChar

StartChar: uni2219
Encoding: 8729 8729 340
GlifName: uni2219
Width: 260
VWidth: 0
Flags: HMW
LayerCount: 2
Fore
SplineSet
119 449 m 0
 119 456 124 460 130 460 c 0
 136 460 141 456 141 449 c 0
 141 442 136 438 130 438 c 0
 124 438 119 442 119 449 c 0
EndSplineSet
EndChar

StartChar: agrave.alt
Encoding: 65537 -1 341
GlifName: agrave.alt
Width: 541
VWidth: 0
Flags: HMW
LayerCount: 2
Fore
SplineSet
451 460 m 5
 461 460 l 5
 461 0 l 1
 451 0 l 1
 451 460 l 5
45 230 m 0
 45 377 138 470 258 470 c 0
 381 470 456 349 456 230 c 0
 456 111 381 -10 258 -10 c 0
 138 -10 45 83 45 230 c 0
55 230 m 0
 55 89 145 0 261 0 c 0
 370 0 451 114 451 230 c 0
 451 346 370 460 261 460 c 0
 145 460 55 371 55 230 c 0
162 697 m 5
 170 705 l 5
 340 545 l 5
 336 540 l 5
 162 697 l 5
EndSplineSet
EndChar

StartChar: aacute.alt
Encoding: 65538 -1 342
GlifName: aacute.alt
Width: 541
VWidth: 0
Flags: HMW
LayerCount: 2
Fore
SplineSet
451 460 m 5
 461 460 l 5
 461 0 l 1
 451 0 l 1
 451 460 l 5
45 230 m 0
 45 377 138 470 258 470 c 0
 381 470 456 349 456 230 c 0
 456 111 381 -10 258 -10 c 0
 138 -10 45 83 45 230 c 0
55 230 m 0
 55 89 145 0 261 0 c 0
 370 0 451 114 451 230 c 0
 451 346 370 460 261 460 c 0
 145 460 55 371 55 230 c 0
354 697 m 5
 180 540 l 5
 176 545 l 5
 346 705 l 5
 354 697 l 5
EndSplineSet
EndChar

StartChar: acircumflex.alt
Encoding: 65539 -1 343
GlifName: acircumflex.alt
Width: 541
VWidth: 0
Flags: HMW
LayerCount: 2
Fore
SplineSet
451 460 m 5
 461 460 l 5
 461 0 l 1
 451 0 l 1
 451 460 l 5
45 230 m 0
 45 377 138 470 258 470 c 0
 381 470 456 349 456 230 c 0
 456 111 381 -10 258 -10 c 0
 138 -10 45 83 45 230 c 0
55 230 m 0
 55 89 145 0 261 0 c 0
 370 0 451 114 451 230 c 0
 451 346 370 460 261 460 c 0
 145 460 55 371 55 230 c 0
258 685 m 1
 105 550 l 5
 98 557 l 1
 258 697 l 1
 418 557 l 1
 411 550 l 1
 258 685 l 1
EndSplineSet
EndChar

StartChar: atilde.alt
Encoding: 65540 -1 344
GlifName: atilde.alt
Width: 541
VWidth: 0
Flags: HMW
LayerCount: 2
Fore
SplineSet
451 460 m 5
 461 460 l 5
 461 0 l 1
 451 0 l 1
 451 460 l 5
45 230 m 0
 45 377 138 470 258 470 c 0
 381 470 456 349 456 230 c 0
 456 111 381 -10 258 -10 c 0
 138 -10 45 83 45 230 c 0
55 230 m 0
 55 89 145 0 261 0 c 0
 370 0 451 114 451 230 c 0
 451 346 370 460 261 460 c 0
 145 460 55 371 55 230 c 0
132 551 m 5
 132 580 149 609 194 609 c 4
 249 609 264 562 318 562 c 0
 347 562 359 578 374 610 c 1
 384 607 l 1
 368 570 348 554 318 554 c 0
 263 554 241 601 196 601 c 0
 155 601 142 575 142 550 c 5
 132 551 l 5
EndSplineSet
EndChar

StartChar: adieresis.alt
Encoding: 65541 -1 345
GlifName: adieresis.alt
Width: 541
VWidth: 0
Flags: HMW
LayerCount: 2
Fore
SplineSet
451 460 m 1
 461 460 l 1
 461 0 l 1
 451 0 l 1
 451 460 l 1
45 230 m 0
 45 377 138 470 258 470 c 0
 381 470 456 349 456 230 c 0
 456 111 381 -10 258 -10 c 0
 138 -10 45 83 45 230 c 0
55 230 m 0
 55 89 145 0 261 0 c 0
 370 0 451 114 451 230 c 0
 451 346 370 460 261 460 c 0
 145 460 55 371 55 230 c 0
357 591 m 4
 357 598 362 602 368 602 c 4
 374 602 379 598 379 591 c 4
 379 584 374 580 368 580 c 4
 362 580 357 584 357 591 c 4
157 591 m 4
 157 598 162 602 168 602 c 4
 174 602 179 598 179 591 c 4
 179 584 174 580 168 580 c 4
 162 580 157 584 157 591 c 4
EndSplineSet
EndChar

StartChar: aring.alt
Encoding: 65542 -1 346
GlifName: aring.alt
Width: 541
VWidth: 0
Flags: HMW
LayerCount: 2
Fore
SplineSet
451 460 m 5
 461 460 l 5
 461 0 l 1
 451 0 l 1
 451 460 l 5
45 230 m 0
 45 377 138 470 258 470 c 0
 381 470 456 349 456 230 c 0
 456 111 381 -10 258 -10 c 0
 138 -10 45 83 45 230 c 0
55 230 m 0
 55 89 145 0 261 0 c 0
 370 0 451 114 451 230 c 0
 451 346 370 460 261 460 c 0
 145 460 55 371 55 230 c 0
156 630 m 0
 156 690 206 730 258 730 c 0
 310 730 360 690 360 630 c 0
 360 570 310 530 258 530 c 0
 206 530 156 570 156 630 c 0
166 630 m 4
 166 577 210 540 258 540 c 4
 306 540 350 577 350 630 c 4
 350 683 306 720 258 720 c 4
 210 720 166 683 166 630 c 4
EndSplineSet
EndChar

StartChar: amacron.alt
Encoding: 65543 -1 347
GlifName: amacron.alt
Width: 541
VWidth: 0
Flags: HMW
LayerCount: 2
Fore
SplineSet
451 460 m 5
 461 460 l 5
 461 0 l 1
 451 0 l 1
 451 460 l 5
45 230 m 0
 45 377 138 470 258 470 c 0
 381 470 456 349 456 230 c 0
 456 111 381 -10 258 -10 c 0
 138 -10 45 83 45 230 c 0
55 230 m 0
 55 89 145 0 261 0 c 0
 370 0 451 114 451 230 c 0
 451 346 370 460 261 460 c 0
 145 460 55 371 55 230 c 0
83 550 m 5
 83 560 l 1
 433 560 l 1
 433 550 l 5
 83 550 l 5
EndSplineSet
EndChar

StartChar: abreve.alt
Encoding: 65544 -1 348
GlifName: abreve.alt
Width: 541
VWidth: 0
Flags: HMW
LayerCount: 2
Fore
SplineSet
451 460 m 5
 461 460 l 5
 461 0 l 1
 451 0 l 1
 451 460 l 5
45 230 m 0
 45 377 138 470 258 470 c 0
 381 470 456 349 456 230 c 0
 456 111 381 -10 258 -10 c 0
 138 -10 45 83 45 230 c 0
55 230 m 0
 55 89 145 0 261 0 c 0
 370 0 451 114 451 230 c 0
 451 346 370 460 261 460 c 0
 145 460 55 371 55 230 c 0
100 690 m 1
 110 690 l 1
 110 624 166 560 258 560 c 4
 350 560 406 624 406 690 c 1
 416 690 l 1
 416 621 363 550 258 550 c 0
 153 550 100 621 100 690 c 1
EndSplineSet
EndChar

StartChar: aogonek.alt
Encoding: 65545 -1 349
GlifName: aogonek.alt
Width: 541
VWidth: 0
Flags: HMW
LayerCount: 2
Fore
SplineSet
451 460 m 5
 461 460 l 5
 461 0 l 1
 451 0 l 1
 451 460 l 5
45 230 m 0
 45 377 138 470 258 470 c 0
 381 470 456 349 456 230 c 0
 456 111 381 -10 258 -10 c 0
 138 -10 45 83 45 230 c 0
55 230 m 0
 55 89 145 0 261 0 c 0
 370 0 451 114 451 230 c 0
 451 346 370 460 261 460 c 0
 145 460 55 371 55 230 c 0
495 -173 m 1
 502 -180 l 1
 487 -200 447 -220 404 -220 c 4
 340 -220 301 -189 301 -140 c 1
 311 -140 l 1
 311 -186 354 -210 404 -210 c 4
 444 -210 480 -191 495 -173 c 1
311 -140 m 1
 301 -140 l 1
 301 -71 384 -26 454 10 c 1
 461 -0 l 1
 393 -32 311 -83 311 -140 c 1
EndSplineSet
EndChar

StartChar: dagger
Encoding: 8224 8224 350
GlifName: dagger
Width: 500
VWidth: 0
Flags: HMW
LayerCount: 2
Fore
SplineSet
90 540 m 1
 410 540 l 1
 410 530 l 5
 90 530 l 5
 90 540 l 1
245 700 m 1
 255 700 l 1
 255 -150 l 1
 245 -150 l 1
 245 700 l 1
EndSplineSet
EndChar

StartChar: daggerdbl
Encoding: 8225 8225 351
GlifName: daggerdbl
Width: 500
VWidth: 0
Flags: HMW
LayerCount: 2
Fore
SplineSet
90 120 m 1
 410 120 l 1
 410 110 l 5
 90 110 l 5
 90 120 l 1
90 540 m 1
 410 540 l 1
 410 530 l 5
 90 530 l 5
 90 540 l 1
245 700 m 1
 255 700 l 1
 255 -150 l 1
 245 -150 l 1
 245 700 l 1
EndSplineSet
EndChar

StartChar: ellipsis
Encoding: 8230 8230 352
GlifName: ellipsis
Width: 812
VWidth: 0
Flags: HMW
LayerCount: 2
Fore
SplineSet
120 1 m 0
 120 8 125 12 131 12 c 0
 137 12 142 8 142 1 c 0
 142 -6 137 -10 131 -10 c 0
 125 -10 120 -6 120 1 c 0
395 1 m 0
 395 8 400 12 406 12 c 0
 412 12 417 8 417 1 c 0
 417 -6 412 -10 406 -10 c 0
 400 -10 395 -6 395 1 c 0
670 1 m 4
 670 8 675 12 681 12 c 4
 687 12 692 8 692 1 c 4
 692 -6 687 -10 681 -10 c 4
 675 -10 670 -6 670 1 c 4
EndSplineSet
EndChar

StartChar: uniFF10
Encoding: 65296 65296 353
GlifName: uniF_F_10
Width: 550
VWidth: 0
Flags: HMW
LayerCount: 2
Fore
SplineSet
66 350 m 4
 66 163 143 0 275 0 c 4
 407 0 484 163 484 350 c 4
 484 537 407 700 275 700 c 4
 143 700 66 537 66 350 c 4
55 350 m 4
 55 549 136 710 275 710 c 4
 414 710 495 549 495 350 c 4
 495 151 414 -10 275 -10 c 4
 136 -10 55 151 55 350 c 4
EndSplineSet
EndChar

StartChar: uniFF11
Encoding: 65297 65297 354
GlifName: uniF_F_11
Width: 550
VWidth: 0
Flags: HMW
LayerCount: 2
Fore
SplineSet
165 654 m 5
 165 665 l 5
 345 705 l 5
 345 0 l 5
 335 0 l 5
 335 691 l 5
 165 654 l 5
EndSplineSet
EndChar

StartChar: uniFF12
Encoding: 65298 65298 355
GlifName: uniF_F_12
Width: 550
VWidth: 0
Flags: HMW
LayerCount: 2
Fore
SplineSet
43 0 m 5
 363 334 l 6
 412 385 458 435 458 519 c 4
 458 598 410 701 280 701 c 4
 160 701 83 601 83 460 c 5
 73 460 l 5
 73 609 155 711 280 711 c 4
 414 711 469 603 469 519 c 4
 469 437 422 380 372 328 c 6
 68 10 l 5
 497 10 l 5
 497 0 l 5
 43 0 l 5
EndSplineSet
EndChar

StartChar: uniFF13
Encoding: 65299 65299 356
GlifName: uniF_F_13
Width: 550
VWidth: 0
Flags: HMW
LayerCount: 2
Fore
SplineSet
248 362 m 5
 248 370 l 5
 338 370 456 429 456 533 c 4
 456 616 394 700 282 700 c 4
 173 700 104 627 104 526 c 5
 94 526 l 5
 94 635 167 710 282 710 c 4
 402 710 466 623 466 534 c 4
 466 425 353 362 248 362 c 5
278 -10 m 4
 143 -10 64 76 64 185 c 5
 74 185 l 5
 74 79 148 0 278 0 c 4
 398 0 476 74 476 175 c 4
 476 300 338 360 248 360 c 5
 248 368 l 5
 353 368 486 304 486 175 c 4
 486 66 403 -10 278 -10 c 4
EndSplineSet
EndChar

StartChar: uniFF14
Encoding: 65300 65300 357
GlifName: uniF_F_14
Width: 550
VWidth: 0
Flags: HMW
LayerCount: 2
Fore
SplineSet
24 140 m 1
 34 150 l 1
 400 150 l 0
 404 150 l 0
 516 150 l 1
 516 140 l 1
 24 140 l 1
36 140 m 1
 24 140 l 1
 406 700 l 25
 408 700 l 1
 408 0 l 1
 397 0 l 5
 397 142 l 4
 397 147 l 4
 397 666 l 5
 36 140 l 1
EndSplineSet
EndChar

StartChar: uniFF15
Encoding: 65301 65301 358
GlifName: uniF_F_15
Width: 550
VWidth: 0
Flags: HMW
LayerCount: 2
Fore
SplineSet
486 230 m 4
 486 71 385 -10 260 -10 c 4
 151 -10 88 47 52 137 c 5
 60 142 l 5
 96 54 155 0 260 0 c 4
 380 0 476 79 476 230 c 4
 476 351 391 436 286 436 c 4
 199 436 133 397 82 327 c 5
 100 359 l 5
 130 404 197 446 286 446 c 4
 396 446 486 359 486 230 c 4
180 690 m 5
 100 359 l 5
 82 327 l 5
 174 700 l 5
 504 700 l 5
 504 690 l 5
 180 690 l 5
EndSplineSet
EndChar

StartChar: uniFF16
Encoding: 65302 65302 359
GlifName: uniF_F_16
Width: 550
VWidth: 0
Flags: HMW
LayerCount: 2
Fore
SplineSet
67 220 m 4
 67 94 150 0 275 0 c 4
 400 0 483 94 483 220 c 4
 483 336 391 427 286 427 c 4
 146 427 67 326 67 220 c 4
337 700 m 5
 349 700 l 5
 107 355 l 5
 107 355 l 5
 149 407 211 437 286 437 c 4
 400 437 493 339 493 220 c 4
 493 86 410 -10 275 -10 c 4
 140 -10 57 86 57 220 c 4
 57 277 86 342 113 379 c 6
 337 700 l 5
EndSplineSet
EndChar

StartChar: uniFF17
Encoding: 65303 65303 360
GlifName: uniF_F_17
Width: 550
VWidth: 0
Flags: HMW
LayerCount: 2
Fore
SplineSet
52 690 m 5
 52 700 l 5
 522 700 l 5
 152 0 l 5
 142 0 l 5
 506 690 l 5
 52 690 l 5
EndSplineSet
EndChar

StartChar: uniFF18
Encoding: 65304 65304 361
GlifName: uniF_F_18
Width: 550
VWidth: 0
Flags: HMW
LayerCount: 2
Fore
SplineSet
102 541 m 4
 102 630 175 710 275 710 c 4
 375 710 448 630 448 541 c 4
 448 442 360 368 275 368 c 4
 190 368 102 442 102 541 c 4
112 541 m 4
 112 445 205 375 275 375 c 4
 345 375 438 445 438 541 c 4
 438 627 370 700 275 700 c 4
 180 700 112 627 112 541 c 4
82 185 m 4
 82 294 175 372 275 372 c 4
 375 372 468 294 468 185 c 4
 468 76 400 -10 275 -10 c 4
 150 -10 82 76 82 185 c 4
92 185 m 4
 92 79 160 0 275 0 c 4
 390 0 458 79 458 185 c 4
 458 291 365 365 275 365 c 4
 185 365 92 291 92 185 c 4
EndSplineSet
EndChar

StartChar: uniFF19
Encoding: 65305 65305 362
GlifName: uniF_F_19
Width: 550
VWidth: 0
Flags: HMW
LayerCount: 2
Fore
SplineSet
483 480 m 4
 483 606 400 700 275 700 c 4
 150 700 67 606 67 480 c 4
 67 364 159 273 264 273 c 4
 404 273 483 374 483 480 c 4
213 0 m 5
 201 0 l 5
 443 345 l 5
 443 345 l 5
 401 293 339 263 264 263 c 4
 150 263 57 361 57 480 c 4
 57 614 140 710 275 710 c 4
 410 710 493 614 493 480 c 4
 493 423 464 358 437 321 c 6
 213 0 l 5
EndSplineSet
EndChar

StartChar: caron
Encoding: 711 711 363
GlifName: caron
Width: 480
VWidth: 0
Flags: HMW
LayerCount: 2
Fore
SplineSet
240 582 m 5
 392 718 l 1
 400 710 l 1
 240 570 l 1
 80 710 l 1
 88 718 l 1
 240 582 l 5
EndSplineSet
EndChar

StartChar: napostrophe
Encoding: 329 329 364
GlifName: napostrophe
Width: 615
VWidth: 0
Flags: HMW
LayerCount: 2
Fore
SplineSet
185 460 m 5
 185 0 l 5
 175 0 l 5
 175 460 l 5
 185 460 l 5
470 320 m 6
 470 401 437 460 347 460 c 4
 256 460 185 375 185 280 c 5
 180 280 l 5
 180 389 252 470 347 470 c 4
 442 470 480 409 480 320 c 6
 480 0 l 5
 470 0 l 5
 470 320 l 6
173 700 m 1
 185 700 l 1
 90 470 l 1
 80 470 l 1
 173 700 l 1
EndSplineSet
EndChar

StartChar: IJ
Encoding: 306 306 365
GlifName: I_J_
Width: 490
VWidth: 0
Flags: HMW
LayerCount: 2
Fore
SplineSet
123 -158 m 1
 147 -182 187 -209 233 -209 c 0
 322 -209 346 -166 346 -50 c 2
 346 700 l 1
 357 700 l 1
 357 -60 l 2
 357 -169 328 -220 234 -220 c 0
 181 -220 131 -185 116 -165 c 1
 123 -158 l 1
85 700 m 1
 95 700 l 5
 95 0 l 5
 85 0 l 1
 85 700 l 1
EndSplineSet
EndChar

StartChar: ij
Encoding: 307 307 366
GlifName: ij
Width: 510
VWidth: 0
Flags: HMW
LayerCount: 2
Fore
SplineSet
335 695 m 4
 335 701 338 705 345 705 c 4
 352 705 355 701 355 695 c 4
 355 689 352 685 345 685 c 4
 338 685 335 689 335 695 c 4
164 -165 m 5
 180 -185 205 -210 242 -210 c 4
 322 -210 340 -138 340 -82 c 6
 340 460 l 5
 350 460 l 5
 350 -82 l 6
 350 -151 326 -220 242 -220 c 4
 199 -220 172 -192 157 -172 c 5
 164 -165 l 5
85 695 m 4
 85 701 88 705 95 705 c 4
 102 705 105 701 105 695 c 4
 105 689 102 685 95 685 c 4
 88 685 85 689 85 695 c 4
90 460 m 5
 100 460 l 5
 100 0 l 5
 90 0 l 5
 90 460 l 5
EndSplineSet
EndChar

StartChar: uni0237
Encoding: 567 567 367
GlifName: uni0237
Width: 180
VWidth: 0
Flags: HMW
LayerCount: 2
Fore
SplineSet
-96 -165 m 1
 -80 -185 -55 -210 -18 -210 c 0
 62 -210 80 -138 80 -82 c 2
 80 460 l 1
 90 460 l 1
 90 -82 l 2
 90 -151 66 -220 -18 -220 c 0
 -61 -220 -88 -192 -103 -172 c 1
 -96 -165 l 1
EndSplineSet
EndChar

StartChar: Sacute
Encoding: 346 346 368
GlifName: S_acute
Width: 488
VWidth: 0
Flags: HM
LayerCount: 2
Fore
SplineSet
50 197 m 1
 77 109 134 3 255 3 c 0
 385 3 432 77 432 175 c 0
 432 278 343 331 267 359 c 0
 187 388 80 442 80 550 c 0
 80 646 159 708 253 708 c 0
 366 708 421 621 439 550 c 1
 429 548 l 1
 410 615 359 697 253 697 c 0
 163 697 91 636 91 550 c 0
 91 450 188 399 273 368 c 0
 356 338 443 283 443 175 c 0
 443 76 394 -8 255 -8 c 0
 130 -8 69 96 40 193 c 1
 50 197 l 1
408 925 m 5
 236 768 l 5
 230 773 l 5
 400 933 l 5
 408 925 l 5
EndSplineSet
EndChar

StartChar: sacute
Encoding: 347 347 369
GlifName: sacute
Width: 403
VWidth: 0
Flags: HM
LayerCount: 2
Fore
SplineSet
50 147 m 1
 64 76 101 0 198 0 c 0
 270 0 322 45 322 117 c 0
 322 183 265 211 197 231 c 0
 124 252 67 272 67 359 c 0
 67 430 125 468 197 468 c 0
 277 468 313 419 331 368 c 1
 321 365 l 1
 304 413 269 458 197 458 c 0
 132 458 77 424 77 359 c 0
 77 278 133 260 203 240 c 0
 269 221 332 189 332 117 c 0
 332 38 277 -10 198 -10 c 0
 93 -10 54 69 40 144 c 1
 50 147 l 1
352 687 m 5
 180 530 l 5
 174 535 l 5
 344 695 l 5
 352 687 l 5
EndSplineSet
EndChar

StartChar: Scircumflex
Encoding: 348 348 370
GlifName: S_circumflex
Width: 488
VWidth: 0
Flags: HM
LayerCount: 2
Fore
SplineSet
50 197 m 1
 77 109 134 3 255 3 c 0
 385 3 432 77 432 175 c 0
 432 278 343 331 267 359 c 0
 187 388 80 442 80 550 c 0
 80 646 159 708 253 708 c 0
 366 708 421 621 439 550 c 1
 429 548 l 1
 410 615 359 697 253 697 c 4
 163 697 91 636 91 550 c 0
 91 450 188 399 273 368 c 0
 356 338 443 283 443 175 c 0
 443 76 394 -8 255 -8 c 0
 130 -8 69 96 40 193 c 1
 50 197 l 1
253 903 m 1
 100 768 l 5
 93 775 l 1
 253 915 l 1
 413 775 l 1
 406 768 l 1
 253 903 l 1
EndSplineSet
EndChar

StartChar: scircumflex
Encoding: 349 349 371
GlifName: scircumflex
Width: 403
VWidth: 0
Flags: HM
LayerCount: 2
Fore
SplineSet
50 147 m 1
 64 76 101 0 198 0 c 0
 270 0 322 45 322 117 c 4
 322 183 265 211 197 231 c 0
 124 252 67 272 67 359 c 0
 67 430 125 468 197 468 c 0
 277 468 313 419 331 368 c 1
 321 365 l 1
 304 413 269 458 197 458 c 0
 132 458 77 424 77 359 c 0
 77 278 133 260 203 240 c 0
 269 221 332 189 332 117 c 0
 332 38 277 -10 198 -10 c 0
 93 -10 54 69 40 144 c 1
 50 147 l 1
197 665 m 1
 44 530 l 5
 37 537 l 1
 197 677 l 1
 357 537 l 1
 350 530 l 1
 197 665 l 1
EndSplineSet
EndChar

StartChar: uni1E9E
Encoding: 7838 7838 372
Width: 666
VWidth: 0
Flags: HMW
LayerCount: 2
Fore
SplineSet
80 416 m 1
 90 416 l 1
 90 0 l 1
 80 0 l 1
 80 416 l 1
348 362 m 1
 348 370 l 1
 475 370 556 433 556 534 c 0
 556 640 457 700 352 700 c 4
 184 700 90 587 90 416 c 1
 80 416 l 1
 80 595 177 710 352 710 c 4
 462 710 566 648 566 534 c 0
 566 425 483 362 348 362 c 1
388 -10 m 0
 273 -10 185 76 185 185 c 1
 195 185 l 1
 195 81 278 0 388 0 c 0
 498 0 576 82 576 185 c 0
 576 300 475 358 348 358 c 1
 348 366 l 1
 483 366 586 304 586 185 c 0
 586 76 503 -10 388 -10 c 0
EndSplineSet
EndChar

StartChar: Zacute
Encoding: 377 377 373
Width: 535
VWidth: 0
Flags: H
LayerCount: 2
Fore
SplineSet
40 689 m 1
 40 700 l 1
 520 700 l 1
 42 11 l 1
 510 11 l 1
 510 0 l 1
 20 0 l 1
 498 689 l 1
 40 689 l 1
425.5 925 m 5
 252.5 768 l 5
 247.5 773 l 5
 417.5 933 l 5
 425.5 925 l 5
EndSplineSet
EndChar

StartChar: zacute
Encoding: 378 378 374
Width: 430
VWidth: 0
Flags: H
LayerCount: 2
Fore
SplineSet
379 450 m 1
 40 450 l 1
 40 460 l 1
 400 460 l 1
 41 10 l 1
 410 10 l 1
 410 0 l 1
 20 0 l 1
 379 450 l 1
365.5 687 m 5
 192.5 530 l 5
 187.5 535 l 5
 357.5 695 l 5
 365.5 687 l 5
EndSplineSet
EndChar

StartChar: Zdotaccent
Encoding: 379 379 375
Width: 535
VWidth: 0
Flags: H
LayerCount: 2
Fore
SplineSet
40 689 m 1
 40 700 l 1
 520 700 l 1
 42 11 l 1
 510 11 l 1
 510 0 l 1
 20 0 l 1
 498 689 l 1
 40 689 l 1
269 779 m 0
 269 786 274 790 280 790 c 0
 286 790 291 786 291 779 c 0
 291 772 286 768 280 768 c 0
 274 768 269 772 269 779 c 0
EndSplineSet
EndChar

StartChar: zdotaccent
Encoding: 380 380 376
Width: 430
VWidth: 0
Flags: H
LayerCount: 2
Fore
SplineSet
379 450 m 1
 40 450 l 1
 40 460 l 1
 400 460 l 1
 41 10 l 1
 410 10 l 1
 410 0 l 1
 20 0 l 1
 379 450 l 1
209 571 m 4
 209 578 214 582 220 582 c 4
 226 582 231 578 231 571 c 4
 231 564 226 560 220 560 c 4
 214 560 209 564 209 571 c 4
EndSplineSet
EndChar
